<?xml version="1.0" encoding="utf-8"?>
<!-- Generator: Adobe Illustrator 16.0.0, SVG Export Plug-In . SVG Version: 6.00 Build 0)  -->
<!DOCTYPE svg PUBLIC "-//W3C//DTD SVG 1.1//EN" "http://www.w3.org/Graphics/SVG/1.1/DTD/svg11.dtd">
<svg version="1.1" xmlns="http://www.w3.org/2000/svg" xmlns:xlink="http://www.w3.org/1999/xlink" x="0px" y="0px"
	 width="95px" height="45px" viewBox="0 0 237.318 122" enable-background="new 0 0 237.318 122" xml:space="preserve">
<g id="Layer_1">
</g>
<g id="Lijntjes">
	<rect x="17.151" y="94.859" fill="#76966E" width="79.999" height="3.076"/>
	<rect x="17.151" y="24.483" fill="#4C88A8" width="197.719" height="3.076"/>
	<rect x="163.931" y="94.859" fill="#BA6868" width="50.939" height="3.076"/>
</g>
<g id="text_logo" display="none">
	<g display="inline">
		<rect x="-16.13" y="17" fill="none" width="271.333" height="108.5"/>
		<path fill="#5C5C5C" d="M39.179,89.52c-2.353,0-4.542-0.409-6.566-1.225c-2.026-0.816-3.79-1.926-5.292-3.332
			c-1.504-1.404-2.68-3.053-3.528-4.949c-0.85-1.894-1.273-3.952-1.273-6.174c0-2.156,0.521-4.131,1.567-5.929
			c1.045-1.796,2.499-3.347,4.361-4.655c1.862-1.306,4.082-2.318,6.664-3.038c2.58-0.718,5.438-1.078,8.575-1.078
			c2.808,0,5.684,0.229,8.624,0.686c2.939,0.458,5.552,1.144,7.84,2.058v-5.488c0-5.096-1.455-9.163-4.361-12.201
			c-2.907-3.038-6.811-4.557-11.711-4.557c-2.483,0-5.112,0.539-7.889,1.617c-2.778,1.078-5.604,2.631-8.478,4.655l-1.567-2.45
			c6.598-4.442,12.642-6.664,18.13-6.664c5.944,0,10.633,1.764,14.063,5.292c3.431,3.528,5.146,8.364,5.146,14.504v26.656
			c0,1.438,0.588,2.156,1.764,2.156v3.136c-0.196,0.064-0.458,0.098-0.784,0.098c-1.111,0-2.074-0.407-2.891-1.225
			c-0.817-0.816-1.225-1.813-1.225-2.989v-4.508c-2.288,3.072-5.31,5.439-9.065,7.105C47.523,88.687,43.49,89.52,39.179,89.52z
			 M39.668,86.678c4.116,0,7.872-0.768,11.271-2.303c3.396-1.534,5.944-3.609,7.644-6.223c1.045-1.372,1.568-2.678,1.568-3.92
			v-9.604c-5.032-1.96-10.454-2.94-16.269-2.94c-5.423,0-9.784,1.095-13.083,3.283c-3.3,2.189-4.948,5.113-4.948,8.771
			c0,1.83,0.358,3.528,1.078,5.096c0.718,1.568,1.681,2.94,2.891,4.116c1.208,1.176,2.661,2.092,4.361,2.744
			C35.878,86.352,37.708,86.678,39.668,86.678z"/>
		<path fill="#5C5C5C" d="M101.8,40.715c-4.704,0.196-8.788,1.683-12.25,4.459c-3.464,2.778-5.88,6.551-7.252,11.319V88.54h-3.332
			V37.58H82.2v12.936c1.764-3.592,4.116-6.532,7.056-8.82c2.94-2.286,6.076-3.626,9.408-4.018c0.652,0,1.24-0.016,1.764-0.049
			c0.522-0.032,0.98-0.049,1.372-0.049V40.715z"/>
		<path fill="#5C5C5C" d="M132.473,89.421c-3.528,0-6.778-0.751-9.751-2.254c-2.974-1.502-5.537-3.479-7.693-5.929
			c-2.155-2.45-3.838-5.243-5.047-8.379c-1.209-3.136-1.813-6.336-1.813-9.604c0-3.462,0.571-6.777,1.715-9.947
			c1.143-3.168,2.76-5.978,4.851-8.428c2.091-2.45,4.59-4.41,7.497-5.88c2.906-1.47,6.092-2.205,9.556-2.205
			c2.286,0,4.41,0.328,6.37,0.98c1.96,0.654,3.788,1.536,5.487,2.646c1.698,1.112,3.267,2.418,4.704,3.92
			c1.437,1.504,2.744,3.104,3.92,4.802V37.58h3.137v52.528c0,3.462-0.638,6.451-1.911,8.967c-1.274,2.514-2.989,4.621-5.146,6.321
			c-2.156,1.698-4.64,2.956-7.448,3.773c-2.81,0.816-5.718,1.225-8.722,1.225c-3.006,0-5.669-0.294-7.987-0.882
			c-2.319-0.588-4.36-1.406-6.125-2.45c-1.764-1.046-3.316-2.303-4.654-3.773c-1.34-1.47-2.499-3.087-3.479-4.851l2.45-1.372
			c2.09,3.658,4.9,6.304,8.428,7.938c3.528,1.632,7.316,2.45,11.368,2.45c2.679,0,5.227-0.36,7.645-1.078
			c2.416-0.72,4.522-1.813,6.32-3.283c1.797-1.47,3.234-3.283,4.313-5.439c1.078-2.156,1.617-4.671,1.617-7.546V78.151
			c-1.046,1.7-2.304,3.234-3.773,4.606c-1.47,1.372-3.055,2.548-4.753,3.528c-1.7,0.98-3.496,1.749-5.39,2.303
			C136.261,89.143,134.367,89.421,132.473,89.421z M133.061,86.384c2.286,0,4.523-0.441,6.713-1.323
			c2.188-0.882,4.165-2.024,5.93-3.43c1.764-1.404,3.217-2.972,4.36-4.704c1.143-1.73,1.813-3.479,2.01-5.243V54.142
			c-0.784-2.024-1.879-3.92-3.283-5.684c-1.406-1.764-2.989-3.266-4.753-4.508c-1.765-1.24-3.66-2.221-5.685-2.94
			c-2.025-0.718-4.084-1.078-6.174-1.078c-3.268,0-6.174,0.686-8.722,2.058c-2.548,1.372-4.704,3.169-6.468,5.39
			c-1.765,2.222-3.121,4.721-4.067,7.497c-0.948,2.778-1.421,5.571-1.421,8.379c0,3.072,0.554,5.995,1.666,8.771
			c1.11,2.778,2.646,5.228,4.605,7.35c1.96,2.124,4.246,3.822,6.86,5.096C127.245,85.747,130.055,86.384,133.061,86.384z"/>
		<path fill="#5C5C5C" d="M186.862,89.52c-5.424,0-9.506-1.926-12.25-5.782c-2.744-3.854-4.116-9.57-4.116-17.15V37.58h3.332v28.616
			c0,13.46,4.572,20.188,13.72,20.188c2.286,0,4.54-0.408,6.763-1.225c2.22-0.816,4.263-1.943,6.125-3.381
			c1.861-1.436,3.494-3.168,4.899-5.194c1.404-2.024,2.499-4.246,3.283-6.664V37.58h3.332v45.668c0,1.438,0.588,2.156,1.764,2.156
			v3.136c-0.195,0.064-0.376,0.098-0.539,0.098s-0.311,0-0.44,0c-1.112,0-2.043-0.457-2.793-1.372
			c-0.752-0.914-1.127-1.862-1.127-2.842v-8.428c-2.222,4.182-5.292,7.481-9.212,9.898C195.683,88.312,191.435,89.52,186.862,89.52z
			"/>
	</g>
</g>
</svg>
