<?xml version="1.0" encoding="utf-8"?>
<!-- Generator: Adobe Illustrator 17.0.0, SVG Export Plug-In . SVG Version: 6.00 Build 0)  -->
<!DOCTYPE svg PUBLIC "-//W3C//DTD SVG 1.1//EN" "http://www.w3.org/Graphics/SVG/1.1/DTD/svg11.dtd">
<svg version="1.1" id="Layer_1" xmlns="http://www.w3.org/2000/svg" xmlns:xlink="http://www.w3.org/1999/xlink" x="0px" y="0px"
	 width="94px" height="45px" viewBox="0 0 94 45" enable-background="new 0 0 94 45" xml:space="preserve">
<g id="Layer_1_1_">
</g>
<g id="Lijntjes">
	<rect x="8.986" y="35.406" fill="#76966E" width="30.835" height="1.186"/>
	<rect x="8.986" y="8.281" fill="#4C88A8" width="76.209" height="1.186"/>
	<rect x="65.561" y="35.406" fill="#BA6868" width="19.634" height="1.186"/>
</g>
<g id="text_logo">
	<g>
		<rect x="-6.353" y="4.424" fill="none" width="108.103" height="43.228"/>
		<path fill="#5C5C5C" d="M15.683,33.317c-0.937,0-1.81-0.163-2.616-0.488c-0.807-0.325-1.51-0.767-2.108-1.328
			c-0.599-0.559-1.068-1.216-1.406-1.972c-0.339-0.755-0.507-1.575-0.507-2.46c0-0.859,0.208-1.646,0.624-2.362
			c0.416-0.716,0.996-1.333,1.737-1.855c0.742-0.52,1.626-0.924,2.655-1.21c1.028-0.286,2.167-0.429,3.416-0.429
			c1.119,0,2.265,0.091,3.436,0.273c1.171,0.182,2.212,0.456,3.124,0.82V20.12c0-2.03-0.58-3.651-1.737-4.861
			c-1.158-1.21-2.714-1.816-4.666-1.816c-0.989,0-2.037,0.215-3.143,0.644c-1.107,0.429-2.233,1.048-3.378,1.855l-0.624-0.976
			c2.629-1.77,5.037-2.655,7.223-2.655c2.368,0,4.236,0.703,5.603,2.108c1.367,1.406,2.05,3.332,2.05,5.779v10.62
			c0,0.573,0.234,0.859,0.703,0.859v1.249c-0.078,0.026-0.182,0.039-0.312,0.039c-0.443,0-0.826-0.162-1.152-0.488
			c-0.326-0.325-0.488-0.722-0.488-1.191v-1.796c-0.912,1.224-2.116,2.167-3.612,2.831C19.007,32.985,17.4,33.317,15.683,33.317z
			 M15.877,32.185c1.64,0,3.136-0.306,4.491-0.918c1.353-0.611,2.368-1.438,3.045-2.479c0.416-0.547,0.625-1.067,0.625-1.562V23.4
			c-2.005-0.781-4.165-1.171-6.482-1.171c-2.161,0-3.898,0.436-5.212,1.308c-1.315,0.872-1.971,2.037-1.971,3.495
			c0,0.729,0.143,1.406,0.429,2.03c0.286,0.625,0.67,1.171,1.152,1.64c0.481,0.469,1.06,0.833,1.737,1.093
			C14.367,32.055,15.097,32.185,15.877,32.185z"/>
		<path fill="#5C5C5C" d="M40.632,13.873c-1.874,0.078-3.501,0.671-4.881,1.777c-1.38,1.107-2.343,2.61-2.889,4.51v12.768h-1.328
			V12.623h1.288v5.154c0.703-1.431,1.64-2.602,2.811-3.514c1.171-0.911,2.421-1.445,3.748-1.601c0.26,0,0.494-0.006,0.703-0.02
			c0.208-0.013,0.39-0.02,0.547-0.02V13.873z"/>
		<path fill="#5C5C5C" d="M52.852,33.278c-1.406,0-2.7-0.299-3.885-0.898c-1.185-0.598-2.206-1.386-3.065-2.362
			c-0.859-0.976-1.529-2.089-2.011-3.338c-0.482-1.249-0.722-2.524-0.722-3.826c0-1.379,0.227-2.7,0.683-3.963
			c0.455-1.262,1.1-2.382,1.933-3.358s1.829-1.757,2.987-2.343c1.158-0.586,2.427-0.879,3.807-0.879c0.911,0,1.757,0.131,2.538,0.39
			c0.781,0.261,1.509,0.612,2.186,1.054c0.677,0.443,1.302,0.963,1.874,1.562c0.573,0.599,1.093,1.237,1.562,1.913v-4.607h1.25
			v20.928c0,1.379-0.254,2.57-0.761,3.573c-0.508,1.002-1.191,1.841-2.05,2.518c-0.859,0.677-1.849,1.178-2.967,1.503
			c-1.12,0.325-2.278,0.488-3.475,0.488c-1.198,0-2.259-0.117-3.182-0.351c-0.924-0.234-1.737-0.56-2.44-0.976
			c-0.703-0.417-1.321-0.918-1.854-1.503c-0.534-0.586-0.996-1.23-1.386-1.933l0.976-0.547c0.833,1.457,1.952,2.512,3.358,3.163
			c1.406,0.65,2.915,0.976,4.529,0.976c1.067,0,2.083-0.143,3.046-0.429c0.963-0.287,1.802-0.722,2.518-1.308
			c0.716-0.586,1.288-1.308,1.718-2.167c0.429-0.859,0.644-1.861,0.644-3.006v-4.763c-0.417,0.677-0.918,1.288-1.503,1.835
			c-0.586,0.547-1.217,1.015-1.894,1.406c-0.677,0.39-1.393,0.697-2.147,0.918C54.362,33.167,53.607,33.278,52.852,33.278z
			 M53.086,32.068c0.911,0,1.802-0.176,2.675-0.527c0.872-0.351,1.659-0.806,2.363-1.367c0.703-0.559,1.282-1.184,1.737-1.874
			c0.455-0.689,0.722-1.386,0.801-2.089v-6.989c-0.312-0.806-0.749-1.562-1.308-2.265c-0.56-0.703-1.191-1.301-1.894-1.796
			c-0.703-0.494-1.458-0.885-2.265-1.171c-0.807-0.286-1.627-0.429-2.46-0.429c-1.302,0-2.46,0.273-3.475,0.82
			c-1.015,0.547-1.874,1.263-2.577,2.147c-0.703,0.885-1.243,1.881-1.62,2.987c-0.378,1.107-0.566,2.22-0.566,3.338
			c0,1.224,0.221,2.389,0.664,3.495c0.442,1.107,1.054,2.083,1.835,2.928c0.781,0.846,1.692,1.523,2.733,2.03
			C50.77,31.814,51.889,32.068,53.086,32.068z"/>
		<path fill="#5C5C5C" d="M74.522,33.317c-2.161,0-3.787-0.767-4.881-2.304c-1.093-1.535-1.64-3.813-1.64-6.833V12.623h1.328v11.401
			c0,5.363,1.822,8.043,5.466,8.043c0.911,0,1.809-0.163,2.694-0.488c0.884-0.325,1.698-0.774,2.44-1.347
			c0.741-0.572,1.392-1.262,1.952-2.069c0.559-0.806,0.996-1.692,1.308-2.655V12.623h1.328v18.195c0,0.573,0.234,0.859,0.703,0.859
			v1.249c-0.078,0.026-0.15,0.039-0.215,0.039s-0.124,0-0.175,0c-0.443,0-0.814-0.182-1.113-0.547
			c-0.3-0.364-0.449-0.742-0.449-1.132v-3.358c-0.885,1.666-2.108,2.981-3.67,3.944C78.036,32.836,76.343,33.317,74.522,33.317z"/>
	</g>
</g>
</svg>
