<?xml version="1.0" encoding="utf-8"?>
<!-- Generator: Adobe Illustrator 16.0.0, SVG Export Plug-In . SVG Version: 6.00 Build 0)  -->
<!DOCTYPE svg PUBLIC "-//W3C//DTD SVG 1.1//EN" "http://www.w3.org/Graphics/SVG/1.1/DTD/svg11.dtd">
<svg version="1.1" id="Layer_1" xmlns="http://www.w3.org/2000/svg" xmlns:xlink="http://www.w3.org/1999/xlink" x="0px" y="0px"
	 width="128px" height="128px" viewBox="0 0 128 128" enable-background="new 0 0 128 128" xml:space="preserve">
<g>
	<path id="path3028" fill="#FFFFFF" d="M0,64.002V0h64h64v64.002v64.003H64H0V64.002z"/>
	<path id="path3026" fill="#FEDD00" d="M59.253,127.154c9.326-4.874,16.949-12.034,20.409-19.161
		c1.878-3.87,2.471-6.496,2.456-10.88c-0.012-2.896-0.066-3.432-0.52-5.087c-0.919-3.36-2.461-6.023-4.953-8.559
		c-3.247-3.308-7.177-5.444-12.336-6.699c-4.341-1.057-11.295-1.585-26.801-2.033c-16.292-0.475-19.263-0.659-22.291-1.405
		c-3.206-0.788-5.145-2.233-5.73-4.268c-0.468-1.63,0.371-4.386,2.136-7.007c1.178-1.754,5.046-5.637,5.613-5.637
		c0.21,0,1.44,0.243,2.732,0.541c8.214,1.892,16.738,1.863,24.51-0.082c6.625-1.656,12.538-5.066,16.973-9.785
		c5.224-5.559,7.889-11.802,8.189-19.16c0.285-6.959-1.337-13.382-4.6-18.217c-0.468-0.693-0.85-1.332-0.85-1.418
		s3.057-0.162,6.791-0.168c3.733-0.006,7.667-0.075,8.74-0.154c3.057-0.222,3.468-0.691,3.6-4.082
		c0.06-1.559,0.004-2.375-0.202-3.014L82.842,0h22.578H128v64.002v64.003l-35.18-0.003L57.638,128L59.253,127.154L59.253,127.154z
		 M29.814,120.969c-10.276-0.92-17.647-3.056-23.125-6.711c-2.43-1.619-4.062-3.618-4.704-5.763
		c-0.415-1.395-0.287-4.01,0.292-6.018c1.013-3.501,4.409-9.087,7.803-12.833l0.816-0.9l1.152,0.102
		c0.631,0.054,2.943,0.27,5.138,0.478c7.219,0.688,15.952,1.154,28.012,1.503c14.822,0.425,21.026,1.218,24.925,3.181
		c3.399,1.712,4.946,4.776,4.368,8.639c-0.471,3.151-2.144,6.111-5.08,8.987c-4.4,4.311-9.628,6.914-16.675,8.307
		c-4.709,0.931-6.611,1.084-14.091,1.138C34.782,121.105,30.808,121.056,29.814,120.969z M0,88.792v-4.251l2.422,1.596
		c1.331,0.879,2.447,1.666,2.481,1.75c0.056,0.136-4.643,5.157-4.826,5.157C0.035,93.044,0,91.133,0,88.792z M0.004,55.093
		l0.004-10.235l0.706,0.832c2.32,2.74,5.189,5.127,8.342,6.941c1.129,0.65,2.213,1.292,2.408,1.427
		c0.325,0.224,0.104,0.46-2.677,2.867c-1.669,1.442-4.329,3.923-5.91,5.513L0,65.327L0.004,55.093L0.004,55.093z M29.341,52.808
		c-5.617-1.207-9.964-4.795-13.168-10.872c-1.727-3.274-2.915-7.101-3.671-11.821c-0.57-3.561-0.627-12.466-0.098-15.409
		c1.188-6.63,3.437-10.768,7.602-13.995L20.923,0h9.464h9.46l0.92,0.71c3.343,2.585,6.33,7,8.101,11.977
		c3.347,9.392,3.45,22.85,0.232,30.102c-1.002,2.262-1.78,3.406-3.517,5.177c-2.588,2.638-5.301,4.131-8.779,4.828
		C35.024,53.151,30.979,53.158,29.341,52.808z M0,3.422V0h3.458h3.458L5.507,1.25c-1.724,1.528-3.5,3.329-4.556,4.623
		C0.513,6.408,0.122,6.845,0.078,6.845C0.035,6.845,0,5.304,0,3.422z"/>
	<path id="path3024" fill="#EB214D" d="M59.253,127.154c9.326-4.874,16.949-12.034,20.409-19.161
		c1.878-3.87,2.471-6.496,2.456-10.88c-0.012-2.896-0.066-3.432-0.52-5.087c-0.919-3.36-2.461-6.023-4.953-8.559
		c-3.247-3.308-7.177-5.444-12.336-6.699c-4.341-1.057-11.295-1.585-26.801-2.033c-16.292-0.475-19.263-0.659-22.291-1.405
		c-3.206-0.788-5.145-2.233-5.73-4.268c-0.468-1.63,0.371-4.386,2.136-7.007c1.178-1.754,5.046-5.637,5.613-5.637
		c0.21,0,1.44,0.243,2.732,0.541c8.214,1.892,16.738,1.863,24.51-0.082c6.625-1.656,12.538-5.066,16.973-9.785
		c5.224-5.559,7.889-11.802,8.189-19.16c0.285-6.959-1.337-13.382-4.6-18.217c-0.468-0.693-0.85-1.332-0.85-1.418
		s3.057-0.162,6.791-0.168c3.733-0.006,7.667-0.075,8.74-0.154c3.057-0.222,3.468-0.691,3.6-4.082
		c0.06-1.559,0.004-2.375-0.202-3.014L82.842,0h22.578H128v64.002v64.003l-35.18-0.003L57.638,128L59.253,127.154L59.253,127.154z
		 M0,88.792v-4.251l2.422,1.596c1.331,0.879,2.447,1.666,2.481,1.75c0.056,0.136-4.643,5.157-4.826,5.157
		C0.035,93.044,0,91.133,0,88.792z M0.004,55.093l0.004-10.235l0.706,0.832c2.32,2.74,5.189,5.127,8.342,6.941
		c1.129,0.65,2.213,1.292,2.408,1.427c0.325,0.224,0.104,0.46-2.677,2.867c-1.669,1.442-4.329,3.923-5.91,5.513L0,65.327
		L0.004,55.093L0.004,55.093z M29.341,52.808c-5.617-1.207-9.964-4.795-13.168-10.872c-1.727-3.274-2.915-7.101-3.671-11.821
		c-0.57-3.561-0.627-12.466-0.098-15.409c1.188-6.63,3.437-10.768,7.602-13.995L20.923,0h9.464h9.46l0.92,0.71
		c3.343,2.585,6.33,7,8.101,11.977c3.347,9.392,3.45,22.85,0.232,30.102c-1.002,2.262-1.78,3.406-3.517,5.177
		c-2.588,2.638-5.301,4.131-8.779,4.828C35.024,53.151,30.979,53.158,29.341,52.808z M0,3.422V0h3.458h3.458L5.507,1.25
		c-1.724,1.528-3.5,3.329-4.556,4.623C0.513,6.408,0.122,6.845,0.078,6.845C0.035,6.845,0,5.304,0,3.422z"/>
	<path id="path3022" fill="#177DC2" d="M59.253,127.154c9.326-4.874,16.949-12.034,20.409-19.161
		c1.878-3.87,2.471-6.496,2.456-10.88c-0.012-2.896-0.066-3.432-0.52-5.087c-0.919-3.36-2.461-6.023-4.953-8.559
		c-3.247-3.308-7.177-5.444-12.336-6.699c-4.341-1.057-11.295-1.585-26.801-2.033c-16.292-0.475-19.263-0.659-22.291-1.405
		c-3.206-0.788-5.145-2.233-5.73-4.268c-0.468-1.63,0.371-4.386,2.136-7.007c1.178-1.754,5.046-5.637,5.613-5.637
		c0.21,0,1.44,0.243,2.732,0.541c8.214,1.892,16.738,1.863,24.51-0.082c4.986-1.247,9.854-3.626,13.58-6.641l1.2-0.969l2.418-0.403
		c7.775-1.295,11.467-1.59,19.796-1.584c7.215,0.007,9.975,0.182,15.952,1.012c10.215,1.421,19.684,4.235,27.776,8.256l2.8,1.394
		v35.03v35.032l-35.18-0.003L57.638,128L59.253,127.154L59.253,127.154z M0,88.792v-4.251l2.422,1.596
		c1.331,0.879,2.447,1.666,2.481,1.75c0.056,0.136-4.643,5.157-4.826,5.157C0.035,93.044,0,91.133,0,88.792z M0.004,55.093
		l0.004-10.235l0.706,0.832c2.32,2.74,5.189,5.127,8.342,6.941c1.129,0.65,2.213,1.292,2.408,1.427
		c0.325,0.224,0.104,0.46-2.677,2.867c-1.669,1.442-4.329,3.923-5.91,5.513L0,65.327L0.004,55.093L0.004,55.093z M29.341,52.808
		c-5.617-1.207-9.964-4.795-13.168-10.872c-1.727-3.274-2.915-7.101-3.671-11.821c-0.57-3.561-0.627-12.466-0.098-15.409
		c1.188-6.63,3.437-10.768,7.602-13.995L20.923,0h9.464h9.46l0.92,0.71c3.343,2.585,6.33,7,8.101,11.977
		c3.347,9.392,3.45,22.85,0.232,30.102c-1.002,2.262-1.78,3.406-3.517,5.177c-2.588,2.638-5.301,4.131-8.779,4.828
		C35.024,53.151,30.979,53.158,29.341,52.808z M0,3.422V0h3.458h3.458L5.507,1.25c-1.724,1.528-3.5,3.329-4.556,4.623
		C0.513,6.408,0.122,6.845,0.078,6.845C0.035,6.845,0,5.304,0,3.422z"/>
	<path id="path3020" fill="#0FA94D" d="M59.253,127.154c9.326-4.874,16.949-12.034,20.409-19.161
		c1.878-3.87,2.471-6.496,2.456-10.88c-0.012-2.896-0.066-3.432-0.52-5.087c-0.919-3.36-2.461-6.023-4.953-8.559
		c-3.247-3.308-7.177-5.444-12.336-6.699c-4.341-1.057-11.295-1.585-26.801-2.033c-16.292-0.475-19.263-0.659-22.291-1.405
		c-3.206-0.788-5.145-2.233-5.73-4.268c-0.468-1.63,0.371-4.386,2.136-7.007c1.178-1.754,5.046-5.637,5.613-5.637
		c0.21,0,1.44,0.243,2.732,0.541c8.214,1.892,16.738,1.863,24.51-0.082c4.986-1.247,9.854-3.626,13.58-6.641l1.2-0.969l2.418-0.403
		c7.775-1.295,11.467-1.59,19.796-1.584c7.215,0.007,9.975,0.182,15.952,1.012c10.215,1.421,19.684,4.235,27.776,8.256l2.8,1.394
		v35.03v35.032l-35.18-0.003L57.638,128L59.253,127.154L59.253,127.154z"/>
</g>
</svg>
