<?xml version="1.0" encoding="utf-8"?>
<!-- Generator: Adobe Illustrator 16.0.0, SVG Export Plug-In . SVG Version: 6.00 Build 0)  -->
<!DOCTYPE svg PUBLIC "-//W3C//DTD SVG 1.1//EN" "http://www.w3.org/Graphics/SVG/1.1/DTD/svg11.dtd">
<svg version="1.1" id="Layer_1" xmlns="http://www.w3.org/2000/svg" xmlns:xlink="http://www.w3.org/1999/xlink" x="0px" y="0px"
	 width="45px" height="45px" viewBox="0 0 45 45" enable-background="new 0 0 45 45" xml:space="preserve">
<g>
	<path id="path3028" inkscape:connector-curvature="0" fill="#FFFFFF" d="M0,22.501V0h22.5H45v22.501v22.5H22.5H0V22.501z"/>
	<path id="path3026" inkscape:connector-curvature="0" fill="#FFDD04" d="M20.831,44.703c3.279-1.715,5.959-4.23,7.175-6.737
		c0.661-1.36,0.869-2.283,0.864-3.823c-0.005-1.021-0.023-1.207-0.183-1.79c-0.323-1.181-0.865-2.116-1.741-3.009
		c-1.142-1.163-2.524-1.913-4.337-2.354c-1.526-0.372-3.972-0.557-9.423-0.715c-5.728-0.168-6.772-0.232-7.836-0.494
		c-1.127-0.276-1.809-0.784-2.015-1.5c-0.165-0.573,0.13-1.542,0.75-2.465c0.415-0.617,1.774-1.98,1.974-1.98
		c0.074,0,0.506,0.085,0.96,0.19c2.888,0.665,5.885,0.654,8.617-0.029c2.33-0.582,4.408-1.781,5.967-3.44
		c1.836-1.954,2.774-4.149,2.878-6.736c0.101-2.446-0.47-4.704-1.617-6.404c-0.164-0.244-0.299-0.469-0.299-0.499
		c0-0.03,1.075-0.057,2.387-0.059c1.313-0.002,2.696-0.026,3.073-0.054c1.074-0.078,1.219-0.243,1.266-1.435
		c0.021-0.547,0.001-0.834-0.071-1.059L29.124,0h7.938H45v22.501v22.5L32.632,45H20.264L20.831,44.703L20.831,44.703z
		 M10.482,42.528c-3.613-0.324-6.204-1.074-8.13-2.359c-0.854-0.569-1.428-1.272-1.654-2.026c-0.146-0.489-0.101-1.409,0.103-2.115
		c0.356-1.231,1.55-3.194,2.744-4.512l0.287-0.316l0.405,0.035c0.222,0.02,1.035,0.095,1.806,0.169
		c2.538,0.242,5.608,0.405,9.848,0.527c5.211,0.15,7.392,0.429,8.763,1.119c1.195,0.602,1.739,1.679,1.536,3.037
		c-0.166,1.107-0.754,2.148-1.786,3.158c-1.547,1.517-3.385,2.432-5.862,2.921c-1.656,0.327-2.324,0.382-4.954,0.4
		C12.228,42.576,10.831,42.559,10.482,42.528z M0,31.216v-1.494l0.852,0.561c0.468,0.31,0.86,0.587,0.872,0.615
		c0.02,0.048-1.632,1.814-1.697,1.814C0.012,32.712,0,32.039,0,31.216z M0.001,19.368l0.001-3.598l0.248,0.292
		c0.816,0.963,1.825,1.802,2.933,2.44c0.397,0.229,0.778,0.455,0.847,0.501c0.114,0.079,0.037,0.162-0.941,1.008
		c-0.587,0.507-1.522,1.379-2.078,1.938L0,22.966L0.001,19.368L0.001,19.368z M10.315,18.565c-1.975-0.424-3.503-1.686-4.63-3.822
		c-0.607-1.151-1.024-2.496-1.291-4.157c-0.2-1.251-0.22-4.382-0.034-5.417C4.778,2.839,5.569,1.385,7.033,0.25L7.356,0h3.327h3.326
		l0.323,0.25c1.175,0.908,2.226,2.46,2.848,4.21c1.176,3.302,1.212,8.034,0.082,10.583c-0.352,0.795-0.626,1.198-1.236,1.82
		c-0.91,0.927-1.864,1.452-3.086,1.697C12.313,18.687,10.891,18.688,10.315,18.565z M0,1.203V0h1.216h1.216L1.936,0.439
		c-0.605,0.537-1.23,1.17-1.602,1.625C0.181,2.252,0.043,2.406,0.027,2.406C0.012,2.406,0,1.865,0,1.203z"/>
	<path id="path3024" inkscape:connector-curvature="0" fill="#ED1A4B" d="M20.831,44.703c3.279-1.715,5.959-4.23,7.175-6.737
		c0.661-1.36,0.869-2.283,0.864-3.823c-0.005-1.021-0.023-1.207-0.183-1.79c-0.323-1.181-0.865-2.116-1.741-3.009
		c-1.142-1.163-2.524-1.913-4.337-2.354c-1.526-0.372-3.972-0.557-9.423-0.715c-5.728-0.168-6.772-0.232-7.836-0.494
		c-1.127-0.276-1.809-0.784-2.015-1.5c-0.165-0.573,0.13-1.542,0.75-2.465c0.415-0.617,1.774-1.98,1.974-1.98
		c0.074,0,0.506,0.085,0.96,0.19c2.888,0.665,5.885,0.654,8.617-0.029c2.33-0.582,4.408-1.781,5.967-3.44
		c1.836-1.954,2.774-4.149,2.878-6.736c0.101-2.446-0.47-4.704-1.617-6.404c-0.164-0.244-0.299-0.469-0.299-0.499
		c0-0.03,1.075-0.057,2.387-0.059c1.313-0.002,2.696-0.026,3.073-0.054c1.074-0.078,1.219-0.243,1.266-1.435
		c0.021-0.547,0.001-0.834-0.071-1.059L29.124,0h7.938H45v22.501v22.5L32.632,45H20.264L20.831,44.703L20.831,44.703z M0,31.216
		v-1.494l0.852,0.561c0.468,0.31,0.86,0.587,0.872,0.615c0.02,0.048-1.632,1.814-1.697,1.814C0.012,32.712,0,32.039,0,31.216z
		 M0.001,19.368l0.001-3.598l0.248,0.292c0.816,0.963,1.825,1.802,2.933,2.44c0.397,0.229,0.778,0.455,0.847,0.501
		c0.114,0.079,0.037,0.162-0.941,1.008c-0.587,0.507-1.522,1.379-2.078,1.938L0,22.966L0.001,19.368L0.001,19.368z M10.315,18.565
		c-1.975-0.424-3.503-1.686-4.63-3.822c-0.607-1.151-1.024-2.496-1.291-4.157c-0.2-1.251-0.22-4.382-0.034-5.417
		C4.778,2.839,5.569,1.385,7.033,0.25L7.356,0h3.327h3.326l0.323,0.25c1.175,0.908,2.226,2.46,2.848,4.21
		c1.176,3.302,1.212,8.034,0.082,10.583c-0.352,0.795-0.626,1.198-1.236,1.82c-0.91,0.927-1.864,1.452-3.086,1.697
		C12.313,18.687,10.891,18.688,10.315,18.565z M0,1.203V0h1.216h1.216L1.936,0.439c-0.605,0.537-1.23,1.17-1.602,1.625
		C0.181,2.252,0.043,2.406,0.027,2.406C0.012,2.406,0,1.865,0,1.203z"/>
	<path id="path3022" inkscape:connector-curvature="0" fill="#007DC7" d="M20.831,44.703c3.279-1.715,5.959-4.23,7.175-6.737
		c0.661-1.36,0.869-2.283,0.864-3.823c-0.005-1.021-0.023-1.207-0.183-1.79c-0.323-1.181-0.865-2.116-1.741-3.009
		c-1.142-1.163-2.524-1.913-4.337-2.354c-1.526-0.372-3.972-0.557-9.423-0.715c-5.728-0.168-6.772-0.232-7.836-0.494
		c-1.127-0.276-1.809-0.784-2.015-1.5c-0.165-0.573,0.13-1.542,0.75-2.465c0.415-0.617,1.774-1.98,1.974-1.98
		c0.074,0,0.506,0.085,0.96,0.19c2.888,0.665,5.885,0.654,8.617-0.029c1.753-0.438,3.464-1.274,4.774-2.335l0.422-0.34l0.851-0.142
		c2.733-0.456,4.03-0.559,6.959-0.557c2.536,0.002,3.507,0.063,5.608,0.356c3.591,0.499,6.92,1.489,9.765,2.902L45,20.37v12.315
		v12.315L32.632,45H20.264L20.831,44.703L20.831,44.703z M0,31.216v-1.494l0.852,0.561c0.468,0.31,0.86,0.587,0.872,0.615
		c0.02,0.048-1.632,1.814-1.697,1.814C0.012,32.712,0,32.039,0,31.216z M0.001,19.368l0.001-3.598l0.248,0.292
		c0.816,0.963,1.825,1.802,2.933,2.44c0.397,0.229,0.778,0.455,0.847,0.501c0.114,0.079,0.037,0.162-0.941,1.008
		c-0.587,0.507-1.522,1.379-2.078,1.938L0,22.966L0.001,19.368L0.001,19.368z M10.315,18.565c-1.975-0.424-3.503-1.686-4.63-3.822
		c-0.607-1.151-1.024-2.496-1.291-4.157c-0.2-1.251-0.22-4.382-0.034-5.417C4.778,2.839,5.569,1.385,7.033,0.25L7.356,0h3.327h3.326
		l0.323,0.25c1.175,0.908,2.226,2.46,2.848,4.21c1.176,3.302,1.212,8.034,0.082,10.583c-0.352,0.795-0.626,1.198-1.236,1.82
		c-0.91,0.927-1.864,1.452-3.086,1.697C12.313,18.687,10.891,18.688,10.315,18.565z M0,1.203V0h1.216h1.216L1.936,0.439
		c-0.605,0.537-1.23,1.17-1.602,1.625C0.181,2.252,0.043,2.406,0.027,2.406C0.012,2.406,0,1.865,0,1.203z"/>
	<path id="path3020" inkscape:connector-curvature="0" fill="#06A94E" d="M20.831,44.703c3.279-1.715,5.959-4.23,7.175-6.737
		c0.661-1.36,0.869-2.283,0.864-3.823c-0.005-1.021-0.023-1.207-0.183-1.79c-0.323-1.181-0.865-2.116-1.741-3.009
		c-1.142-1.163-2.524-1.913-4.337-2.354c-1.526-0.372-3.972-0.557-9.423-0.715c-5.728-0.168-6.772-0.232-7.836-0.494
		c-1.127-0.276-1.809-0.784-2.015-1.5c-0.165-0.573,0.13-1.542,0.75-2.465c0.415-0.617,1.774-1.98,1.974-1.98
		c0.074,0,0.506,0.085,0.96,0.19c2.888,0.665,5.885,0.654,8.617-0.029c1.753-0.438,3.464-1.274,4.774-2.335l0.422-0.34l0.851-0.142
		c2.733-0.456,4.03-0.559,6.959-0.557c2.536,0.002,3.507,0.063,5.608,0.356c3.591,0.499,6.92,1.489,9.765,2.902L45,20.37v12.315
		v12.315L32.632,45H20.264L20.831,44.703L20.831,44.703z"/>
</g>
</svg>
