<?xml version="1.0" encoding="utf-8"?>
<!-- Generator: Adobe Illustrator 16.0.0, SVG Export Plug-In . SVG Version: 6.00 Build 0)  -->
<!DOCTYPE svg PUBLIC "-//W3C//DTD SVG 1.1//EN" "http://www.w3.org/Graphics/SVG/1.1/DTD/svg11.dtd">
<svg version="1.1" id="Layer_1" xmlns="http://www.w3.org/2000/svg" xmlns:xlink="http://www.w3.org/1999/xlink" x="0px" y="0px"
	 width="45px" height="45px" viewBox="0 0 45 45" enable-background="new 0 0 45 45" xml:space="preserve">
<rect fill="#41ABE1" width="45" height="45"/>
<g id="Livello_x0020_1">
	<path fill="#FFFFFF" d="M41.992,9.735c-1.415,0.612-2.938,1.027-4.531,1.213c1.629-0.955,2.88-2.471,3.465-4.273
		c-1.526,0.888-3.213,1.527-5.008,1.876c-1.439-1.5-3.487-2.437-5.76-2.437c-4.354,0-7.887,3.458-7.887,7.72
		c0,0.606,0.069,1.196,0.206,1.757c-6.556-0.32-12.367-3.397-16.257-8.068c-0.677,1.14-1.066,2.465-1.066,3.879
		c0,2.679,1.394,5.042,3.511,6.423c-1.292-0.039-2.507-0.387-3.574-0.965c0,0.033,0,0.062,0,0.095c0,3.739,2.72,6.86,6.327,7.568
		c-0.66,0.174-1.36,0.271-2.076,0.271c-0.511,0-1.004-0.052-1.486-0.142c1.004,3.066,3.918,5.3,7.366,5.362
		c-2.703,2.071-6.098,3.307-9.798,3.307c-0.637,0-1.262-0.039-1.882-0.107c3.488,2.19,7.635,3.47,12.092,3.47
		c14.507,0,22.441-11.762,22.441-21.962c0-0.337-0.006-0.668-0.023-1c1.544-1.089,2.881-2.448,3.936-3.997L41.992,9.735z"/>
</g>
</svg>
