<?xml version="1.0" encoding="utf-8"?>
<!-- Generator: Adobe Illustrator 16.0.0, SVG Export Plug-In . SVG Version: 6.00 Build 0)  -->
<!DOCTYPE svg PUBLIC "-//W3C//DTD SVG 1.1//EN" "http://www.w3.org/Graphics/SVG/1.1/DTD/svg11.dtd">
<svg version="1.1" id="Layer_1" xmlns="http://www.w3.org/2000/svg" xmlns:xlink="http://www.w3.org/1999/xlink" x="0px" y="0px"
	 width="45px" height="45px" viewBox="0 0 45 45" enable-background="new 0 0 45 45" xml:space="preserve">
<rect fill="#FFFFFF" width="45" height="45"/>
<g id="g2602" transform="matrix(1.25,0,0,-1.25,-8601.9012,9121.1624)">
	<g id="g2734" transform="matrix(0.375,0,0,0.375,4301.4506,4557.5812)">
		<g id="g2726">
			<g id="g2604" transform="translate(6998.0969,7259.1135)">
				<path id="path2606" fill="#F8931E" d="M-73.147,31.004v-65.63v-8.233l13.133,6.179v74.099L-73.147,31.004z"/>
			</g>
			<g id="g2608" transform="translate(7108.9192,7206.3137)">
				<path id="path2610" fill="#B3B3B3" d="M-138.492,62.136l1.813-18.821l-25.392,5.527"/>
			</g>
			<g id="g2620" transform="translate(6934.0969,7147.6213)">
				<path id="path2622" fill="#B3B3B3" d="M-35.407,96.743c0,9.304,10.138,17.141,23.957,19.532v8.342
					c-21.138-2.555-37.089-14.063-37.089-27.874c0-14.306,17.122-26.142,39.392-28.11v8.233
					C-24.13,78.743-35.407,86.93-35.407,96.743 M6.291,124.614v-8.339c5.498-0.952,10.419-2.759,14.34-5.185l9.285,5.739
					C23.589,120.739,15.424,123.51,6.291,124.614"/>
			</g>
		</g>
	</g>
</g>
</svg>
