<svg version="1.1" id="Layer_1" xmlns="http://www.w3.org/2000/svg" xmlns:xlink="http://www.w3.org/1999/xlink" x="0" y="0" width="223" height="216" viewBox="0 0 223 216" enable-background="new 0 0 223 216" xml:space="preserve"><g><g><path fill="#525252" d="M65.345,133.451c0,1.844-0.576,3.254-1.729,4.23s-2.791,1.465-4.916,1.465h-1.559v6.094h-3.633v-17.133 h5.473c2.078,0,3.658,0.447,4.74,1.342S65.345,131.678,65.345,133.451z M57.142,136.17h1.195c1.117,0,1.953-0.221,2.508-0.662 s0.832-1.084,0.832-1.928c0-0.852-0.232-1.48-0.697-1.887s-1.193-0.609-2.186-0.609h-1.652V136.17z"/><path fill="#525252" d="M80.508,145.24l-1.242-4.078H73.02l-1.242,4.078h-3.914l6.047-17.203h4.441l6.07,17.203H80.508z M78.398,138.115c-1.148-3.695-1.795-5.785-1.939-6.27s-0.248-0.867-0.311-1.148c-0.258,1-0.996,3.473-2.215,7.418H78.398z"/><path fill="#525252" d="M91.65,138.666v6.574h-3.633v-17.133h4.992c2.328,0,4.051,0.424,5.168,1.271s1.676,2.135,1.676,3.861 c0,1.008-0.277,1.904-0.832,2.689s-1.34,1.4-2.355,1.846c2.578,3.852,4.258,6.34,5.039,7.465h-4.031l-4.09-6.574H91.65z M91.65,135.713h1.172c1.148,0,1.996-0.191,2.543-0.574s0.82-0.984,0.82-1.805c0-0.813-0.279-1.391-0.838-1.734 s-1.424-0.516-2.596-0.516H91.65V135.713z"/><path fill="#525252" d="M111.911,145.24h-3.633v-14.109h-4.652v-3.023h12.938v3.023h-4.652V145.24z"/><path fill="#525252" d="M120.64,145.24v-17.133h3.633v17.133H120.64z"/><path fill="#525252" d="M128.232,150.279c-0.82,0-1.535-0.086-2.145-0.258v-3.023c0.625,0.156,1.195,0.234,1.711,0.234 c0.797,0,1.367-0.248,1.711-0.744s0.516-1.271,0.516-2.326v-16.055h3.633v16.031c0,2-0.457,3.523-1.371,4.57 S130.021,150.279,128.232,150.279z"/><path fill="#525252" d="M149.277,145.24h-9.867v-17.133h9.867v2.977h-6.234v3.762h5.801v2.977h-5.801v4.418h6.234V145.24z"/><path fill="#525252" d="M169.491,145.24h-4.617l-7.453-12.961h-0.105c0.148,2.289,0.223,3.922,0.223,4.898v8.063h-3.246v-17.133 h4.582l7.441,12.832h0.082c-0.117-2.227-0.176-3.801-0.176-4.723v-8.109h3.27V145.24z"/></g></g><g><g><path fill="#4D4D4D" d="M47.156,170.66h-1.313l-2.305-7.648c-0.109-0.339-0.231-0.766-0.367-1.281s-0.206-0.825-0.211-0.93 c-0.114,0.688-0.297,1.44-0.547,2.258l-2.234,7.602h-1.313l-3.039-11.422h1.406l1.805,7.055c0.25,0.989,0.433,1.886,0.547,2.688 c0.141-0.953,0.349-1.886,0.625-2.797l2.047-6.945h1.406l2.148,7.008c0.25,0.808,0.461,1.719,0.633,2.734 c0.099-0.739,0.286-1.641,0.563-2.703l1.797-7.039h1.406L47.156,170.66z"/><path fill="#4D4D4D" d="M57.07,170.66l-0.258-1.219H56.75c-0.427,0.536-0.853,0.899-1.277,1.09s-0.954,0.285-1.59,0.285 c-0.849,0-1.515-0.219-1.996-0.656s-0.723-1.06-0.723-1.867c0-1.729,1.383-2.636,4.148-2.719l1.453-0.047v-0.531 c0-0.672-0.145-1.168-0.434-1.488s-0.751-0.48-1.387-0.48c-0.714,0-1.521,0.219-2.422,0.656l-0.398-0.992 c0.422-0.229,0.884-0.409,1.387-0.539s1.007-0.195,1.512-0.195c1.021,0,1.777,0.227,2.27,0.68s0.738,1.18,0.738,2.18v5.844H57.07z M54.141,169.746c0.808,0,1.441-0.222,1.902-0.664s0.691-1.063,0.691-1.859v-0.773l-1.297,0.055 c-1.031,0.036-1.774,0.196-2.23,0.48s-0.684,0.726-0.684,1.324c0,0.469,0.142,0.825,0.426,1.07S53.63,169.746,54.141,169.746z"/><path fill="#4D4D4D" d="M63.469,169.746c0.229,0,0.45-0.017,0.664-0.051s0.383-0.069,0.508-0.105v0.992 c-0.141,0.067-0.348,0.124-0.621,0.168s-0.52,0.066-0.738,0.066c-1.656,0-2.484-0.872-2.484-2.617v-5.094H59.57v-0.625 l1.227-0.539l0.547-1.828h0.75v1.984h2.484v1.008h-2.484v5.039c0,0.516,0.122,0.911,0.367,1.188S63.042,169.746,63.469,169.746z"/><path fill="#4D4D4D" d="M72.383,170.66l-3.25-8.563h1.391l1.844,5.078c0.417,1.188,0.661,1.958,0.734,2.313h0.063 c0.058-0.276,0.238-0.848,0.543-1.715s0.988-2.759,2.051-5.676h1.391l-3.25,8.563H72.383z"/><path fill="#4D4D4D" d="M78.414,159.777c0-0.297,0.073-0.515,0.219-0.652s0.328-0.207,0.547-0.207c0.208,0,0.388,0.07,0.539,0.211 s0.227,0.356,0.227,0.648s-0.075,0.509-0.227,0.652s-0.331,0.215-0.539,0.215c-0.219,0-0.401-0.071-0.547-0.215 S78.414,160.069,78.414,159.777z M79.82,170.66h-1.297v-8.563h1.297V170.66z"/><path fill="#4D4D4D" d="M88.43,170.66v-5.539c0-0.698-0.159-1.219-0.477-1.563s-0.815-0.516-1.492-0.516 c-0.896,0-1.552,0.242-1.969,0.727s-0.625,1.284-0.625,2.398v4.492H82.57v-8.563h1.055l0.211,1.172h0.063 c0.266-0.422,0.638-0.749,1.117-0.98s1.013-0.348,1.602-0.348c1.031,0,1.808,0.249,2.328,0.746s0.781,1.293,0.781,2.387v5.586 H88.43z"/><path fill="#4D4D4D" d="M98.219,169.512h-0.07c-0.599,0.87-1.495,1.305-2.688,1.305c-1.12,0-1.991-0.383-2.613-1.148 s-0.934-1.854-0.934-3.266s0.313-2.508,0.938-3.289s1.495-1.172,2.609-1.172c1.161,0,2.052,0.422,2.672,1.266h0.102l-0.055-0.617 l-0.031-0.602v-3.484h1.297v12.156h-1.055L98.219,169.512z M95.625,169.73c0.886,0,1.527-0.241,1.926-0.723 s0.598-1.259,0.598-2.332v-0.273c0-1.214-0.202-2.079-0.605-2.598s-1.048-0.777-1.934-0.777c-0.761,0-1.343,0.296-1.746,0.887 s-0.605,1.426-0.605,2.504c0,1.094,0.2,1.919,0.602,2.477S94.849,169.73,95.625,169.73z"/><path fill="#4D4D4D" d="M105.813,170.816c-1.266,0-2.265-0.386-2.996-1.156s-1.098-1.841-1.098-3.211 c0-1.38,0.34-2.477,1.02-3.289s1.593-1.219,2.738-1.219c1.073,0,1.922,0.353,2.547,1.059s0.938,1.637,0.938,2.793v0.82h-5.898 c0.026,1.005,0.28,1.769,0.762,2.289s1.16,0.781,2.035,0.781c0.922,0,1.833-0.192,2.734-0.578v1.156 c-0.458,0.198-0.892,0.34-1.301,0.426S106.391,170.816,105.813,170.816z M105.461,163.027c-0.688,0-1.235,0.224-1.645,0.672 s-0.649,1.067-0.723,1.859h4.477c0-0.817-0.183-1.444-0.547-1.879S106.138,163.027,105.461,163.027z"/><path fill="#4D4D4D" d="M117.031,170.66v-5.539c0-0.698-0.159-1.219-0.477-1.563s-0.815-0.516-1.492-0.516 c-0.896,0-1.552,0.242-1.969,0.727s-0.625,1.284-0.625,2.398v4.492h-1.297v-8.563h1.055l0.211,1.172h0.063 c0.266-0.422,0.638-0.749,1.117-0.98s1.013-0.348,1.602-0.348c1.031,0,1.808,0.249,2.328,0.746s0.781,1.293,0.781,2.387v5.586 H117.031z"/><path fill="#4D4D4D" d="M129.133,170.816c-0.558,0-1.066-0.103-1.527-0.309s-0.848-0.522-1.16-0.949h-0.094 c0.063,0.5,0.094,0.974,0.094,1.422v3.523h-1.297v-12.406h1.055l0.18,1.172h0.063c0.333-0.469,0.722-0.808,1.164-1.016 s0.95-0.313,1.523-0.313c1.136,0,2.012,0.388,2.629,1.164s0.926,1.864,0.926,3.266c0,1.406-0.313,2.499-0.941,3.277 S130.247,170.816,129.133,170.816z M128.945,163.043c-0.875,0-1.508,0.242-1.898,0.727s-0.591,1.255-0.602,2.313v0.289 c0,1.203,0.2,2.063,0.602,2.582s1.044,0.777,1.93,0.777c0.739,0,1.319-0.3,1.738-0.898s0.629-1.425,0.629-2.477 c0-1.067-0.21-1.887-0.629-2.457S129.706,163.043,128.945,163.043z"/><path fill="#4D4D4D" d="M142.344,166.371c0,1.396-0.352,2.485-1.055,3.27s-1.675,1.176-2.914,1.176 c-0.766,0-1.445-0.18-2.039-0.539s-1.052-0.875-1.375-1.547s-0.484-1.458-0.484-2.359c0-1.396,0.349-2.483,1.047-3.262 s1.667-1.168,2.906-1.168c1.198,0,2.149,0.398,2.855,1.195S142.344,165.012,142.344,166.371z M135.82,166.371 c0,1.094,0.219,1.927,0.656,2.5s1.081,0.859,1.93,0.859s1.493-0.285,1.934-0.855s0.66-1.405,0.66-2.504 c0-1.089-0.22-1.915-0.66-2.48s-1.09-0.848-1.949-0.848c-0.849,0-1.489,0.278-1.922,0.836S135.82,165.267,135.82,166.371z"/><path fill="#4D4D4D" d="M145.914,170.66h-1.297v-12.156h1.297V170.66z"/><path fill="#4D4D4D" d="M148.555,159.777c0-0.297,0.073-0.515,0.219-0.652s0.328-0.207,0.547-0.207 c0.208,0,0.388,0.07,0.539,0.211s0.227,0.356,0.227,0.648s-0.075,0.509-0.227,0.652s-0.331,0.215-0.539,0.215 c-0.219,0-0.401-0.071-0.547-0.215S148.555,160.069,148.555,159.777z M149.961,170.66h-1.297v-8.563h1.297V170.66z"/><path fill="#4D4D4D" d="M155.477,169.746c0.229,0,0.45-0.017,0.664-0.051s0.383-0.069,0.508-0.105v0.992 c-0.141,0.067-0.348,0.124-0.621,0.168s-0.52,0.066-0.738,0.066c-1.656,0-2.484-0.872-2.484-2.617v-5.094h-1.227v-0.625 l1.227-0.539l0.547-1.828h0.75v1.984h2.484v1.008h-2.484v5.039c0,0.516,0.122,0.911,0.367,1.188S155.05,169.746,155.477,169.746z"/><path fill="#4D4D4D" d="M158.25,159.777c0-0.297,0.073-0.515,0.219-0.652s0.328-0.207,0.547-0.207c0.208,0,0.388,0.07,0.539,0.211 s0.227,0.356,0.227,0.648s-0.075,0.509-0.227,0.652s-0.331,0.215-0.539,0.215c-0.219,0-0.401-0.071-0.547-0.215 S158.25,160.069,158.25,159.777z M159.656,170.66h-1.297v-8.563h1.297V170.66z"/><path fill="#4D4D4D" d="M166.023,170.816c-1.266,0-2.265-0.386-2.996-1.156s-1.098-1.841-1.098-3.211 c0-1.38,0.34-2.477,1.02-3.289s1.593-1.219,2.738-1.219c1.073,0,1.922,0.353,2.547,1.059s0.938,1.637,0.938,2.793v0.82h-5.898 c0.026,1.005,0.28,1.769,0.762,2.289s1.16,0.781,2.035,0.781c0.922,0,1.833-0.192,2.734-0.578v1.156 c-0.458,0.198-0.892,0.34-1.301,0.426S166.602,170.816,166.023,170.816z M165.672,163.027c-0.688,0-1.235,0.224-1.645,0.672 s-0.649,1.067-0.723,1.859h4.477c0-0.817-0.183-1.444-0.547-1.879S166.349,163.027,165.672,163.027z"/><path fill="#4D4D4D" d="M172.664,166.277c0.224-0.317,0.565-0.734,1.023-1.25l2.766-2.93h1.539l-3.469,3.648l3.711,4.914h-1.57 l-3.023-4.047l-0.977,0.844v3.203h-1.281v-12.156h1.281v6.445c0,0.286-0.021,0.729-0.063,1.328H172.664z"/><path fill="#4D4D4D" d="M183.398,170.816c-1.266,0-2.265-0.386-2.996-1.156s-1.098-1.841-1.098-3.211 c0-1.38,0.34-2.477,1.02-3.289s1.593-1.219,2.738-1.219c1.073,0,1.922,0.353,2.547,1.059s0.938,1.637,0.938,2.793v0.82h-5.898 c0.026,1.005,0.28,1.769,0.762,2.289s1.16,0.781,2.035,0.781c0.922,0,1.833-0.192,2.734-0.578v1.156 c-0.458,0.198-0.892,0.34-1.301,0.426S183.977,170.816,183.398,170.816z M183.047,163.027c-0.688,0-1.235,0.224-1.645,0.672 s-0.649,1.067-0.723,1.859h4.477c0-0.817-0.183-1.444-0.547-1.879S183.724,163.027,183.047,163.027z"/><path fill="#4D4D4D" d="M36.813,190.017c-0.558,0-1.066-0.103-1.527-0.309s-0.848-0.522-1.16-0.949h-0.094 c0.063,0.5,0.094,0.974,0.094,1.422v3.523h-1.297v-12.406h1.055l0.18,1.172h0.063c0.333-0.469,0.722-0.808,1.164-1.016 s0.95-0.313,1.523-0.313c1.136,0,2.012,0.388,2.629,1.164s0.926,1.864,0.926,3.266c0,1.406-0.313,2.499-0.941,3.277 S37.927,190.017,36.813,190.017z M36.625,182.243c-0.875,0-1.508,0.242-1.898,0.727s-0.591,1.255-0.602,2.313v0.289 c0,1.203,0.2,2.063,0.602,2.582s1.044,0.777,1.93,0.777c0.739,0,1.319-0.3,1.738-0.898s0.629-1.425,0.629-2.477 c0-1.067-0.21-1.887-0.629-2.457S37.386,182.243,36.625,182.243z"/><path fill="#4D4D4D" d="M47.898,189.86l-0.258-1.219h-0.063c-0.427,0.536-0.853,0.899-1.277,1.09s-0.954,0.285-1.59,0.285 c-0.849,0-1.515-0.219-1.996-0.656s-0.723-1.06-0.723-1.867c0-1.729,1.383-2.636,4.148-2.719l1.453-0.047v-0.531 c0-0.672-0.145-1.168-0.434-1.488s-0.751-0.48-1.387-0.48c-0.714,0-1.521,0.219-2.422,0.656l-0.398-0.992 c0.422-0.229,0.884-0.409,1.387-0.539s1.007-0.195,1.512-0.195c1.021,0,1.777,0.227,2.27,0.68s0.738,1.18,0.738,2.18v5.844H47.898 z M44.969,188.946c0.808,0,1.441-0.222,1.902-0.664s0.691-1.063,0.691-1.859v-0.773l-1.297,0.055 c-1.031,0.036-1.774,0.196-2.23,0.48s-0.684,0.726-0.684,1.324c0,0.469,0.142,0.825,0.426,1.07S44.458,188.946,44.969,188.946z"/><path fill="#4D4D4D" d="M55.438,181.142c0.38,0,0.722,0.031,1.023,0.094l-0.18,1.203c-0.354-0.078-0.667-0.117-0.938-0.117 c-0.692,0-1.285,0.281-1.777,0.844s-0.738,1.263-0.738,2.102v4.594h-1.297v-8.563h1.07l0.148,1.586h0.063 c0.317-0.558,0.7-0.987,1.148-1.289S54.901,181.142,55.438,181.142z"/><path fill="#4D4D4D" d="M60.828,188.946c0.229,0,0.45-0.017,0.664-0.051s0.383-0.069,0.508-0.105v0.992 c-0.141,0.067-0.348,0.124-0.621,0.168s-0.52,0.066-0.738,0.066c-1.656,0-2.484-0.872-2.484-2.617v-5.094H56.93v-0.625 l1.227-0.539l0.547-1.828h0.75v1.984h2.484v1.008h-2.484v5.039c0,0.516,0.122,0.911,0.367,1.188S60.401,188.946,60.828,188.946z"/><path fill="#4D4D4D" d="M63.602,178.978c0-0.297,0.073-0.515,0.219-0.652s0.328-0.207,0.547-0.207c0.208,0,0.388,0.07,0.539,0.211 s0.227,0.356,0.227,0.648s-0.075,0.509-0.227,0.652s-0.331,0.215-0.539,0.215c-0.219,0-0.401-0.071-0.547-0.215 S63.602,179.27,63.602,178.978z M65.008,189.86h-1.297v-8.563h1.297V189.86z"/><path fill="#4D4D4D" d="M66.719,193.704c-0.495,0-0.896-0.065-1.203-0.195v-1.055c0.359,0.104,0.714,0.156,1.063,0.156 c0.406,0,0.704-0.11,0.895-0.332s0.285-0.559,0.285-1.012v-9.969h1.297v9.875C69.055,192.86,68.276,193.704,66.719,193.704z M67.648,178.978c0-0.297,0.073-0.515,0.219-0.652s0.328-0.207,0.547-0.207c0.208,0,0.388,0.07,0.539,0.211 s0.227,0.356,0.227,0.648s-0.075,0.509-0.227,0.652s-0.331,0.215-0.539,0.215c-0.219,0-0.401-0.071-0.547-0.215 S67.648,179.27,67.648,178.978z"/><path fill="#4D4D4D" d="M75.422,190.017c-1.266,0-2.265-0.386-2.996-1.156s-1.098-1.841-1.098-3.211c0-1.38,0.34-2.477,1.02-3.289 s1.593-1.219,2.738-1.219c1.073,0,1.922,0.353,2.547,1.059s0.938,1.637,0.938,2.793v0.82h-5.898 c0.026,1.005,0.28,1.769,0.762,2.289s1.16,0.781,2.035,0.781c0.922,0,1.833-0.192,2.734-0.578v1.156 c-0.458,0.198-0.892,0.34-1.301,0.426S76,190.017,75.422,190.017z M75.07,182.228c-0.688,0-1.235,0.224-1.645,0.672 s-0.649,1.067-0.723,1.859h4.477c0-0.817-0.183-1.444-0.547-1.879S75.747,182.228,75.07,182.228z"/><path fill="#4D4D4D" d="M86.641,189.86v-5.539c0-0.698-0.159-1.219-0.477-1.563s-0.815-0.516-1.492-0.516 c-0.896,0-1.552,0.242-1.969,0.727s-0.625,1.284-0.625,2.398v4.492h-1.297v-8.563h1.055l0.211,1.172h0.063 c0.266-0.422,0.638-0.749,1.117-0.98s1.013-0.348,1.602-0.348c1.031,0,1.808,0.249,2.328,0.746s0.781,1.293,0.781,2.387v5.586 H86.641z"/><path fill="#4D4D4D" d="M96.633,189.86l-3.25-8.563h1.391l1.844,5.078c0.417,1.188,0.661,1.958,0.734,2.313h0.063 c0.058-0.276,0.238-0.848,0.543-1.715s0.988-2.759,2.051-5.676h1.391l-3.25,8.563H96.633z"/><path fill="#4D4D4D" d="M108.039,189.86l-0.258-1.219h-0.063c-0.427,0.536-0.853,0.899-1.277,1.09s-0.954,0.285-1.59,0.285 c-0.849,0-1.515-0.219-1.996-0.656s-0.723-1.06-0.723-1.867c0-1.729,1.383-2.636,4.148-2.719l1.453-0.047v-0.531 c0-0.672-0.145-1.168-0.434-1.488s-0.751-0.48-1.387-0.48c-0.714,0-1.521,0.219-2.422,0.656l-0.398-0.992 c0.422-0.229,0.884-0.409,1.387-0.539s1.007-0.195,1.512-0.195c1.021,0,1.777,0.227,2.27,0.68s0.738,1.18,0.738,2.18v5.844 H108.039z M105.109,188.946c0.808,0,1.441-0.222,1.902-0.664s0.691-1.063,0.691-1.859v-0.773l-1.297,0.055 c-1.031,0.036-1.774,0.196-2.23,0.48s-0.684,0.726-0.684,1.324c0,0.469,0.142,0.825,0.426,1.07S104.599,188.946,105.109,188.946z"/><path fill="#4D4D4D" d="M117.531,189.86v-5.539c0-0.698-0.159-1.219-0.477-1.563s-0.815-0.516-1.492-0.516 c-0.896,0-1.552,0.242-1.969,0.727s-0.625,1.284-0.625,2.398v4.492h-1.297v-8.563h1.055l0.211,1.172H113 c0.266-0.422,0.638-0.749,1.117-0.98s1.013-0.348,1.602-0.348c1.031,0,1.808,0.249,2.328,0.746s0.781,1.293,0.781,2.387v5.586 H117.531z"/><path fill="#4D4D4D" d="M131.508,189.86v-5.539c0-0.698-0.159-1.219-0.477-1.563s-0.815-0.516-1.492-0.516 c-0.901,0-1.559,0.245-1.973,0.734s-0.621,1.292-0.621,2.406v4.477h-1.297v-12.156h1.297v3.68c0,0.442-0.021,0.81-0.063,1.102 h0.078c0.255-0.411,0.618-0.735,1.09-0.973s1.009-0.355,1.613-0.355c1.047,0,1.832,0.249,2.355,0.746s0.785,1.288,0.785,2.371 v5.586H131.508z"/><path fill="#4D4D4D" d="M139.086,190.017c-1.266,0-2.265-0.386-2.996-1.156s-1.098-1.841-1.098-3.211 c0-1.38,0.34-2.477,1.02-3.289s1.593-1.219,2.738-1.219c1.073,0,1.922,0.353,2.547,1.059s0.938,1.637,0.938,2.793v0.82h-5.898 c0.026,1.005,0.28,1.769,0.762,2.289s1.16,0.781,2.035,0.781c0.922,0,1.833-0.192,2.734-0.578v1.156 c-0.458,0.198-0.892,0.34-1.301,0.426S139.664,190.017,139.086,190.017z M138.734,182.228c-0.688,0-1.235,0.224-1.645,0.672 s-0.649,1.067-0.723,1.859h4.477c0-0.817-0.183-1.444-0.547-1.879S139.411,182.228,138.734,182.228z"/><path fill="#4D4D4D" d="M147.211,188.946c0.229,0,0.45-0.017,0.664-0.051s0.383-0.069,0.508-0.105v0.992 c-0.141,0.067-0.348,0.124-0.621,0.168s-0.52,0.066-0.738,0.066c-1.656,0-2.484-0.872-2.484-2.617v-5.094h-1.227v-0.625 l1.227-0.539l0.547-1.828h0.75v1.984h2.484v1.008h-2.484v5.039c0,0.516,0.122,0.911,0.367,1.188S146.784,188.946,147.211,188.946z"/><path fill="#4D4D4D" d="M154.141,178.978c0-0.297,0.073-0.515,0.219-0.652s0.328-0.207,0.547-0.207 c0.208,0,0.388,0.07,0.539,0.211s0.227,0.356,0.227,0.648s-0.075,0.509-0.227,0.652s-0.331,0.215-0.539,0.215 c-0.219,0-0.401-0.071-0.547-0.215S154.141,179.27,154.141,178.978z M155.547,189.86h-1.297v-8.563h1.297V189.86z"/><path fill="#4D4D4D" d="M164.125,188.712h-0.07c-0.599,0.87-1.495,1.305-2.688,1.305c-1.12,0-1.991-0.383-2.613-1.148 s-0.934-1.854-0.934-3.266s0.313-2.508,0.938-3.289s1.495-1.172,2.609-1.172c1.161,0,2.052,0.422,2.672,1.266h0.102l-0.055-0.617 l-0.031-0.602v-3.484h1.297v12.156h-1.055L164.125,188.712z M161.531,188.931c0.886,0,1.527-0.241,1.926-0.723 s0.598-1.259,0.598-2.332v-0.273c0-1.214-0.202-2.079-0.605-2.598s-1.048-0.777-1.934-0.777c-0.761,0-1.343,0.296-1.746,0.887 s-0.605,1.426-0.605,2.504c0,1.094,0.2,1.919,0.602,2.477S160.755,188.931,161.531,188.931z"/><path fill="#4D4D4D" d="M171.719,190.017c-1.266,0-2.265-0.386-2.996-1.156s-1.098-1.841-1.098-3.211 c0-1.38,0.34-2.477,1.02-3.289s1.593-1.219,2.738-1.219c1.073,0,1.922,0.353,2.547,1.059s0.938,1.637,0.938,2.793v0.82h-5.898 c0.026,1.005,0.28,1.769,0.762,2.289s1.16,0.781,2.035,0.781c0.922,0,1.833-0.192,2.734-0.578v1.156 c-0.458,0.198-0.892,0.34-1.301,0.426S172.297,190.017,171.719,190.017z M171.367,182.228c-0.688,0-1.235,0.224-1.645,0.672 s-0.649,1.067-0.723,1.859h4.477c0-0.817-0.183-1.444-0.547-1.879S172.044,182.228,171.367,182.228z"/><path fill="#4D4D4D" d="M180.695,190.017c-1.266,0-2.265-0.386-2.996-1.156s-1.098-1.841-1.098-3.211 c0-1.38,0.34-2.477,1.02-3.289s1.593-1.219,2.738-1.219c1.073,0,1.922,0.353,2.547,1.059s0.938,1.637,0.938,2.793v0.82h-5.898 c0.026,1.005,0.28,1.769,0.762,2.289s1.16,0.781,2.035,0.781c0.922,0,1.833-0.192,2.734-0.578v1.156 c-0.458,0.198-0.892,0.34-1.301,0.426S181.273,190.017,180.695,190.017z M180.344,182.228c-0.688,0-1.235,0.224-1.645,0.672 s-0.649,1.067-0.723,1.859h4.477c0-0.817-0.183-1.444-0.547-1.879S181.021,182.228,180.344,182.228z"/><path fill="#4D4D4D" d="M186.938,186.712v-0.422c0-0.609,0.094-1.11,0.281-1.504s0.536-0.809,1.047-1.246 c0.708-0.599,1.155-1.05,1.34-1.352s0.277-0.667,0.277-1.094c0-0.531-0.171-0.941-0.512-1.23s-0.832-0.434-1.473-0.434 c-0.411,0-0.813,0.048-1.203,0.145s-0.839,0.272-1.344,0.527l-0.461-1.055c0.984-0.516,2.013-0.773,3.086-0.773 c0.995,0,1.769,0.245,2.32,0.734s0.828,1.18,0.828,2.07c0,0.38-0.051,0.715-0.152,1.004s-0.251,0.563-0.449,0.82 s-0.625,0.673-1.281,1.246c-0.526,0.448-0.874,0.82-1.043,1.117s-0.254,0.692-0.254,1.188v0.258H186.938z M186.555,189.032 c0-0.708,0.313-1.063,0.938-1.063c0.302,0,0.535,0.091,0.699,0.273s0.246,0.445,0.246,0.789c0,0.333-0.083,0.593-0.25,0.777 s-0.398,0.277-0.695,0.277c-0.271,0-0.495-0.082-0.672-0.246S186.555,189.407,186.555,189.032z"/></g></g><g><path fill="#863D3D" d="M124.895,47.444c-1.486-1.486-3.276-2.229-5.369-2.229H97.578c-2.092,0-3.881,0.743-5.367,2.229 c-1.486,1.486-2.229,3.276-2.229,5.369v21.947c0,2.093,0.743,3.883,2.229,5.369c1.486,1.486,3.276,2.229,5.367,2.229h21.948 c2.093,0,3.881-0.743,5.369-2.229c1.486-1.486,2.229-3.276,2.229-5.369V52.813C127.122,50.72,126.379,48.93,124.895,47.444 L124.895,47.444z M123.747,74.759c0,1.16-0.414,2.155-1.24,2.982c-0.827,0.827-1.821,1.24-2.982,1.24H97.578 c-1.161,0-2.154-0.413-2.98-1.24c-0.827-0.827-1.239-1.821-1.239-2.982V52.813c0-1.162,0.412-2.155,1.239-2.982 c0.827-0.827,1.82-1.239,2.98-1.239h21.948c1.16,0,2.155,0.412,2.982,1.239c0.825,0.827,1.24,1.82,1.24,2.982V74.759z M123.747,74.759"/></g><g><path fill="#863D3D" d="M70.994,47.444c-1.486-1.486-3.276-2.229-5.369-2.229H43.677c-2.092,0-3.881,0.743-5.367,2.229 c-1.486,1.486-2.229,3.276-2.229,5.369v21.947c0,2.093,0.743,3.883,2.229,5.369c1.486,1.486,3.276,2.229,5.367,2.229h21.948 c2.093,0,3.881-0.743,5.369-2.229c1.486-1.486,2.229-3.276,2.229-5.369V52.813C73.222,50.72,72.479,48.93,70.994,47.444 L70.994,47.444z M69.846,74.759c0,1.16-0.414,2.155-1.24,2.982c-0.827,0.827-1.821,1.24-2.982,1.24H43.677 c-1.161,0-2.154-0.413-2.98-1.24c-0.827-0.827-1.239-1.821-1.239-2.982V52.813c0-1.162,0.412-2.155,1.239-2.982 c0.827-0.827,1.82-1.239,2.98-1.239h21.948c1.16,0,2.155,0.412,2.982,1.239c0.825,0.827,1.24,1.82,1.24,2.982V74.759z M69.846,74.759"/></g><g><path fill="#547F4B" d="M181.664,65.606c-0.106-0.052-0.212-0.079-0.318-0.079c-0.228,0-0.43,0.087-0.605,0.264l-1.689,1.687 c-0.158,0.16-0.237,0.353-0.237,0.58v6.7c0,1.162-0.413,2.155-1.24,2.982c-0.827,0.827-1.821,1.24-2.982,1.24h-21.948 c-1.161,0-2.154-0.413-2.98-1.24c-0.827-0.826-1.239-1.82-1.239-2.982V52.811c0-1.16,0.412-2.155,1.239-2.98 c0.827-0.827,1.82-1.241,2.98-1.241h21.948c0.387,0,0.783,0.054,1.187,0.16c0.106,0.035,0.185,0.052,0.237,0.052 c0.229,0,0.431-0.088,0.607-0.264l1.291-1.291c0.212-0.212,0.291-0.467,0.237-0.765c-0.052-0.281-0.21-0.484-0.474-0.607 c-0.95-0.44-1.978-0.659-3.086-0.659h-21.948c-2.092,0-3.881,0.743-5.367,2.229c-1.486,1.486-2.229,3.276-2.229,5.369v21.947 c0,2.093,0.743,3.883,2.229,5.369c1.486,1.486,3.276,2.229,5.367,2.229h21.948c2.093,0,3.883-0.743,5.369-2.229 c1.486-1.486,2.229-3.276,2.229-5.369v-8.388C182.192,66.001,182.015,65.747,181.664,65.606L181.664,65.606z M181.664,65.606"/><path fill="#547F4B" d="M188.285,50.464l-2.901-2.901c-0.422-0.422-0.925-0.634-1.505-0.634c-0.58,0-1.081,0.212-1.503,0.634 L165.308,64.63l-6.937-6.939c-0.422-0.422-0.923-0.632-1.504-0.632c-0.58,0-1.081,0.21-1.504,0.632l-2.901,2.903 c-0.422,0.422-0.634,0.923-0.634,1.504c0,0.58,0.212,1.081,0.634,1.504l11.342,11.343c0.424,0.422,0.925,0.633,1.505,0.633 c0.58,0,1.081-0.21,1.503-0.633l21.473-21.472c0.422-0.422,0.634-0.924,0.634-1.504C188.92,51.388,188.707,50.886,188.285,50.464 L188.285,50.464z M188.285,50.464"/></g></svg>