<svg version="1.1" id="Layer_1" xmlns="http://www.w3.org/2000/svg" xmlns:xlink="http://www.w3.org/1999/xlink" x="0" y="0" width="223" height="216" viewBox="0 0 223 216" enable-background="new 0 0 223 216" xml:space="preserve"><g><g><path fill="#525252" d="M60.064,140.482c0,1.547-0.557,2.766-1.67,3.656s-2.662,1.336-4.646,1.336 c-1.828,0-3.445-0.344-4.852-1.031v-3.375c1.156,0.516,2.135,0.879,2.936,1.09s1.533,0.316,2.197,0.316 c0.797,0,1.408-0.152,1.834-0.457s0.639-0.758,0.639-1.359c0-0.336-0.094-0.635-0.281-0.896s-0.463-0.514-0.826-0.756 s-1.104-0.629-2.221-1.16c-1.047-0.492-1.832-0.965-2.355-1.418s-0.941-0.98-1.254-1.582s-0.469-1.305-0.469-2.109 c0-1.516,0.514-2.707,1.541-3.574s2.447-1.301,4.26-1.301c0.891,0,1.74,0.105,2.549,0.316s1.654,0.508,2.537,0.891l-1.172,2.824 c-0.914-0.375-1.67-0.637-2.268-0.785s-1.186-0.223-1.764-0.223c-0.688,0-1.215,0.16-1.582,0.48s-0.551,0.738-0.551,1.254 c0,0.32,0.074,0.6,0.223,0.838s0.385,0.469,0.709,0.691s1.092,0.623,2.303,1.201c1.602,0.766,2.699,1.533,3.293,2.303 S60.064,139.365,60.064,140.482z"/><path fill="#525252" d="M71.22,145.24h-3.633v-14.109h-4.652v-3.023h12.938v3.023H71.22V145.24z"/><path fill="#525252" d="M89.815,145.24h-9.867v-17.133h9.867v2.977h-6.234v3.762h5.801v2.977h-5.801v4.418h6.234V145.24z"/><path fill="#525252" d="M102.084,145.24l-4.125-13.441h-0.105c0.148,2.734,0.223,4.559,0.223,5.473v7.969H94.83v-17.133h4.945 l4.055,13.102h0.07l4.301-13.102h4.945v17.133h-3.387v-8.109c0-0.383,0.006-0.824,0.018-1.324s0.064-1.828,0.158-3.984h-0.105 l-4.418,13.418H102.084z"/><path fill="#525252" d="M126.152,145.24l-4.125-13.441h-0.105c0.148,2.734,0.223,4.559,0.223,5.473v7.969h-3.246v-17.133h4.945 l4.055,13.102h0.07l4.301-13.102h4.945v17.133h-3.387v-8.109c0-0.383,0.006-0.824,0.018-1.324s0.064-1.828,0.158-3.984h-0.105 l-4.418,13.418H126.152z"/><path fill="#525252" d="M152.835,145.24h-9.867v-17.133h9.867v2.977h-6.234v3.762h5.801v2.977h-5.801v4.418h6.234V145.24z"/><path fill="#525252" d="M173.048,145.24h-4.617l-7.453-12.961h-0.105c0.148,2.289,0.223,3.922,0.223,4.898v8.063h-3.246v-17.133 h4.582l7.441,12.832h0.082c-0.117-2.227-0.176-3.801-0.176-4.723v-8.109h3.27V145.24z"/></g></g><g><g><path fill="#4D4D4D" d="M16.223,159.238h3.227c1.516,0,2.612,0.227,3.289,0.68s1.016,1.169,1.016,2.148 c0,0.677-0.188,1.235-0.566,1.676s-0.929,0.726-1.652,0.855v0.078c1.734,0.297,2.602,1.208,2.602,2.734 c0,1.021-0.345,1.817-1.035,2.391s-1.655,0.859-2.895,0.859h-3.984V159.238z M17.551,164.129h2.188 c0.938,0,1.612-0.147,2.023-0.441s0.617-0.79,0.617-1.488c0-0.641-0.229-1.103-0.688-1.387s-1.188-0.426-2.188-0.426h-1.953 V164.129z M17.551,165.254v4.273h2.383c0.922,0,1.616-0.179,2.082-0.535s0.699-0.915,0.699-1.676c0-0.708-0.238-1.229-0.715-1.563 s-1.202-0.5-2.176-0.5H17.551z"/><path fill="#4D4D4D" d="M30.012,170.816c-1.266,0-2.265-0.386-2.996-1.156s-1.098-1.841-1.098-3.211c0-1.38,0.34-2.477,1.02-3.289 s1.593-1.219,2.738-1.219c1.073,0,1.922,0.353,2.547,1.059s0.938,1.637,0.938,2.793v0.82h-5.898 c0.026,1.005,0.28,1.769,0.762,2.289s1.16,0.781,2.035,0.781c0.922,0,1.833-0.192,2.734-0.578v1.156 c-0.458,0.198-0.892,0.34-1.301,0.426S30.59,170.816,30.012,170.816z M29.66,163.027c-0.688,0-1.235,0.224-1.645,0.672 s-0.649,1.067-0.723,1.859h4.477c0-0.817-0.183-1.444-0.547-1.879S30.337,163.027,29.66,163.027z"/><path fill="#4D4D4D" d="M41.23,170.66v-5.539c0-0.698-0.159-1.219-0.477-1.563s-0.815-0.516-1.492-0.516 c-0.896,0-1.552,0.242-1.969,0.727s-0.625,1.284-0.625,2.398v4.492h-1.297v-8.563h1.055l0.211,1.172h0.063 c0.266-0.422,0.638-0.749,1.117-0.98s1.013-0.348,1.602-0.348c1.031,0,1.808,0.249,2.328,0.746s0.781,1.293,0.781,2.387v5.586 H41.23z"/><path fill="#4D4D4D" d="M48.309,174.504c-0.495,0-0.896-0.065-1.203-0.195v-1.055c0.359,0.104,0.714,0.156,1.063,0.156 c0.406,0,0.704-0.11,0.895-0.332s0.285-0.559,0.285-1.012v-9.969h1.297v9.875C50.645,173.66,49.866,174.504,48.309,174.504z M49.238,159.777c0-0.297,0.073-0.515,0.219-0.652s0.328-0.207,0.547-0.207c0.208,0,0.388,0.07,0.539,0.211 s0.227,0.356,0.227,0.648s-0.075,0.509-0.227,0.652s-0.331,0.215-0.539,0.215c-0.219,0-0.401-0.071-0.547-0.215 S49.238,160.069,49.238,159.777z"/><path fill="#4D4D4D" d="M53.285,159.777c0-0.297,0.073-0.515,0.219-0.652s0.328-0.207,0.547-0.207c0.208,0,0.388,0.07,0.539,0.211 s0.227,0.356,0.227,0.648s-0.075,0.509-0.227,0.652s-0.331,0.215-0.539,0.215c-0.219,0-0.401-0.071-0.547-0.215 S53.285,160.069,53.285,159.777z M54.691,170.66h-1.297v-8.563h1.297V170.66z"/><path fill="#4D4D4D" d="M56.402,174.504c-0.495,0-0.896-0.065-1.203-0.195v-1.055c0.359,0.104,0.714,0.156,1.063,0.156 c0.406,0,0.704-0.11,0.895-0.332s0.285-0.559,0.285-1.012v-9.969h1.297v9.875C58.738,173.66,57.96,174.504,56.402,174.504z M57.332,159.777c0-0.297,0.073-0.515,0.219-0.652s0.328-0.207,0.547-0.207c0.208,0,0.388,0.07,0.539,0.211 s0.227,0.356,0.227,0.648s-0.075,0.509-0.227,0.652s-0.331,0.215-0.539,0.215c-0.219,0-0.401-0.071-0.547-0.215 S57.332,160.069,57.332,159.777z"/><path fill="#4D4D4D" d="M67.52,170.66l-3.25-8.563h1.391l1.844,5.078c0.417,1.188,0.661,1.958,0.734,2.313h0.063 c0.058-0.276,0.238-0.848,0.543-1.715s0.988-2.759,2.051-5.676h1.391l-3.25,8.563H67.52z"/><path fill="#4D4D4D" d="M81.051,166.371c0,1.396-0.352,2.485-1.055,3.27s-1.675,1.176-2.914,1.176 c-0.766,0-1.445-0.18-2.039-0.539s-1.052-0.875-1.375-1.547s-0.484-1.458-0.484-2.359c0-1.396,0.349-2.483,1.047-3.262 s1.667-1.168,2.906-1.168c1.198,0,2.149,0.398,2.855,1.195S81.051,165.012,81.051,166.371z M74.527,166.371 c0,1.094,0.219,1.927,0.656,2.5s1.081,0.859,1.93,0.859s1.493-0.285,1.934-0.855s0.66-1.405,0.66-2.504 c0-1.089-0.22-1.915-0.66-2.48s-1.09-0.848-1.949-0.848c-0.849,0-1.489,0.278-1.922,0.836S74.527,165.267,74.527,166.371z"/><path fill="#4D4D4D" d="M90.715,166.371c0,1.396-0.352,2.485-1.055,3.27s-1.675,1.176-2.914,1.176 c-0.766,0-1.445-0.18-2.039-0.539s-1.052-0.875-1.375-1.547s-0.484-1.458-0.484-2.359c0-1.396,0.349-2.483,1.047-3.262 s1.667-1.168,2.906-1.168c1.198,0,2.149,0.398,2.855,1.195S90.715,165.012,90.715,166.371z M84.191,166.371 c0,1.094,0.219,1.927,0.656,2.5s1.081,0.859,1.93,0.859s1.493-0.285,1.934-0.855s0.66-1.405,0.66-2.504 c0-1.089-0.22-1.915-0.66-2.48s-1.09-0.848-1.949-0.848c-0.849,0-1.489,0.278-1.922,0.836S84.191,165.267,84.191,166.371z"/><path fill="#4D4D4D" d="M96.895,161.941c0.38,0,0.722,0.031,1.023,0.094l-0.18,1.203c-0.354-0.078-0.667-0.117-0.938-0.117 c-0.692,0-1.285,0.281-1.777,0.844s-0.738,1.263-0.738,2.102v4.594h-1.297v-8.563h1.07l0.148,1.586h0.063 c0.317-0.558,0.7-0.987,1.148-1.289S96.358,161.941,96.895,161.941z"/><path fill="#4D4D4D" d="M100.879,168.801l0.117,0.18c-0.136,0.521-0.331,1.126-0.586,1.816s-0.521,1.332-0.797,1.926h-0.977 c0.141-0.542,0.296-1.211,0.465-2.008s0.288-1.435,0.355-1.914H100.879z"/><path fill="#4D4D4D" d="M110.363,169.746c0.229,0,0.45-0.017,0.664-0.051s0.383-0.069,0.508-0.105v0.992 c-0.141,0.067-0.348,0.124-0.621,0.168s-0.52,0.066-0.738,0.066c-1.656,0-2.484-0.872-2.484-2.617v-5.094h-1.227v-0.625 l1.227-0.539l0.547-1.828h0.75v1.984h2.484v1.008h-2.484v5.039c0,0.516,0.122,0.911,0.367,1.188S109.937,169.746,110.363,169.746z"/><path fill="#4D4D4D" d="M116.863,170.816c-1.266,0-2.265-0.386-2.996-1.156s-1.098-1.841-1.098-3.211 c0-1.38,0.34-2.477,1.02-3.289s1.593-1.219,2.738-1.219c1.073,0,1.922,0.353,2.547,1.059s0.938,1.637,0.938,2.793v0.82h-5.898 c0.026,1.005,0.28,1.769,0.762,2.289s1.16,0.781,2.035,0.781c0.922,0,1.833-0.192,2.734-0.578v1.156 c-0.458,0.198-0.892,0.34-1.301,0.426S117.441,170.816,116.863,170.816z M116.512,163.027c-0.688,0-1.235,0.224-1.645,0.672 s-0.649,1.067-0.723,1.859h4.477c0-0.817-0.183-1.444-0.547-1.879S117.188,163.027,116.512,163.027z"/><path fill="#4D4D4D" d="M129.23,162.098v0.82l-1.586,0.188c0.146,0.183,0.276,0.421,0.391,0.715s0.172,0.626,0.172,0.996 c0,0.839-0.286,1.508-0.859,2.008s-1.359,0.75-2.359,0.75c-0.255,0-0.495-0.021-0.719-0.063c-0.552,0.292-0.828,0.659-0.828,1.102 c0,0.234,0.097,0.407,0.289,0.52s0.523,0.168,0.992,0.168h1.516c0.927,0,1.64,0.195,2.137,0.586s0.746,0.958,0.746,1.703 c0,0.948-0.38,1.671-1.141,2.168s-1.87,0.746-3.328,0.746c-1.12,0-1.983-0.208-2.59-0.625s-0.91-1.005-0.91-1.766 c0-0.521,0.167-0.972,0.5-1.352s0.802-0.638,1.406-0.773c-0.219-0.099-0.402-0.253-0.551-0.461s-0.223-0.45-0.223-0.727 c0-0.313,0.083-0.586,0.25-0.82s0.43-0.461,0.789-0.68c-0.442-0.183-0.804-0.492-1.082-0.93s-0.418-0.938-0.418-1.5 c0-0.938,0.281-1.66,0.844-2.168s1.359-0.762,2.391-0.762c0.448,0,0.852,0.052,1.211,0.156H129.23z M122.402,172.098 c0,0.464,0.195,0.815,0.586,1.055s0.95,0.359,1.68,0.359c1.089,0,1.895-0.163,2.418-0.488s0.785-0.767,0.785-1.324 c0-0.464-0.144-0.785-0.43-0.965s-0.825-0.27-1.617-0.27h-1.555c-0.589,0-1.047,0.141-1.375,0.422 S122.402,171.571,122.402,172.098z M123.105,164.84c0,0.599,0.169,1.052,0.508,1.359s0.81,0.461,1.414,0.461 c1.266,0,1.898-0.614,1.898-1.844c0-1.286-0.641-1.93-1.922-1.93c-0.609,0-1.078,0.164-1.406,0.492 S123.105,164.194,123.105,164.84z"/><path fill="#4D4D4D" d="M134.605,170.816c-1.266,0-2.265-0.386-2.996-1.156s-1.098-1.841-1.098-3.211 c0-1.38,0.34-2.477,1.02-3.289s1.593-1.219,2.738-1.219c1.073,0,1.922,0.353,2.547,1.059s0.938,1.637,0.938,2.793v0.82h-5.898 c0.026,1.005,0.28,1.769,0.762,2.289s1.16,0.781,2.035,0.781c0.922,0,1.833-0.192,2.734-0.578v1.156 c-0.458,0.198-0.892,0.34-1.301,0.426S135.184,170.816,134.605,170.816z M134.254,163.027c-0.688,0-1.235,0.224-1.645,0.672 s-0.649,1.067-0.723,1.859h4.477c0-0.817-0.183-1.444-0.547-1.879S134.931,163.027,134.254,163.027z"/><path fill="#4D4D4D" d="M145.824,170.66v-5.539c0-0.698-0.159-1.219-0.477-1.563s-0.815-0.516-1.492-0.516 c-0.896,0-1.552,0.242-1.969,0.727s-0.625,1.284-0.625,2.398v4.492h-1.297v-8.563h1.055l0.211,1.172h0.063 c0.266-0.422,0.638-0.749,1.117-0.98s1.013-0.348,1.602-0.348c1.031,0,1.808,0.249,2.328,0.746s0.781,1.293,0.781,2.387v5.586 H145.824z"/><path fill="#4D4D4D" d="M161.332,166.371c0,1.396-0.352,2.485-1.055,3.27s-1.675,1.176-2.914,1.176 c-0.766,0-1.445-0.18-2.039-0.539s-1.052-0.875-1.375-1.547s-0.484-1.458-0.484-2.359c0-1.396,0.349-2.483,1.047-3.262 s1.667-1.168,2.906-1.168c1.198,0,2.149,0.398,2.855,1.195S161.332,165.012,161.332,166.371z M154.809,166.371 c0,1.094,0.219,1.927,0.656,2.5s1.081,0.859,1.93,0.859s1.493-0.285,1.934-0.855s0.66-1.405,0.66-2.504 c0-1.089-0.22-1.915-0.66-2.48s-1.09-0.848-1.949-0.848c-0.849,0-1.489,0.278-1.922,0.836S154.809,165.267,154.809,166.371z"/><path fill="#4D4D4D" d="M167.465,163.105h-2.18v7.555h-1.297v-7.555h-1.531v-0.586l1.531-0.469v-0.477 c0-2.104,0.919-3.156,2.758-3.156c0.453,0,0.984,0.091,1.594,0.273l-0.336,1.039c-0.5-0.161-0.927-0.242-1.281-0.242 c-0.489,0-0.852,0.163-1.086,0.488s-0.352,0.848-0.352,1.566v0.555h2.18V163.105z"/><path fill="#4D4D4D" d="M180.191,162.098v0.82l-1.586,0.188c0.146,0.183,0.276,0.421,0.391,0.715s0.172,0.626,0.172,0.996 c0,0.839-0.286,1.508-0.859,2.008s-1.359,0.75-2.359,0.75c-0.255,0-0.495-0.021-0.719-0.063c-0.552,0.292-0.828,0.659-0.828,1.102 c0,0.234,0.097,0.407,0.289,0.52s0.523,0.168,0.992,0.168h1.516c0.927,0,1.64,0.195,2.137,0.586s0.746,0.958,0.746,1.703 c0,0.948-0.38,1.671-1.141,2.168s-1.87,0.746-3.328,0.746c-1.12,0-1.983-0.208-2.59-0.625s-0.91-1.005-0.91-1.766 c0-0.521,0.167-0.972,0.5-1.352s0.802-0.638,1.406-0.773c-0.219-0.099-0.402-0.253-0.551-0.461s-0.223-0.45-0.223-0.727 c0-0.313,0.083-0.586,0.25-0.82s0.43-0.461,0.789-0.68c-0.442-0.183-0.804-0.492-1.082-0.93s-0.418-0.938-0.418-1.5 c0-0.938,0.281-1.66,0.844-2.168s1.359-0.762,2.391-0.762c0.448,0,0.852,0.052,1.211,0.156H180.191z M173.363,172.098 c0,0.464,0.195,0.815,0.586,1.055s0.95,0.359,1.68,0.359c1.089,0,1.895-0.163,2.418-0.488s0.785-0.767,0.785-1.324 c0-0.464-0.144-0.785-0.43-0.965s-0.825-0.27-1.617-0.27h-1.555c-0.589,0-1.047,0.141-1.375,0.422 S173.363,171.571,173.363,172.098z M174.066,164.84c0,0.599,0.169,1.052,0.508,1.359s0.81,0.461,1.414,0.461 c1.266,0,1.898-0.614,1.898-1.844c0-1.286-0.641-1.93-1.922-1.93c-0.609,0-1.078,0.164-1.406,0.492 S174.066,164.194,174.066,164.84z"/><path fill="#4D4D4D" d="M185.566,170.816c-1.266,0-2.265-0.386-2.996-1.156s-1.098-1.841-1.098-3.211 c0-1.38,0.34-2.477,1.02-3.289s1.593-1.219,2.738-1.219c1.073,0,1.922,0.353,2.547,1.059s0.938,1.637,0.938,2.793v0.82h-5.898 c0.026,1.005,0.28,1.769,0.762,2.289s1.16,0.781,2.035,0.781c0.922,0,1.833-0.192,2.734-0.578v1.156 c-0.458,0.198-0.892,0.34-1.301,0.426S186.145,170.816,185.566,170.816z M185.215,163.027c-0.688,0-1.235,0.224-1.645,0.672 s-0.649,1.067-0.723,1.859h4.477c0-0.817-0.183-1.444-0.547-1.879S185.892,163.027,185.215,163.027z"/><path fill="#4D4D4D" d="M194.543,170.816c-1.266,0-2.265-0.386-2.996-1.156s-1.098-1.841-1.098-3.211 c0-1.38,0.34-2.477,1.02-3.289s1.593-1.219,2.738-1.219c1.073,0,1.922,0.353,2.547,1.059s0.938,1.637,0.938,2.793v0.82h-5.898 c0.026,1.005,0.28,1.769,0.762,2.289s1.16,0.781,2.035,0.781c0.922,0,1.833-0.192,2.734-0.578v1.156 c-0.458,0.198-0.892,0.34-1.301,0.426S195.121,170.816,194.543,170.816z M194.191,163.027c-0.688,0-1.235,0.224-1.645,0.672 s-0.649,1.067-0.723,1.859h4.477c0-0.817-0.183-1.444-0.547-1.879S194.868,163.027,194.191,163.027z"/><path fill="#4D4D4D" d="M205.762,170.66v-5.539c0-0.698-0.159-1.219-0.477-1.563s-0.815-0.516-1.492-0.516 c-0.896,0-1.552,0.242-1.969,0.727s-0.625,1.284-0.625,2.398v4.492h-1.297v-8.563h1.055l0.211,1.172h0.063 c0.266-0.422,0.638-0.749,1.117-0.98s1.013-0.348,1.602-0.348c1.031,0,1.808,0.249,2.328,0.746s0.781,1.293,0.781,2.387v5.586 H205.762z"/><path fill="#4D4D4D" d="M70.156,189.86l-3.25-8.563h1.391l1.844,5.078c0.417,1.188,0.661,1.958,0.734,2.313h0.063 c0.058-0.276,0.238-0.848,0.543-1.715s0.988-2.759,2.051-5.676h1.391l-3.25,8.563H70.156z"/><path fill="#4D4D4D" d="M81.563,189.86l-0.258-1.219h-0.063c-0.427,0.536-0.853,0.899-1.277,1.09s-0.954,0.285-1.59,0.285 c-0.849,0-1.515-0.219-1.996-0.656s-0.723-1.06-0.723-1.867c0-1.729,1.383-2.636,4.148-2.719l1.453-0.047v-0.531 c0-0.672-0.145-1.168-0.434-1.488s-0.751-0.48-1.387-0.48c-0.714,0-1.521,0.219-2.422,0.656l-0.398-0.992 c0.422-0.229,0.884-0.409,1.387-0.539s1.007-0.195,1.512-0.195c1.021,0,1.777,0.227,2.27,0.68s0.738,1.18,0.738,2.18v5.844H81.563 z M78.633,188.946c0.808,0,1.441-0.222,1.902-0.664s0.691-1.063,0.691-1.859v-0.773l-1.297,0.055 c-1.031,0.036-1.774,0.196-2.23,0.48s-0.684,0.726-0.684,1.324c0,0.469,0.142,0.825,0.426,1.07S78.122,188.946,78.633,188.946z"/><path fill="#4D4D4D" d="M91.055,189.86v-5.539c0-0.698-0.159-1.219-0.477-1.563s-0.815-0.516-1.492-0.516 c-0.896,0-1.552,0.242-1.969,0.727s-0.625,1.284-0.625,2.398v4.492h-1.297v-8.563h1.055l0.211,1.172h0.063 c0.266-0.422,0.638-0.749,1.117-0.98s1.013-0.348,1.602-0.348c1.031,0,1.808,0.249,2.328,0.746s0.781,1.293,0.781,2.387v5.586 H91.055z"/><path fill="#4D4D4D" d="M103.156,181.157c1.125,0,1.999,0.384,2.621,1.152s0.934,1.855,0.934,3.262s-0.313,2.499-0.941,3.277 s-1.499,1.168-2.613,1.168c-0.558,0-1.066-0.103-1.527-0.309s-0.848-0.522-1.16-0.949h-0.094l-0.273,1.102h-0.93v-12.156h1.297 v2.953c0,0.661-0.021,1.255-0.063,1.781h0.063C101.073,181.584,101.969,181.157,103.156,181.157z M102.969,182.243 c-0.886,0-1.523,0.254-1.914,0.762s-0.586,1.363-0.586,2.566s0.2,2.063,0.602,2.582s1.044,0.777,1.93,0.777 c0.797,0,1.391-0.29,1.781-0.871s0.586-1.415,0.586-2.504c0-1.114-0.195-1.945-0.586-2.492S103.786,182.243,102.969,182.243z"/><path fill="#4D4D4D" d="M112.594,190.017c-1.266,0-2.265-0.386-2.996-1.156s-1.098-1.841-1.098-3.211 c0-1.38,0.34-2.477,1.02-3.289s1.593-1.219,2.738-1.219c1.073,0,1.922,0.353,2.547,1.059s0.938,1.637,0.938,2.793v0.82h-5.898 c0.026,1.005,0.28,1.769,0.762,2.289s1.16,0.781,2.035,0.781c0.922,0,1.833-0.192,2.734-0.578v1.156 c-0.458,0.198-0.892,0.34-1.301,0.426S113.172,190.017,112.594,190.017z M112.242,182.228c-0.688,0-1.235,0.224-1.645,0.672 s-0.649,1.067-0.723,1.859h4.477c0-0.817-0.183-1.444-0.547-1.879S112.919,182.228,112.242,182.228z"/><path fill="#4D4D4D" d="M117.844,178.978c0-0.297,0.073-0.515,0.219-0.652s0.328-0.207,0.547-0.207 c0.208,0,0.388,0.07,0.539,0.211s0.227,0.356,0.227,0.648s-0.075,0.509-0.227,0.652s-0.331,0.215-0.539,0.215 c-0.219,0-0.401-0.071-0.547-0.215S117.844,179.27,117.844,178.978z M119.25,189.86h-1.297v-8.563h1.297V189.86z"/><path fill="#4D4D4D" d="M127.828,188.712h-0.07c-0.599,0.87-1.495,1.305-2.688,1.305c-1.12,0-1.991-0.383-2.613-1.148 s-0.934-1.854-0.934-3.266s0.313-2.508,0.938-3.289s1.495-1.172,2.609-1.172c1.161,0,2.052,0.422,2.672,1.266h0.102l-0.055-0.617 l-0.031-0.602v-3.484h1.297v12.156H128L127.828,188.712z M125.234,188.931c0.886,0,1.527-0.241,1.926-0.723 s0.598-1.259,0.598-2.332v-0.273c0-1.214-0.202-2.079-0.605-2.598s-1.048-0.777-1.934-0.777c-0.761,0-1.343,0.296-1.746,0.887 s-0.605,1.426-0.605,2.504c0,1.094,0.2,1.919,0.602,2.477S124.458,188.931,125.234,188.931z"/><path fill="#4D4D4D" d="M135.422,190.017c-1.266,0-2.265-0.386-2.996-1.156s-1.098-1.841-1.098-3.211 c0-1.38,0.34-2.477,1.02-3.289s1.593-1.219,2.738-1.219c1.073,0,1.922,0.353,2.547,1.059s0.938,1.637,0.938,2.793v0.82h-5.898 c0.026,1.005,0.28,1.769,0.762,2.289s1.16,0.781,2.035,0.781c0.922,0,1.833-0.192,2.734-0.578v1.156 c-0.458,0.198-0.892,0.34-1.301,0.426S136,190.017,135.422,190.017z M135.07,182.228c-0.688,0-1.235,0.224-1.645,0.672 s-0.649,1.067-0.723,1.859h4.477c0-0.817-0.183-1.444-0.547-1.879S135.747,182.228,135.07,182.228z"/><path fill="#4D4D4D" d="M146.641,189.86v-5.539c0-0.698-0.159-1.219-0.477-1.563s-0.815-0.516-1.492-0.516 c-0.896,0-1.552,0.242-1.969,0.727s-0.625,1.284-0.625,2.398v4.492h-1.297v-8.563h1.055l0.211,1.172h0.063 c0.266-0.422,0.638-0.749,1.117-0.98s1.013-0.348,1.602-0.348c1.031,0,1.808,0.249,2.328,0.746s0.781,1.293,0.781,2.387v5.586 H146.641z"/><path fill="#4D4D4D" d="M151.484,186.712v-0.422c0-0.609,0.094-1.11,0.281-1.504s0.536-0.809,1.047-1.246 c0.708-0.599,1.155-1.05,1.34-1.352s0.277-0.667,0.277-1.094c0-0.531-0.171-0.941-0.512-1.23s-0.832-0.434-1.473-0.434 c-0.411,0-0.813,0.048-1.203,0.145s-0.839,0.272-1.344,0.527l-0.461-1.055c0.984-0.516,2.013-0.773,3.086-0.773 c0.995,0,1.769,0.245,2.32,0.734s0.828,1.18,0.828,2.07c0,0.38-0.051,0.715-0.152,1.004s-0.251,0.563-0.449,0.82 s-0.625,0.673-1.281,1.246c-0.526,0.448-0.874,0.82-1.043,1.117s-0.254,0.692-0.254,1.188v0.258H151.484z M151.102,189.032 c0-0.708,0.313-1.063,0.938-1.063c0.302,0,0.535,0.091,0.699,0.273s0.246,0.445,0.246,0.789c0,0.333-0.083,0.593-0.25,0.777 s-0.398,0.277-0.695,0.277c-0.271,0-0.495-0.082-0.672-0.246S151.102,189.407,151.102,189.032z"/></g></g><rect x="8" y="47" fill="#547F4B" width="65" height="33"/><rect x="80.183" y="46.929" fill="#525252" width="64.96" height="33.143"/><rect x="152" y="47" fill="#863D3D" width="65" height="33"/><g><path fill="#FFF" d="M51.711,64.788c0.555-0.636,0.833-1.388,0.833-2.257c0-0.788-0.288-1.469-0.863-2.046 c-0.576-0.576-1.258-0.864-2.045-0.864H45.44c0.04-0.142,0.081-0.262,0.121-0.364c0.04-0.101,0.096-0.212,0.167-0.333 c0.07-0.121,0.121-0.212,0.151-0.272c0.183-0.343,0.321-0.626,0.417-0.848c0.096-0.222,0.192-0.526,0.288-0.91 c0.096-0.383,0.144-0.767,0.144-1.152c0-0.242-0.003-0.439-0.008-0.59c-0.005-0.152-0.03-0.379-0.076-0.682 c-0.045-0.303-0.106-0.556-0.182-0.757c-0.076-0.202-0.197-0.43-0.364-0.682c-0.166-0.253-0.369-0.457-0.606-0.614 c-0.238-0.157-0.54-0.288-0.91-0.394c-0.369-0.106-0.785-0.159-1.249-0.159c-0.263,0-0.49,0.096-0.682,0.288 c-0.203,0.202-0.374,0.455-0.516,0.757c-0.141,0.303-0.24,0.566-0.295,0.788c-0.055,0.222-0.119,0.53-0.19,0.924 c-0.091,0.424-0.159,0.729-0.204,0.916c-0.045,0.187-0.134,0.432-0.265,0.735c-0.132,0.303-0.288,0.546-0.47,0.727 c-0.333,0.333-0.843,0.94-1.53,1.818c-0.495,0.646-1.005,1.258-1.53,1.833c-0.526,0.576-0.909,0.874-1.151,0.894 c-0.252,0.02-0.47,0.123-0.652,0.311c-0.182,0.187-0.272,0.407-0.272,0.659v9.712c0,0.262,0.096,0.487,0.288,0.674 c0.192,0.187,0.42,0.285,0.682,0.295c0.353,0.011,1.151,0.232,2.393,0.667c0.778,0.262,1.387,0.462,1.826,0.599 c0.439,0.136,1.053,0.282,1.84,0.439c0.787,0.156,1.515,0.234,2.181,0.234h1.955c1.344-0.02,2.338-0.414,2.985-1.181 c0.586-0.696,0.833-1.611,0.743-2.742c0.393-0.374,0.667-0.848,0.817-1.424c0.172-0.616,0.172-1.208,0-1.772 c0.465-0.616,0.682-1.308,0.652-2.076C51.938,65.616,51.862,65.233,51.711,64.788L51.711,64.788z M51.711,64.788"/><path fill="#FFF" d="M33.636,61.561h-4.363c-0.262,0-0.49,0.096-0.682,0.288c-0.192,0.192-0.288,0.42-0.288,0.682v9.696 c0,0.262,0.096,0.49,0.288,0.682c0.192,0.192,0.42,0.288,0.682,0.288h4.363c0.263,0,0.49-0.096,0.682-0.288 c0.192-0.192,0.288-0.42,0.288-0.682v-9.696c0-0.262-0.095-0.49-0.288-0.682C34.126,61.657,33.899,61.561,33.636,61.561 L33.636,61.561z M31.893,70.977c-0.192,0.187-0.418,0.281-0.681,0.281c-0.273,0-0.503-0.093-0.69-0.281 c-0.186-0.186-0.28-0.416-0.28-0.689c0-0.262,0.093-0.49,0.28-0.682c0.187-0.192,0.417-0.288,0.69-0.288 c0.262,0,0.489,0.096,0.681,0.288c0.192,0.192,0.289,0.42,0.289,0.682C32.182,70.561,32.086,70.791,31.893,70.977L31.893,70.977z M31.893,70.977"/></g><g><path fill="#FFF" d="M177.789,55.031h-4.363c-0.262,0-0.49,0.096-0.682,0.288c-0.192,0.192-0.288,0.419-0.288,0.682v9.696 c0,0.263,0.096,0.49,0.288,0.682c0.192,0.192,0.42,0.288,0.682,0.288h4.363c0.263,0,0.49-0.096,0.682-0.288 c0.192-0.192,0.288-0.419,0.288-0.682v-9.696c0-0.262-0.095-0.489-0.288-0.682C178.279,55.127,178.052,55.031,177.789,55.031 L177.789,55.031z M176.046,58.622c-0.192,0.192-0.418,0.288-0.681,0.288c-0.273,0-0.503-0.096-0.69-0.288 c-0.186-0.192-0.28-0.418-0.28-0.682c0-0.272,0.093-0.502,0.28-0.689c0.187-0.187,0.417-0.281,0.69-0.281 c0.262,0,0.489,0.093,0.681,0.281c0.192,0.187,0.289,0.417,0.289,0.689C176.335,58.203,176.239,58.43,176.046,58.622 L176.046,58.622z M176.046,58.622"/><path fill="#FFF" d="M195.863,63.44c0.152-0.444,0.228-0.828,0.226-1.151c0.031-0.767-0.186-1.459-0.651-2.076 c0.172-0.566,0.172-1.156,0-1.772c-0.152-0.576-0.424-1.05-0.818-1.424c0.091-1.131-0.157-2.046-0.743-2.742 c-0.646-0.768-1.641-1.162-2.984-1.182h-1.954c-0.666,0-1.394,0.078-2.182,0.235c-0.787,0.156-1.401,0.302-1.84,0.44 c-0.439,0.136-1.048,0.335-1.825,0.598c-1.243,0.434-2.041,0.656-2.394,0.666c-0.262,0.01-0.489,0.108-0.682,0.295 c-0.192,0.187-0.288,0.411-0.288,0.674v9.711c0,0.252,0.092,0.472,0.273,0.659c0.182,0.187,0.399,0.291,0.651,0.311 c0.242,0.021,0.626,0.319,1.151,0.894c0.526,0.576,1.036,1.187,1.531,1.833c0.686,0.878,1.197,1.484,1.53,1.818 c0.182,0.182,0.338,0.424,0.469,0.727c0.131,0.302,0.22,0.547,0.265,0.735c0.045,0.186,0.113,0.492,0.205,0.916 c0.07,0.394,0.133,0.702,0.189,0.924c0.056,0.222,0.154,0.485,0.296,0.788c0.141,0.303,0.313,0.555,0.515,0.757 c0.192,0.192,0.419,0.288,0.682,0.288c0.465,0,0.881-0.053,1.25-0.159c0.369-0.106,0.671-0.237,0.909-0.394 c0.238-0.156,0.44-0.361,0.607-0.614c0.166-0.252,0.288-0.479,0.363-0.681c0.075-0.202,0.136-0.455,0.182-0.757 c0.046-0.303,0.071-0.531,0.076-0.683c0.004-0.151,0.007-0.348,0.007-0.59c0-0.384-0.05-0.771-0.152-1.159 c-0.101-0.389-0.197-0.684-0.288-0.886c-0.091-0.202-0.227-0.489-0.409-0.864c-0.031-0.061-0.081-0.152-0.152-0.273 c-0.07-0.121-0.126-0.232-0.166-0.333c-0.041-0.101-0.081-0.222-0.122-0.363h4.196c0.788,0,1.467-0.288,2.038-0.864 c0.571-0.577,0.862-1.257,0.872-2.046C196.696,64.808,196.418,64.056,195.863,63.44L195.863,63.44z M195.863,63.44"/></g><g><path fill="#FFF" d="M110.154,53.464h-6.691c-0.226,0-0.423,0.083-0.588,0.248c-0.165,0.165-0.248,0.362-0.248,0.588v18.4 c0,0.226,0.083,0.423,0.248,0.588c0.166,0.165,0.362,0.248,0.588,0.248h6.691c0.226,0,0.423-0.083,0.588-0.248 c0.165-0.165,0.248-0.362,0.248-0.588V54.3c0-0.227-0.083-0.423-0.248-0.588C110.577,53.547,110.38,53.464,110.154,53.464 L110.154,53.464z M110.154,53.464"/><path fill="#FFF" d="M122.451,53.712c-0.165-0.165-0.361-0.248-0.588-0.248h-6.691c-0.226,0-0.422,0.083-0.588,0.248 c-0.165,0.165-0.248,0.362-0.248,0.588v18.4c0,0.226,0.083,0.423,0.248,0.588c0.166,0.165,0.362,0.248,0.588,0.248h6.691 c0.227,0,0.423-0.083,0.588-0.248c0.165-0.165,0.248-0.362,0.248-0.588V54.3C122.699,54.073,122.617,53.877,122.451,53.712 L122.451,53.712z M122.451,53.712"/></g></svg>