<?xml version="1.0" encoding="utf-8"?>
<!-- Generator: Adobe Illustrator 17.0.0, SVG Export Plug-In . SVG Version: 6.00 Build 0)  -->
<!DOCTYPE svg PUBLIC "-//W3C//DTD SVG 1.1//EN" "http://www.w3.org/Graphics/SVG/1.1/DTD/svg11.dtd">
<svg version="1.1" id="Layer_1" xmlns="http://www.w3.org/2000/svg" xmlns:xlink="http://www.w3.org/1999/xlink" x="0px" y="0px"
	 width="223px" height="216px" viewBox="0 0 223 216" enable-background="new 0 0 223 216" xml:space="preserve">
<g>
	<path fill="#475668" d="M139.195,30.608c-1.758-3.372-4.066-6.177-6.927-8.411c-2.866-2.231-6.104-3.988-9.719-5.273
		C118.935,15.643,115.253,15,111.5,15c-3.753,0-7.435,0.643-11.049,1.924c-3.615,1.285-6.853,3.042-9.715,5.273
		c-2.865,2.233-5.177,5.035-6.935,8.411c-1.757,3.38-2.634,7.024-2.634,10.933c0,6.121,2.034,11.415,6.104,15.879
		c1.775,1.934,3.249,3.653,4.413,5.152c1.165,1.502,2.341,3.387,3.526,5.659c1.183,2.269,1.857,4.392,2.013,6.37
		c-1.857,1.104-2.783,2.723-2.783,4.858c0,1.463,0.494,2.727,1.48,3.792c-0.986,1.064-1.48,2.329-1.48,3.791
		c0,2.056,0.887,3.654,2.666,4.801c-0.515,0.905-0.77,1.835-0.77,2.783c0,1.814,0.621,3.22,1.863,4.204
		c1.243,0.987,2.777,1.484,4.591,1.484c0.792,1.736,1.978,3.118,3.554,4.147c1.581,1.026,3.299,1.538,5.156,1.538
		c1.857,0,3.576-0.512,5.156-1.538c1.58-1.029,2.766-2.411,3.554-4.147c1.818,0,3.349-0.497,4.591-1.484
		c1.243-0.983,1.868-2.39,1.868-4.204c0-0.948-0.26-1.878-0.774-2.783c1.779-1.147,2.667-2.745,2.667-4.801
		c0-1.463-0.494-2.727-1.481-3.791c0.987-1.065,1.481-2.33,1.481-3.792c0-2.134-0.927-3.753-2.784-4.858
		c0.16-1.978,0.831-4.101,2.013-6.37c1.186-2.272,2.361-4.158,3.526-5.659c1.168-1.499,2.638-3.218,4.413-5.152
		c4.069-4.464,6.104-9.758,6.104-15.879C141.833,37.632,140.956,33.988,139.195,30.608L139.195,30.608z M130.223,52.203
		c-0.398,0.437-0.998,1.087-1.808,1.957c-0.809,0.87-1.413,1.52-1.807,1.952c-5.056,6.044-7.84,11.93-8.354,17.658h-13.507
		c-0.515-5.727-3.299-11.614-8.354-17.658c-0.394-0.433-0.998-1.083-1.807-1.952c-0.81-0.87-1.413-1.52-1.808-1.957
		c-2.684-3.117-4.026-6.675-4.026-10.662c0-2.844,0.682-5.489,2.042-7.94c1.363-2.45,3.142-4.452,5.333-6.015
		c2.191-1.559,4.619-2.783,7.286-3.671c2.666-0.891,5.361-1.335,8.088-1.335c2.727,0,5.422,0.444,8.089,1.335
		c2.662,0.888,5.091,2.112,7.285,3.671c2.191,1.563,3.969,3.565,5.333,6.015c1.36,2.451,2.042,5.096,2.042,7.94
		C134.249,45.529,132.907,49.086,130.223,52.203L130.223,52.203z M130.223,52.203"/>
	<path fill="#475668" d="M117.394,33.009c-1.952-0.628-3.919-0.948-5.894-0.948c-0.511,0-0.955,0.188-1.332,0.565
		c-0.376,0.376-0.564,0.821-0.564,1.332c0,0.515,0.188,0.959,0.564,1.335c0.376,0.373,0.821,0.561,1.332,0.561
		c2.056,0,4.148,0.494,6.281,1.481c2.134,0.987,3.2,2.39,3.2,4.208c0,0.514,0.185,0.959,0.561,1.332
		c0.376,0.376,0.82,0.564,1.335,0.564c0.511,0,0.955-0.188,1.332-0.564c0.376-0.373,0.561-0.817,0.561-1.332
		c0-2.056-0.739-3.831-2.22-5.333C121.069,34.709,119.351,33.64,117.394,33.009L117.394,33.009z M117.394,33.009"/>
</g>
<g>
	<g>
		<path fill="#525252" d="M85.199,145.24v-17.133h3.633v17.133H85.199z"/>
		<path fill="#525252" d="M108.8,136.51c0,2.82-0.803,4.98-2.408,6.48s-3.924,2.25-6.955,2.25h-4.852v-17.133h5.379
			c2.797,0,4.969,0.738,6.516,2.215S108.8,133.861,108.8,136.51z M105.026,136.604c0-3.68-1.625-5.52-4.875-5.52h-1.934v11.156
			h1.559C103.276,142.24,105.026,140.361,105.026,136.604z"/>
		<path fill="#525252" d="M123.657,145.24h-9.867v-17.133h9.867v2.977h-6.234v3.762h5.801v2.977h-5.801v4.418h6.234V145.24z"/>
		<path fill="#525252" d="M138.539,145.24h-9.867v-17.133h9.867v2.977h-6.234v3.762h5.801v2.977h-5.801v4.418h6.234V145.24z"/>
	</g>
</g>
<g>
	<g>
		<path fill="#4D4D4D" d="M23.152,170.66H21.84l-2.305-7.648c-0.109-0.339-0.231-0.766-0.367-1.281s-0.206-0.825-0.211-0.93
			c-0.114,0.688-0.297,1.44-0.547,2.258l-2.234,7.602h-1.313l-3.039-11.422h1.406l1.805,7.055c0.25,0.989,0.433,1.886,0.547,2.688
			c0.141-0.953,0.349-1.886,0.625-2.797l2.047-6.945h1.406l2.148,7.008c0.25,0.808,0.461,1.719,0.633,2.734
			c0.099-0.739,0.286-1.641,0.563-2.703l1.797-7.039h1.406L23.152,170.66z"/>
		<path fill="#4D4D4D" d="M31.418,170.816c-1.266,0-2.265-0.386-2.996-1.156s-1.098-1.841-1.098-3.211c0-1.38,0.34-2.477,1.02-3.289
			s1.593-1.219,2.738-1.219c1.073,0,1.922,0.353,2.547,1.059s0.938,1.637,0.938,2.793v0.82h-5.898
			c0.026,1.005,0.28,1.769,0.762,2.289s1.16,0.781,2.035,0.781c0.922,0,1.833-0.192,2.734-0.578v1.156
			c-0.458,0.198-0.892,0.34-1.301,0.426S31.996,170.816,31.418,170.816z M31.066,163.027c-0.688,0-1.235,0.224-1.645,0.672
			s-0.649,1.067-0.723,1.859h4.477c0-0.817-0.183-1.444-0.547-1.879S31.743,163.027,31.066,163.027z"/>
		<path fill="#4D4D4D" d="M38.074,170.66h-1.297v-12.156h1.297V170.66z"/>
		<path fill="#4D4D4D" d="M42.105,166.277c0.224-0.317,0.565-0.734,1.023-1.25l2.766-2.93h1.539l-3.469,3.648l3.711,4.914h-1.57
			l-3.023-4.047l-0.977,0.844v3.203h-1.281v-12.156h1.281v6.445c0,0.286-0.021,0.729-0.063,1.328H42.105z"/>
		<path fill="#4D4D4D" d="M52.84,170.816c-1.266,0-2.265-0.386-2.996-1.156s-1.098-1.841-1.098-3.211c0-1.38,0.34-2.477,1.02-3.289
			s1.593-1.219,2.738-1.219c1.073,0,1.922,0.353,2.547,1.059s0.938,1.637,0.938,2.793v0.82H50.09
			c0.026,1.005,0.28,1.769,0.762,2.289s1.16,0.781,2.035,0.781c0.922,0,1.833-0.192,2.734-0.578v1.156
			c-0.458,0.198-0.892,0.34-1.301,0.426S53.418,170.816,52.84,170.816z M52.488,163.027c-0.688,0-1.235,0.224-1.645,0.672
			s-0.649,1.067-0.723,1.859h4.477c0-0.817-0.183-1.444-0.547-1.879S53.165,163.027,52.488,163.027z"/>
		<path fill="#4D4D4D" d="M69.746,166.371c0,1.396-0.352,2.485-1.055,3.27s-1.675,1.176-2.914,1.176
			c-0.766,0-1.445-0.18-2.039-0.539s-1.052-0.875-1.375-1.547s-0.484-1.458-0.484-2.359c0-1.396,0.349-2.483,1.047-3.262
			s1.667-1.168,2.906-1.168c1.198,0,2.149,0.398,2.855,1.195S69.746,165.012,69.746,166.371z M63.223,166.371
			c0,1.094,0.219,1.927,0.656,2.5s1.081,0.859,1.93,0.859s1.493-0.285,1.934-0.855s0.66-1.405,0.66-2.504
			c0-1.089-0.22-1.915-0.66-2.48s-1.09-0.848-1.949-0.848c-0.849,0-1.489,0.278-1.922,0.836S63.223,165.267,63.223,166.371z"/>
		<path fill="#4D4D4D" d="M76.004,170.816c-0.558,0-1.066-0.103-1.527-0.309s-0.848-0.522-1.16-0.949h-0.094
			c0.063,0.5,0.094,0.974,0.094,1.422v3.523H72.02v-12.406h1.055l0.18,1.172h0.063c0.333-0.469,0.722-0.808,1.164-1.016
			s0.95-0.313,1.523-0.313c1.136,0,2.012,0.388,2.629,1.164s0.926,1.864,0.926,3.266c0,1.406-0.313,2.499-0.941,3.277
			S77.118,170.816,76.004,170.816z M75.816,163.043c-0.875,0-1.508,0.242-1.898,0.727s-0.591,1.255-0.602,2.313v0.289
			c0,1.203,0.2,2.063,0.602,2.582s1.044,0.777,1.93,0.777c0.739,0,1.319-0.3,1.738-0.898s0.629-1.425,0.629-2.477
			c0-1.067-0.21-1.887-0.629-2.457S76.577,163.043,75.816,163.043z"/>
		<path fill="#4D4D4D" d="M83.121,170.66h-1.297v-12.156h1.297V170.66z"/>
		<path fill="#4D4D4D" d="M93.262,166.371c0,1.396-0.352,2.485-1.055,3.27s-1.675,1.176-2.914,1.176
			c-0.766,0-1.445-0.18-2.039-0.539s-1.052-0.875-1.375-1.547s-0.484-1.458-0.484-2.359c0-1.396,0.349-2.483,1.047-3.262
			s1.667-1.168,2.906-1.168c1.198,0,2.149,0.398,2.855,1.195S93.262,165.012,93.262,166.371z M86.738,166.371
			c0,1.094,0.219,1.927,0.656,2.5s1.081,0.859,1.93,0.859s1.493-0.285,1.934-0.855s0.66-1.405,0.66-2.504
			c0-1.089-0.22-1.915-0.66-2.48s-1.09-0.848-1.949-0.848c-0.849,0-1.489,0.278-1.922,0.836S86.738,165.267,86.738,166.371z"/>
		<path fill="#4D4D4D" d="M101.059,168.324c0,0.797-0.297,1.411-0.891,1.844s-1.427,0.648-2.5,0.648
			c-1.136,0-2.021-0.18-2.656-0.539v-1.203c0.411,0.208,0.853,0.372,1.324,0.492s0.926,0.18,1.363,0.18
			c0.677,0,1.198-0.108,1.563-0.324s0.547-0.546,0.547-0.988c0-0.333-0.145-0.618-0.434-0.855s-0.853-0.517-1.691-0.84
			c-0.797-0.297-1.363-0.556-1.699-0.777s-0.586-0.473-0.75-0.754s-0.246-0.617-0.246-1.008c0-0.698,0.284-1.249,0.852-1.652
			s1.347-0.605,2.336-0.605c0.922,0,1.823,0.188,2.703,0.563l-0.461,1.055c-0.859-0.354-1.638-0.531-2.336-0.531
			c-0.614,0-1.078,0.097-1.391,0.289s-0.469,0.458-0.469,0.797c0,0.229,0.059,0.425,0.176,0.586s0.306,0.315,0.566,0.461
			s0.761,0.356,1.5,0.633c1.016,0.37,1.702,0.742,2.059,1.117S101.059,167.757,101.059,168.324z"/>
		<path fill="#4D4D4D" d="M108.691,168.324c0,0.797-0.297,1.411-0.891,1.844s-1.427,0.648-2.5,0.648
			c-1.136,0-2.021-0.18-2.656-0.539v-1.203c0.411,0.208,0.853,0.372,1.324,0.492s0.926,0.18,1.363,0.18
			c0.677,0,1.198-0.108,1.563-0.324s0.547-0.546,0.547-0.988c0-0.333-0.145-0.618-0.434-0.855s-0.853-0.517-1.691-0.84
			c-0.797-0.297-1.363-0.556-1.699-0.777s-0.586-0.473-0.75-0.754s-0.246-0.617-0.246-1.008c0-0.698,0.284-1.249,0.852-1.652
			s1.347-0.605,2.336-0.605c0.922,0,1.823,0.188,2.703,0.563l-0.461,1.055c-0.859-0.354-1.638-0.531-2.336-0.531
			c-0.614,0-1.078,0.097-1.391,0.289s-0.469,0.458-0.469,0.797c0,0.229,0.059,0.425,0.176,0.586s0.306,0.315,0.566,0.461
			s0.761,0.356,1.5,0.633c1.016,0.37,1.702,0.742,2.059,1.117S108.691,167.757,108.691,168.324z"/>
		<path fill="#4D4D4D" d="M110.691,159.777c0-0.297,0.073-0.515,0.219-0.652s0.328-0.207,0.547-0.207
			c0.208,0,0.388,0.07,0.539,0.211s0.227,0.356,0.227,0.648s-0.075,0.509-0.227,0.652s-0.331,0.215-0.539,0.215
			c-0.219,0-0.401-0.071-0.547-0.215S110.691,160.069,110.691,159.777z M112.098,170.66h-1.297v-8.563h1.297V170.66z"/>
		<path fill="#4D4D4D" d="M120.707,170.66v-5.539c0-0.698-0.159-1.219-0.477-1.563s-0.815-0.516-1.492-0.516
			c-0.896,0-1.552,0.242-1.969,0.727s-0.625,1.284-0.625,2.398v4.492h-1.297v-8.563h1.055l0.211,1.172h0.063
			c0.266-0.422,0.638-0.749,1.117-0.98s1.013-0.348,1.602-0.348c1.031,0,1.808,0.249,2.328,0.746s0.781,1.293,0.781,2.387v5.586
			H120.707z"/>
		<path fill="#4D4D4D" d="M131.676,162.098v0.82l-1.586,0.188c0.146,0.183,0.276,0.421,0.391,0.715s0.172,0.626,0.172,0.996
			c0,0.839-0.286,1.508-0.859,2.008s-1.359,0.75-2.359,0.75c-0.255,0-0.495-0.021-0.719-0.063c-0.552,0.292-0.828,0.659-0.828,1.102
			c0,0.234,0.097,0.407,0.289,0.52s0.523,0.168,0.992,0.168h1.516c0.927,0,1.64,0.195,2.137,0.586s0.746,0.958,0.746,1.703
			c0,0.948-0.38,1.671-1.141,2.168s-1.87,0.746-3.328,0.746c-1.12,0-1.983-0.208-2.59-0.625s-0.91-1.005-0.91-1.766
			c0-0.521,0.167-0.972,0.5-1.352s0.802-0.638,1.406-0.773c-0.219-0.099-0.402-0.253-0.551-0.461s-0.223-0.45-0.223-0.727
			c0-0.313,0.083-0.586,0.25-0.82s0.43-0.461,0.789-0.68c-0.442-0.183-0.804-0.492-1.082-0.93s-0.418-0.938-0.418-1.5
			c0-0.938,0.281-1.66,0.844-2.168s1.359-0.762,2.391-0.762c0.448,0,0.852,0.052,1.211,0.156H131.676z M124.848,172.098
			c0,0.464,0.195,0.815,0.586,1.055s0.95,0.359,1.68,0.359c1.089,0,1.895-0.163,2.418-0.488s0.785-0.767,0.785-1.324
			c0-0.464-0.144-0.785-0.43-0.965s-0.825-0.27-1.617-0.27h-1.555c-0.589,0-1.047,0.141-1.375,0.422
			S124.848,171.571,124.848,172.098z M125.551,164.84c0,0.599,0.169,1.052,0.508,1.359s0.81,0.461,1.414,0.461
			c1.266,0,1.898-0.614,1.898-1.844c0-1.286-0.641-1.93-1.922-1.93c-0.609,0-1.078,0.164-1.406,0.492
			S125.551,164.194,125.551,164.84z"/>
		<path fill="#4D4D4D" d="M141.574,161.957c1.125,0,1.999,0.384,2.621,1.152s0.934,1.855,0.934,3.262s-0.313,2.499-0.941,3.277
			s-1.499,1.168-2.613,1.168c-0.558,0-1.066-0.103-1.527-0.309s-0.848-0.522-1.16-0.949h-0.094l-0.273,1.102h-0.93v-12.156h1.297
			v2.953c0,0.661-0.021,1.255-0.063,1.781h0.063C139.491,162.384,140.387,161.957,141.574,161.957z M141.387,163.043
			c-0.886,0-1.523,0.254-1.914,0.762s-0.586,1.363-0.586,2.566s0.2,2.063,0.602,2.582s1.044,0.777,1.93,0.777
			c0.797,0,1.391-0.29,1.781-0.871s0.586-1.415,0.586-2.504c0-1.114-0.195-1.945-0.586-2.492S142.204,163.043,141.387,163.043z"/>
		<path fill="#4D4D4D" d="M151.012,170.816c-1.266,0-2.265-0.386-2.996-1.156s-1.098-1.841-1.098-3.211
			c0-1.38,0.34-2.477,1.02-3.289s1.593-1.219,2.738-1.219c1.073,0,1.922,0.353,2.547,1.059s0.938,1.637,0.938,2.793v0.82h-5.898
			c0.026,1.005,0.28,1.769,0.762,2.289s1.16,0.781,2.035,0.781c0.922,0,1.833-0.192,2.734-0.578v1.156
			c-0.458,0.198-0.892,0.34-1.301,0.426S151.59,170.816,151.012,170.816z M150.66,163.027c-0.688,0-1.235,0.224-1.645,0.672
			s-0.649,1.067-0.723,1.859h4.477c0-0.817-0.183-1.444-0.547-1.879S151.337,163.027,150.66,163.027z"/>
		<path fill="#4D4D4D" d="M161.895,168.324c0,0.797-0.297,1.411-0.891,1.844s-1.427,0.648-2.5,0.648
			c-1.136,0-2.021-0.18-2.656-0.539v-1.203c0.411,0.208,0.853,0.372,1.324,0.492s0.926,0.18,1.363,0.18
			c0.677,0,1.198-0.108,1.563-0.324s0.547-0.546,0.547-0.988c0-0.333-0.145-0.618-0.434-0.855s-0.853-0.517-1.691-0.84
			c-0.797-0.297-1.363-0.556-1.699-0.777s-0.586-0.473-0.75-0.754s-0.246-0.617-0.246-1.008c0-0.698,0.284-1.249,0.852-1.652
			s1.347-0.605,2.336-0.605c0.922,0,1.823,0.188,2.703,0.563l-0.461,1.055c-0.859-0.354-1.638-0.531-2.336-0.531
			c-0.614,0-1.078,0.097-1.391,0.289s-0.469,0.458-0.469,0.797c0,0.229,0.059,0.425,0.176,0.586s0.306,0.315,0.566,0.461
			s0.761,0.356,1.5,0.633c1.016,0.37,1.702,0.742,2.059,1.117S161.895,167.757,161.895,168.324z"/>
		<path fill="#4D4D4D" d="M166.77,169.746c0.229,0,0.45-0.017,0.664-0.051s0.383-0.069,0.508-0.105v0.992
			c-0.141,0.067-0.348,0.124-0.621,0.168s-0.52,0.066-0.738,0.066c-1.656,0-2.484-0.872-2.484-2.617v-5.094h-1.227v-0.625
			l1.227-0.539l0.547-1.828h0.75v1.984h2.484v1.008h-2.484v5.039c0,0.516,0.122,0.911,0.367,1.188S166.343,169.746,166.77,169.746z"
			/>
		<path fill="#4D4D4D" d="M174.918,170.66l-0.258-1.219h-0.063c-0.427,0.536-0.853,0.899-1.277,1.09s-0.954,0.285-1.59,0.285
			c-0.849,0-1.515-0.219-1.996-0.656s-0.723-1.06-0.723-1.867c0-1.729,1.383-2.636,4.148-2.719l1.453-0.047v-0.531
			c0-0.672-0.145-1.168-0.434-1.488s-0.751-0.48-1.387-0.48c-0.714,0-1.521,0.219-2.422,0.656l-0.398-0.992
			c0.422-0.229,0.884-0.409,1.387-0.539s1.007-0.195,1.512-0.195c1.021,0,1.777,0.227,2.27,0.68s0.738,1.18,0.738,2.18v5.844
			H174.918z M171.988,169.746c0.808,0,1.441-0.222,1.902-0.664s0.691-1.063,0.691-1.859v-0.773l-1.297,0.055
			c-1.031,0.036-1.774,0.196-2.23,0.48s-0.684,0.726-0.684,1.324c0,0.469,0.142,0.825,0.426,1.07S171.478,169.746,171.988,169.746z"
			/>
		<path fill="#4D4D4D" d="M183.816,170.66l-0.258-1.219h-0.063c-0.427,0.536-0.853,0.899-1.277,1.09s-0.954,0.285-1.59,0.285
			c-0.849,0-1.515-0.219-1.996-0.656s-0.723-1.06-0.723-1.867c0-1.729,1.383-2.636,4.148-2.719l1.453-0.047v-0.531
			c0-0.672-0.145-1.168-0.434-1.488s-0.751-0.48-1.387-0.48c-0.714,0-1.521,0.219-2.422,0.656l-0.398-0.992
			c0.422-0.229,0.884-0.409,1.387-0.539s1.007-0.195,1.512-0.195c1.021,0,1.777,0.227,2.27,0.68s0.738,1.18,0.738,2.18v5.844
			H183.816z M180.887,169.746c0.808,0,1.441-0.222,1.902-0.664s0.691-1.063,0.691-1.859v-0.773l-1.297,0.055
			c-1.031,0.036-1.774,0.196-2.23,0.48s-0.684,0.726-0.684,1.324c0,0.469,0.142,0.825,0.426,1.07S180.376,169.746,180.887,169.746z"
			/>
		<path fill="#4D4D4D" d="M190.215,169.746c0.229,0,0.45-0.017,0.664-0.051s0.383-0.069,0.508-0.105v0.992
			c-0.141,0.067-0.348,0.124-0.621,0.168s-0.52,0.066-0.738,0.066c-1.656,0-2.484-0.872-2.484-2.617v-5.094h-1.227v-0.625
			l1.227-0.539l0.547-1.828h0.75v1.984h2.484v1.008h-2.484v5.039c0,0.516,0.122,0.911,0.367,1.188S189.788,169.746,190.215,169.746z
			"/>
		<path fill="#4D4D4D" d="M200.871,170.816c-1.266,0-2.265-0.386-2.996-1.156s-1.098-1.841-1.098-3.211
			c0-1.38,0.34-2.477,1.02-3.289s1.593-1.219,2.738-1.219c1.073,0,1.922,0.353,2.547,1.059s0.938,1.637,0.938,2.793v0.82h-5.898
			c0.026,1.005,0.28,1.769,0.762,2.289s1.16,0.781,2.035,0.781c0.922,0,1.833-0.192,2.734-0.578v1.156
			c-0.458,0.198-0.892,0.34-1.301,0.426S201.449,170.816,200.871,170.816z M200.52,163.027c-0.688,0-1.235,0.224-1.645,0.672
			s-0.649,1.067-0.723,1.859h4.477c0-0.817-0.183-1.444-0.547-1.879S201.196,163.027,200.52,163.027z"/>
		<path fill="#4D4D4D" d="M210.137,161.941c0.38,0,0.722,0.031,1.023,0.094l-0.18,1.203c-0.354-0.078-0.667-0.117-0.938-0.117
			c-0.692,0-1.285,0.281-1.777,0.844s-0.738,1.263-0.738,2.102v4.594h-1.297v-8.563h1.07l0.148,1.586h0.063
			c0.317-0.558,0.7-0.987,1.148-1.289S209.601,161.941,210.137,161.941z"/>
		<path fill="#4D4D4D" d="M41.656,189.86l-3.25-8.563h1.391l1.844,5.078c0.417,1.188,0.661,1.958,0.734,2.313h0.063
			c0.058-0.276,0.238-0.848,0.543-1.715s0.988-2.759,2.051-5.676h1.391l-3.25,8.563H41.656z"/>
		<path fill="#4D4D4D" d="M55.188,185.571c0,1.396-0.352,2.485-1.055,3.27s-1.675,1.176-2.914,1.176
			c-0.766,0-1.445-0.18-2.039-0.539s-1.052-0.875-1.375-1.547s-0.484-1.458-0.484-2.359c0-1.396,0.349-2.483,1.047-3.262
			s1.667-1.168,2.906-1.168c1.198,0,2.149,0.398,2.855,1.195S55.188,184.212,55.188,185.571z M48.664,185.571
			c0,1.094,0.219,1.927,0.656,2.5s1.081,0.859,1.93,0.859s1.493-0.285,1.934-0.855s0.66-1.405,0.66-2.504
			c0-1.089-0.22-1.915-0.66-2.48s-1.09-0.848-1.949-0.848c-0.849,0-1.489,0.278-1.922,0.836S48.664,184.467,48.664,185.571z"/>
		<path fill="#4D4D4D" d="M64.852,185.571c0,1.396-0.352,2.485-1.055,3.27s-1.675,1.176-2.914,1.176
			c-0.766,0-1.445-0.18-2.039-0.539s-1.052-0.875-1.375-1.547s-0.484-1.458-0.484-2.359c0-1.396,0.349-2.483,1.047-3.262
			s1.667-1.168,2.906-1.168c1.198,0,2.149,0.398,2.855,1.195S64.852,184.212,64.852,185.571z M58.328,185.571
			c0,1.094,0.219,1.927,0.656,2.5s1.081,0.859,1.93,0.859s1.493-0.285,1.934-0.855s0.66-1.405,0.66-2.504
			c0-1.089-0.22-1.915-0.66-2.48s-1.09-0.848-1.949-0.848c-0.849,0-1.489,0.278-1.922,0.836S58.328,184.467,58.328,185.571z"/>
		<path fill="#4D4D4D" d="M71.031,181.142c0.38,0,0.722,0.031,1.023,0.094l-0.18,1.203c-0.354-0.078-0.667-0.117-0.938-0.117
			c-0.692,0-1.285,0.281-1.777,0.844s-0.738,1.263-0.738,2.102v4.594h-1.297v-8.563h1.07l0.148,1.586h0.063
			c0.317-0.558,0.7-0.987,1.148-1.289S70.495,181.142,71.031,181.142z"/>
		<path fill="#4D4D4D" d="M83.672,189.86v-5.539c0-0.698-0.159-1.219-0.477-1.563s-0.815-0.516-1.492-0.516
			c-0.901,0-1.559,0.245-1.973,0.734s-0.621,1.292-0.621,2.406v4.477h-1.297v-12.156h1.297v3.68c0,0.442-0.021,0.81-0.063,1.102
			h0.078c0.255-0.411,0.618-0.735,1.09-0.973s1.009-0.355,1.613-0.355c1.047,0,1.832,0.249,2.355,0.746s0.785,1.288,0.785,2.371
			v5.586H83.672z"/>
		<path fill="#4D4D4D" d="M91.25,190.017c-1.266,0-2.265-0.386-2.996-1.156s-1.098-1.841-1.098-3.211c0-1.38,0.34-2.477,1.02-3.289
			s1.593-1.219,2.738-1.219c1.073,0,1.922,0.353,2.547,1.059s0.938,1.637,0.938,2.793v0.82H88.5c0.026,1.005,0.28,1.769,0.762,2.289
			s1.16,0.781,2.035,0.781c0.922,0,1.833-0.192,2.734-0.578v1.156c-0.458,0.198-0.892,0.34-1.301,0.426
			S91.828,190.017,91.25,190.017z M90.898,182.228c-0.688,0-1.235,0.224-1.645,0.672s-0.649,1.067-0.723,1.859h4.477
			c0-0.817-0.183-1.444-0.547-1.879S91.575,182.228,90.898,182.228z"/>
		<path fill="#4D4D4D" d="M99.375,188.946c0.229,0,0.45-0.017,0.664-0.051s0.383-0.069,0.508-0.105v0.992
			c-0.141,0.067-0.348,0.124-0.621,0.168s-0.52,0.066-0.738,0.066c-1.656,0-2.484-0.872-2.484-2.617v-5.094h-1.227v-0.625
			l1.227-0.539l0.547-1.828H98v1.984h2.484v1.008H98v5.039c0,0.516,0.122,0.911,0.367,1.188S98.948,188.946,99.375,188.946z"/>
		<path fill="#4D4D4D" d="M110.398,190.017c-0.558,0-1.066-0.103-1.527-0.309s-0.848-0.522-1.16-0.949h-0.094
			c0.063,0.5,0.094,0.974,0.094,1.422v3.523h-1.297v-12.406h1.055l0.18,1.172h0.063c0.333-0.469,0.722-0.808,1.164-1.016
			s0.95-0.313,1.523-0.313c1.136,0,2.012,0.388,2.629,1.164s0.926,1.864,0.926,3.266c0,1.406-0.313,2.499-0.941,3.277
			S111.513,190.017,110.398,190.017z M110.211,182.243c-0.875,0-1.508,0.242-1.898,0.727s-0.591,1.255-0.602,2.313v0.289
			c0,1.203,0.2,2.063,0.602,2.582s1.044,0.777,1.93,0.777c0.739,0,1.319-0.3,1.738-0.898s0.629-1.425,0.629-2.477
			c0-1.067-0.21-1.887-0.629-2.457S110.972,182.243,110.211,182.243z"/>
		<path fill="#4D4D4D" d="M120.125,181.142c0.38,0,0.722,0.031,1.023,0.094l-0.18,1.203c-0.354-0.078-0.667-0.117-0.938-0.117
			c-0.692,0-1.285,0.281-1.777,0.844s-0.738,1.263-0.738,2.102v4.594h-1.297v-8.563h1.07l0.148,1.586h0.063
			c0.317-0.558,0.7-0.987,1.148-1.289S119.589,181.142,120.125,181.142z"/>
		<path fill="#4D4D4D" d="M130.141,185.571c0,1.396-0.352,2.485-1.055,3.27s-1.675,1.176-2.914,1.176
			c-0.766,0-1.445-0.18-2.039-0.539s-1.052-0.875-1.375-1.547s-0.484-1.458-0.484-2.359c0-1.396,0.349-2.483,1.047-3.262
			s1.667-1.168,2.906-1.168c1.198,0,2.149,0.398,2.855,1.195S130.141,184.212,130.141,185.571z M123.617,185.571
			c0,1.094,0.219,1.927,0.656,2.5s1.081,0.859,1.93,0.859s1.493-0.285,1.934-0.855s0.66-1.405,0.66-2.504
			c0-1.089-0.22-1.915-0.66-2.48s-1.09-0.848-1.949-0.848c-0.849,0-1.489,0.278-1.922,0.836S123.617,184.467,123.617,185.571z"/>
		<path fill="#4D4D4D" d="M136.398,181.157c1.125,0,1.999,0.384,2.621,1.152s0.934,1.855,0.934,3.262s-0.313,2.499-0.941,3.277
			s-1.499,1.168-2.613,1.168c-0.558,0-1.066-0.103-1.527-0.309s-0.848-0.522-1.16-0.949h-0.094l-0.273,1.102h-0.93v-12.156h1.297
			v2.953c0,0.661-0.021,1.255-0.063,1.781h0.063C134.315,181.584,135.211,181.157,136.398,181.157z M136.211,182.243
			c-0.886,0-1.523,0.254-1.914,0.762s-0.586,1.363-0.586,2.566s0.2,2.063,0.602,2.582s1.044,0.777,1.93,0.777
			c0.797,0,1.391-0.29,1.781-0.871s0.586-1.415,0.586-2.504c0-1.114-0.195-1.945-0.586-2.492S137.028,182.243,136.211,182.243z"/>
		<path fill="#4D4D4D" d="M143.516,189.86h-1.297v-12.156h1.297V189.86z"/>
		<path fill="#4D4D4D" d="M149.883,190.017c-1.266,0-2.265-0.386-2.996-1.156s-1.098-1.841-1.098-3.211
			c0-1.38,0.34-2.477,1.02-3.289s1.593-1.219,2.738-1.219c1.073,0,1.922,0.353,2.547,1.059s0.938,1.637,0.938,2.793v0.82h-5.898
			c0.026,1.005,0.28,1.769,0.762,2.289s1.16,0.781,2.035,0.781c0.922,0,1.833-0.192,2.734-0.578v1.156
			c-0.458,0.198-0.892,0.34-1.301,0.426S150.461,190.017,149.883,190.017z M149.531,182.228c-0.688,0-1.235,0.224-1.645,0.672
			s-0.649,1.067-0.723,1.859h4.477c0-0.817-0.183-1.444-0.547-1.879S150.208,182.228,149.531,182.228z"/>
		<path fill="#4D4D4D" d="M158.859,190.017c-1.266,0-2.265-0.386-2.996-1.156s-1.098-1.841-1.098-3.211
			c0-1.38,0.34-2.477,1.02-3.289s1.593-1.219,2.738-1.219c1.073,0,1.922,0.353,2.547,1.059s0.938,1.637,0.938,2.793v0.82h-5.898
			c0.026,1.005,0.28,1.769,0.762,2.289s1.16,0.781,2.035,0.781c0.922,0,1.833-0.192,2.734-0.578v1.156
			c-0.458,0.198-0.892,0.34-1.301,0.426S159.438,190.017,158.859,190.017z M158.508,182.228c-0.688,0-1.235,0.224-1.645,0.672
			s-0.649,1.067-0.723,1.859h4.477c0-0.817-0.183-1.444-0.547-1.879S159.185,182.228,158.508,182.228z"/>
		<path fill="#4D4D4D" d="M175.133,189.86v-5.57c0-0.683-0.146-1.194-0.438-1.535s-0.745-0.512-1.359-0.512
			c-0.808,0-1.403,0.231-1.789,0.695s-0.578,1.177-0.578,2.141v4.781h-1.297v-5.57c0-0.683-0.146-1.194-0.438-1.535
			s-0.747-0.512-1.367-0.512c-0.813,0-1.407,0.243-1.785,0.73s-0.566,1.285-0.566,2.395v4.492h-1.297v-8.563h1.055l0.211,1.172
			h0.063c0.245-0.417,0.59-0.742,1.035-0.977s0.944-0.352,1.496-0.352c1.339,0,2.214,0.484,2.625,1.453h0.063
			c0.255-0.448,0.625-0.802,1.109-1.063s1.036-0.391,1.656-0.391c0.969,0,1.694,0.249,2.176,0.746s0.723,1.293,0.723,2.387v5.586
			H175.133z"/>
		<path fill="#4D4D4D" d="M179.984,186.712v-0.422c0-0.609,0.094-1.11,0.281-1.504s0.536-0.809,1.047-1.246
			c0.708-0.599,1.155-1.05,1.34-1.352s0.277-0.667,0.277-1.094c0-0.531-0.171-0.941-0.512-1.23s-0.832-0.434-1.473-0.434
			c-0.411,0-0.813,0.048-1.203,0.145s-0.839,0.272-1.344,0.527l-0.461-1.055c0.984-0.516,2.013-0.773,3.086-0.773
			c0.995,0,1.769,0.245,2.32,0.734s0.828,1.18,0.828,2.07c0,0.38-0.051,0.715-0.152,1.004s-0.251,0.563-0.449,0.82
			s-0.625,0.673-1.281,1.246c-0.526,0.448-0.874,0.82-1.043,1.117s-0.254,0.692-0.254,1.188v0.258H179.984z M179.602,189.032
			c0-0.708,0.313-1.063,0.938-1.063c0.302,0,0.535,0.091,0.699,0.273s0.246,0.445,0.246,0.789c0,0.333-0.083,0.593-0.25,0.777
			s-0.398,0.277-0.695,0.277c-0.271,0-0.495-0.082-0.672-0.246S179.602,189.407,179.602,189.032z"/>
	</g>
</g>
</svg>
