<svg version="1.1" id="Layer_1" xmlns="http://www.w3.org/2000/svg" xmlns:xlink="http://www.w3.org/1999/xlink" x="0" y="0" width="223" height="216" viewBox="0 0 223 216" enable-background="new 0 0 223 216" xml:space="preserve"><g><path fill="#547F4B" d="M106.761,57.416c-0.724-0.724-1.603-1.087-2.641-1.087H87.964V40.174c0-1.036-0.363-1.916-1.087-2.642 c-0.724-0.724-1.606-1.087-2.641-1.087h-7.455c-1.036,0-1.916,0.363-2.642,1.087c-0.724,0.726-1.087,1.606-1.087,2.642v16.155 H56.898c-1.036,0-1.916,0.363-2.642,1.087c-0.724,0.726-1.087,1.606-1.087,2.642v7.457c0,1.036,0.363,1.915,1.087,2.639 c0.726,0.726,1.606,1.087,2.642,1.087h16.155v16.158c0,1.036,0.363,1.915,1.087,2.641c0.726,0.724,1.606,1.087,2.642,1.087h7.455 c1.038,0,1.917-0.363,2.641-1.087c0.726-0.726,1.087-1.606,1.087-2.641V71.241h16.158c1.036,0,1.915-0.36,2.639-1.087 c0.726-0.724,1.089-1.603,1.089-2.639v-7.457C107.848,59.022,107.487,58.142,106.761,57.416L106.761,57.416z M106.761,57.416"/></g><g><path fill="#863D3D" d="M180.763,57.417c-0.724-0.724-1.603-1.087-2.641-1.087h-47.224c-1.036,0-1.916,0.363-2.642,1.087 c-0.724,0.726-1.087,1.606-1.087,2.642v7.457c0,1.036,0.363,1.916,1.087,2.64c0.726,0.726,1.606,1.087,2.642,1.087h47.224 c1.038,0,1.917-0.36,2.641-1.087c0.726-0.724,1.087-1.603,1.087-2.64v-7.457C181.85,59.023,181.489,58.141,180.763,57.417 L180.763,57.417z M180.763,57.417"/></g><g><g><path fill="#525252" d="M32.486,145.24l-1.242-4.078h-6.246l-1.242,4.078h-3.914l6.047-17.203h4.441l6.07,17.203H32.486z M30.377,138.115c-1.148-3.695-1.795-5.785-1.939-6.27s-0.248-0.867-0.311-1.148c-0.258,1-0.996,3.473-2.215,7.418H30.377z"/><path fill="#525252" d="M43.63,138.666v6.574h-3.633v-17.133h4.992c2.328,0,4.051,0.424,5.168,1.271s1.676,2.135,1.676,3.861 c0,1.008-0.277,1.904-0.832,2.689s-1.34,1.4-2.355,1.846c2.578,3.852,4.258,6.34,5.039,7.465h-4.031l-4.09-6.574H43.63z M43.63,135.713h1.172c1.148,0,1.996-0.191,2.543-0.574s0.82-0.984,0.82-1.805c0-0.813-0.279-1.391-0.838-1.734 s-1.424-0.516-2.596-0.516H43.63V135.713z"/><path fill="#525252" d="M63.784,135.619h6.797v8.883c-1.102,0.359-2.139,0.611-3.111,0.756s-1.967,0.217-2.982,0.217 c-2.586,0-4.561-0.76-5.924-2.279s-2.045-3.701-2.045-6.545c0-2.766,0.791-4.922,2.373-6.469s3.775-2.32,6.58-2.32 c1.758,0,3.453,0.352,5.086,1.055l-1.207,2.906c-1.25-0.625-2.551-0.938-3.902-0.938c-1.57,0-2.828,0.527-3.773,1.582 s-1.418,2.473-1.418,4.254c0,1.859,0.381,3.279,1.143,4.26s1.869,1.471,3.322,1.471c0.758,0,1.527-0.078,2.309-0.234v-3.574 h-3.246V135.619z"/><path fill="#525252" d="M90.045,128.107v11.086c0,1.266-0.283,2.375-0.85,3.328s-1.385,1.684-2.455,2.191 s-2.336,0.762-3.797,0.762c-2.203,0-3.914-0.564-5.133-1.693s-1.828-2.674-1.828-4.635v-11.039h3.621v10.488 c0,1.32,0.266,2.289,0.797,2.906s1.41,0.926,2.637,0.926c1.188,0,2.049-0.311,2.584-0.932s0.803-1.596,0.803-2.924v-10.465H90.045 z"/><path fill="#525252" d="M102.934,145.24l-4.125-13.441h-0.105c0.148,2.734,0.223,4.559,0.223,5.473v7.969H95.68v-17.133h4.945 l4.055,13.102h0.07l4.301-13.102h4.945v17.133h-3.387v-8.109c0-0.383,0.006-0.824,0.018-1.324s0.064-1.828,0.158-3.984h-0.105 l-4.418,13.418H102.934z"/><path fill="#525252" d="M129.616,145.24h-9.867v-17.133h9.867v2.977h-6.234v3.762h5.801v2.977h-5.801v4.418h6.234V145.24z"/><path fill="#525252" d="M149.829,145.24h-4.617l-7.453-12.961h-0.105c0.148,2.289,0.223,3.922,0.223,4.898v8.063h-3.246v-17.133 h4.582l7.441,12.832h0.082c-0.117-2.227-0.176-3.801-0.176-4.723v-8.109h3.27V145.24z"/><path fill="#525252" d="M162.191,145.24h-3.633v-14.109h-4.652v-3.023h12.938v3.023h-4.652V145.24z"/><path fill="#525252" d="M180.787,145.24h-9.867v-17.133h9.867v2.977h-6.234v3.762h5.801v2.977h-5.801v4.418h6.234V145.24z"/><path fill="#525252" d="M201.001,145.24h-4.617l-7.453-12.961h-0.105c0.148,2.289,0.223,3.922,0.223,4.898v8.063h-3.246v-17.133 h4.582l7.441,12.832h0.082c-0.117-2.227-0.176-3.801-0.176-4.723v-8.109h3.27V145.24z"/></g></g><g><g><path fill="#4D4D4D" d="M16.797,170.66h-1.313l-2.305-7.648c-0.109-0.339-0.231-0.766-0.367-1.281s-0.206-0.825-0.211-0.93 c-0.114,0.688-0.297,1.44-0.547,2.258L9.82,170.66H8.508l-3.039-11.422h1.406l1.805,7.055c0.25,0.989,0.433,1.886,0.547,2.688 c0.141-0.953,0.349-1.886,0.625-2.797l2.047-6.945h1.406l2.148,7.008c0.25,0.808,0.461,1.719,0.633,2.734 c0.099-0.739,0.286-1.641,0.563-2.703l1.797-7.039h1.406L16.797,170.66z"/><path fill="#4D4D4D" d="M26.711,170.66l-0.258-1.219h-0.063c-0.427,0.536-0.853,0.899-1.277,1.09s-0.954,0.285-1.59,0.285 c-0.849,0-1.515-0.219-1.996-0.656s-0.723-1.06-0.723-1.867c0-1.729,1.383-2.636,4.148-2.719l1.453-0.047v-0.531 c0-0.672-0.145-1.168-0.434-1.488s-0.751-0.48-1.387-0.48c-0.714,0-1.521,0.219-2.422,0.656l-0.398-0.992 c0.422-0.229,0.884-0.409,1.387-0.539s1.007-0.195,1.512-0.195c1.021,0,1.777,0.227,2.27,0.68s0.738,1.18,0.738,2.18v5.844H26.711 z M23.781,169.746c0.808,0,1.441-0.222,1.902-0.664s0.691-1.063,0.691-1.859v-0.773l-1.297,0.055 c-1.031,0.036-1.774,0.196-2.23,0.48s-0.684,0.726-0.684,1.324c0,0.469,0.142,0.825,0.426,1.07S23.271,169.746,23.781,169.746z"/><path fill="#4D4D4D" d="M33.109,169.746c0.229,0,0.45-0.017,0.664-0.051s0.383-0.069,0.508-0.105v0.992 c-0.141,0.067-0.348,0.124-0.621,0.168s-0.52,0.066-0.738,0.066c-1.656,0-2.484-0.872-2.484-2.617v-5.094h-1.227v-0.625 l1.227-0.539l0.547-1.828h0.75v1.984h2.484v1.008h-2.484v5.039c0,0.516,0.122,0.911,0.367,1.188S32.683,169.746,33.109,169.746z"/><path fill="#4D4D4D" d="M45.625,170.66h-6.211v-0.883l4.672-6.672h-4.383v-1.008h5.805v1.008l-4.609,6.547h4.727V170.66z"/><path fill="#4D4D4D" d="M47.523,159.777c0-0.297,0.073-0.515,0.219-0.652s0.328-0.207,0.547-0.207c0.208,0,0.388,0.07,0.539,0.211 s0.227,0.356,0.227,0.648s-0.075,0.509-0.227,0.652s-0.331,0.215-0.539,0.215c-0.219,0-0.401-0.071-0.547-0.215 S47.523,160.069,47.523,159.777z M48.93,170.66h-1.297v-8.563h1.297V170.66z"/><path fill="#4D4D4D" d="M50.641,174.504c-0.495,0-0.896-0.065-1.203-0.195v-1.055c0.359,0.104,0.714,0.156,1.063,0.156 c0.406,0,0.704-0.11,0.895-0.332s0.285-0.559,0.285-1.012v-9.969h1.297v9.875C52.977,173.66,52.198,174.504,50.641,174.504z M51.57,159.777c0-0.297,0.073-0.515,0.219-0.652s0.328-0.207,0.547-0.207c0.208,0,0.388,0.07,0.539,0.211 s0.227,0.356,0.227,0.648s-0.075,0.509-0.227,0.652s-0.331,0.215-0.539,0.215c-0.219,0-0.401-0.071-0.547-0.215 S51.57,160.069,51.57,159.777z"/><path fill="#4D4D4D" d="M61.586,170.66v-5.539c0-0.698-0.159-1.219-0.477-1.563s-0.815-0.516-1.492-0.516 c-0.896,0-1.552,0.242-1.969,0.727s-0.625,1.284-0.625,2.398v4.492h-1.297v-8.563h1.055l0.211,1.172h0.063 c0.266-0.422,0.638-0.749,1.117-0.98s1.013-0.348,1.602-0.348c1.031,0,1.808,0.249,2.328,0.746s0.781,1.293,0.781,2.387v5.586 H61.586z"/><path fill="#4D4D4D" d="M75.531,169.512h-0.07c-0.599,0.87-1.495,1.305-2.688,1.305c-1.12,0-1.991-0.383-2.613-1.148 s-0.934-1.854-0.934-3.266s0.313-2.508,0.938-3.289s1.495-1.172,2.609-1.172c1.161,0,2.052,0.422,2.672,1.266h0.102l-0.055-0.617 l-0.031-0.602v-3.484h1.297v12.156h-1.055L75.531,169.512z M72.938,169.73c0.886,0,1.527-0.241,1.926-0.723 s0.598-1.259,0.598-2.332v-0.273c0-1.214-0.202-2.079-0.605-2.598s-1.048-0.777-1.934-0.777c-0.761,0-1.343,0.296-1.746,0.887 s-0.605,1.426-0.605,2.504c0,1.094,0.2,1.919,0.602,2.477S72.161,169.73,72.938,169.73z"/><path fill="#4D4D4D" d="M83.125,170.816c-1.266,0-2.265-0.386-2.996-1.156s-1.098-1.841-1.098-3.211c0-1.38,0.34-2.477,1.02-3.289 s1.593-1.219,2.738-1.219c1.073,0,1.922,0.353,2.547,1.059s0.938,1.637,0.938,2.793v0.82h-5.898 c0.026,1.005,0.28,1.769,0.762,2.289s1.16,0.781,2.035,0.781c0.922,0,1.833-0.192,2.734-0.578v1.156 c-0.458,0.198-0.892,0.34-1.301,0.426S83.703,170.816,83.125,170.816z M82.773,163.027c-0.688,0-1.235,0.224-1.645,0.672 s-0.649,1.067-0.723,1.859h4.477c0-0.817-0.183-1.444-0.547-1.879S83.45,163.027,82.773,163.027z"/><path fill="#4D4D4D" d="M94.516,170.66l-3.25-8.563h1.391l1.844,5.078c0.417,1.188,0.661,1.958,0.734,2.313h0.063 c0.058-0.276,0.238-0.848,0.543-1.715s0.988-2.759,2.051-5.676h1.391l-3.25,8.563H94.516z"/><path fill="#4D4D4D" d="M108.047,166.371c0,1.396-0.352,2.485-1.055,3.27s-1.675,1.176-2.914,1.176 c-0.766,0-1.445-0.18-2.039-0.539s-1.052-0.875-1.375-1.547s-0.484-1.458-0.484-2.359c0-1.396,0.349-2.483,1.047-3.262 s1.667-1.168,2.906-1.168c1.198,0,2.149,0.398,2.855,1.195S108.047,165.012,108.047,166.371z M101.523,166.371 c0,1.094,0.219,1.927,0.656,2.5s1.081,0.859,1.93,0.859s1.493-0.285,1.934-0.855s0.66-1.405,0.66-2.504 c0-1.089-0.22-1.915-0.66-2.48s-1.09-0.848-1.949-0.848c-0.849,0-1.489,0.278-1.922,0.836S101.523,165.267,101.523,166.371z"/><path fill="#4D4D4D" d="M117.711,166.371c0,1.396-0.352,2.485-1.055,3.27s-1.675,1.176-2.914,1.176 c-0.766,0-1.445-0.18-2.039-0.539s-1.052-0.875-1.375-1.547s-0.484-1.458-0.484-2.359c0-1.396,0.349-2.483,1.047-3.262 s1.667-1.168,2.906-1.168c1.198,0,2.149,0.398,2.855,1.195S117.711,165.012,117.711,166.371z M111.188,166.371 c0,1.094,0.219,1.927,0.656,2.5s1.081,0.859,1.93,0.859s1.493-0.285,1.934-0.855s0.66-1.405,0.66-2.504 c0-1.089-0.22-1.915-0.66-2.48s-1.09-0.848-1.949-0.848c-0.849,0-1.489,0.278-1.922,0.836S111.188,165.267,111.188,166.371z"/><path fill="#4D4D4D" d="M123.891,161.941c0.38,0,0.722,0.031,1.023,0.094l-0.18,1.203c-0.354-0.078-0.667-0.117-0.938-0.117 c-0.692,0-1.285,0.281-1.777,0.844s-0.738,1.263-0.738,2.102v4.594h-1.297v-8.563h1.07l0.148,1.586h0.063 c0.317-0.558,0.7-0.987,1.148-1.289S123.354,161.941,123.891,161.941z"/><path fill="#4D4D4D" d="M125.797,166.965v-1.188h3.836v1.188H125.797z"/><path fill="#4D4D4D" d="M139.438,170.816c-1.266,0-2.265-0.386-2.996-1.156s-1.098-1.841-1.098-3.211 c0-1.38,0.34-2.477,1.02-3.289s1.593-1.219,2.738-1.219c1.073,0,1.922,0.353,2.547,1.059s0.938,1.637,0.938,2.793v0.82h-5.898 c0.026,1.005,0.28,1.769,0.762,2.289s1.16,0.781,2.035,0.781c0.922,0,1.833-0.192,2.734-0.578v1.156 c-0.458,0.198-0.892,0.34-1.301,0.426S140.016,170.816,139.438,170.816z M139.086,163.027c-0.688,0-1.235,0.224-1.645,0.672 s-0.649,1.067-0.723,1.859h4.477c0-0.817-0.183-1.444-0.547-1.879S139.763,163.027,139.086,163.027z"/><path fill="#4D4D4D" d="M150.656,170.66v-5.539c0-0.698-0.159-1.219-0.477-1.563s-0.815-0.516-1.492-0.516 c-0.896,0-1.552,0.242-1.969,0.727s-0.625,1.284-0.625,2.398v4.492h-1.297v-8.563h1.055l0.211,1.172h0.063 c0.266-0.422,0.638-0.749,1.117-0.98s1.013-0.348,1.602-0.348c1.031,0,1.808,0.249,2.328,0.746s0.781,1.293,0.781,2.387v5.586 H150.656z"/><path fill="#4D4D4D" d="M164.633,170.66v-5.539c0-0.698-0.159-1.219-0.477-1.563s-0.815-0.516-1.492-0.516 c-0.896,0-1.552,0.242-1.969,0.727s-0.625,1.284-0.625,2.398v4.492h-1.297v-8.563h1.055l0.211,1.172h0.063 c0.266-0.422,0.638-0.749,1.117-0.98s1.013-0.348,1.602-0.348c1.031,0,1.808,0.249,2.328,0.746s0.781,1.293,0.781,2.387v5.586 H164.633z"/><path fill="#4D4D4D" d="M173.859,170.66l-0.258-1.219h-0.063c-0.427,0.536-0.853,0.899-1.277,1.09s-0.954,0.285-1.59,0.285 c-0.849,0-1.515-0.219-1.996-0.656s-0.723-1.06-0.723-1.867c0-1.729,1.383-2.636,4.148-2.719l1.453-0.047v-0.531 c0-0.672-0.145-1.168-0.434-1.488s-0.751-0.48-1.387-0.48c-0.714,0-1.521,0.219-2.422,0.656l-0.398-0.992 c0.422-0.229,0.884-0.409,1.387-0.539s1.007-0.195,1.512-0.195c1.021,0,1.777,0.227,2.27,0.68s0.738,1.18,0.738,2.18v5.844 H173.859z M170.93,169.746c0.808,0,1.441-0.222,1.902-0.664s0.691-1.063,0.691-1.859v-0.773l-1.297,0.055 c-1.031,0.036-1.774,0.196-2.23,0.48s-0.684,0.726-0.684,1.324c0,0.469,0.142,0.825,0.426,1.07S170.419,169.746,170.93,169.746z"/><path fill="#4D4D4D" d="M183.32,169.512h-0.07c-0.599,0.87-1.495,1.305-2.688,1.305c-1.12,0-1.991-0.383-2.613-1.148 s-0.934-1.854-0.934-3.266s0.313-2.508,0.938-3.289s1.495-1.172,2.609-1.172c1.161,0,2.052,0.422,2.672,1.266h0.102l-0.055-0.617 l-0.031-0.602v-3.484h1.297v12.156h-1.055L183.32,169.512z M180.727,169.73c0.886,0,1.527-0.241,1.926-0.723 s0.598-1.259,0.598-2.332v-0.273c0-1.214-0.202-2.079-0.605-2.598s-1.048-0.777-1.934-0.777c-0.761,0-1.343,0.296-1.746,0.887 s-0.605,1.426-0.605,2.504c0,1.094,0.2,1.919,0.602,2.477S179.95,169.73,180.727,169.73z"/><path fill="#4D4D4D" d="M190.914,170.816c-1.266,0-2.265-0.386-2.996-1.156s-1.098-1.841-1.098-3.211 c0-1.38,0.34-2.477,1.02-3.289s1.593-1.219,2.738-1.219c1.073,0,1.922,0.353,2.547,1.059s0.938,1.637,0.938,2.793v0.82h-5.898 c0.026,1.005,0.28,1.769,0.762,2.289s1.16,0.781,2.035,0.781c0.922,0,1.833-0.192,2.734-0.578v1.156 c-0.458,0.198-0.892,0.34-1.301,0.426S191.492,170.816,190.914,170.816z M190.563,163.027c-0.688,0-1.235,0.224-1.645,0.672 s-0.649,1.067-0.723,1.859h4.477c0-0.817-0.183-1.444-0.547-1.879S191.239,163.027,190.563,163.027z"/><path fill="#4D4D4D" d="M197.57,170.66h-1.297v-12.156h1.297V170.66z"/><path fill="#4D4D4D" d="M203.938,170.816c-1.266,0-2.265-0.386-2.996-1.156s-1.098-1.841-1.098-3.211 c0-1.38,0.34-2.477,1.02-3.289s1.593-1.219,2.738-1.219c1.073,0,1.922,0.353,2.547,1.059s0.938,1.637,0.938,2.793v0.82h-5.898 c0.026,1.005,0.28,1.769,0.762,2.289s1.16,0.781,2.035,0.781c0.922,0,1.833-0.192,2.734-0.578v1.156 c-0.458,0.198-0.892,0.34-1.301,0.426S204.516,170.816,203.938,170.816z M203.586,163.027c-0.688,0-1.235,0.224-1.645,0.672 s-0.649,1.067-0.723,1.859h4.477c0-0.817-0.183-1.444-0.547-1.879S204.263,163.027,203.586,163.027z"/><path fill="#4D4D4D" d="M215.156,170.66v-5.539c0-0.698-0.159-1.219-0.477-1.563s-0.815-0.516-1.492-0.516 c-0.896,0-1.552,0.242-1.969,0.727s-0.625,1.284-0.625,2.398v4.492h-1.297v-8.563h1.055l0.211,1.172h0.063 c0.266-0.422,0.638-0.749,1.117-0.98s1.013-0.348,1.602-0.348c1.031,0,1.808,0.249,2.328,0.746s0.781,1.293,0.781,2.387v5.586 H215.156z"/><path fill="#4D4D4D" d="M65.668,189.86l-3.25-8.563h1.391l1.844,5.078c0.417,1.188,0.661,1.958,0.734,2.313h0.063 c0.058-0.276,0.238-0.848,0.543-1.715s0.988-2.759,2.051-5.676h1.391l-3.25,8.563H65.668z"/><path fill="#4D4D4D" d="M77.074,189.86l-0.258-1.219h-0.063c-0.427,0.536-0.853,0.899-1.277,1.09s-0.954,0.285-1.59,0.285 c-0.849,0-1.515-0.219-1.996-0.656s-0.723-1.06-0.723-1.867c0-1.729,1.383-2.636,4.148-2.719l1.453-0.047v-0.531 c0-0.672-0.145-1.168-0.434-1.488s-0.751-0.48-1.387-0.48c-0.714,0-1.521,0.219-2.422,0.656l-0.398-0.992 c0.422-0.229,0.884-0.409,1.387-0.539s1.007-0.195,1.512-0.195c1.021,0,1.777,0.227,2.27,0.68s0.738,1.18,0.738,2.18v5.844H77.074 z M74.145,188.946c0.808,0,1.441-0.222,1.902-0.664s0.691-1.063,0.691-1.859v-0.773l-1.297,0.055 c-1.031,0.036-1.774,0.196-2.23,0.48s-0.684,0.726-0.684,1.324c0,0.469,0.142,0.825,0.426,1.07S73.634,188.946,74.145,188.946z"/><path fill="#4D4D4D" d="M86.566,189.86v-5.539c0-0.698-0.159-1.219-0.477-1.563s-0.815-0.516-1.492-0.516 c-0.896,0-1.552,0.242-1.969,0.727s-0.625,1.284-0.625,2.398v4.492h-1.297v-8.563h1.055l0.211,1.172h0.063 c0.266-0.422,0.638-0.749,1.117-0.98s1.013-0.348,1.602-0.348c1.031,0,1.808,0.249,2.328,0.746s0.781,1.293,0.781,2.387v5.586 H86.566z"/><path fill="#4D4D4D" d="M100.543,189.86v-5.539c0-0.698-0.159-1.219-0.477-1.563s-0.815-0.516-1.492-0.516 c-0.901,0-1.559,0.245-1.973,0.734s-0.621,1.292-0.621,2.406v4.477h-1.297v-12.156h1.297v3.68c0,0.442-0.021,0.81-0.063,1.102 h0.078c0.255-0.411,0.618-0.735,1.09-0.973s1.009-0.355,1.613-0.355c1.047,0,1.832,0.249,2.355,0.746s0.785,1.288,0.785,2.371 v5.586H100.543z"/><path fill="#4D4D4D" d="M108.121,190.017c-1.266,0-2.265-0.386-2.996-1.156s-1.098-1.841-1.098-3.211 c0-1.38,0.34-2.477,1.02-3.289s1.593-1.219,2.738-1.219c1.073,0,1.922,0.353,2.547,1.059s0.938,1.637,0.938,2.793v0.82h-5.898 c0.026,1.005,0.28,1.769,0.762,2.289s1.16,0.781,2.035,0.781c0.922,0,1.833-0.192,2.734-0.578v1.156 c-0.458,0.198-0.892,0.34-1.301,0.426S108.699,190.017,108.121,190.017z M107.77,182.228c-0.688,0-1.235,0.224-1.645,0.672 s-0.649,1.067-0.723,1.859h4.477c0-0.817-0.183-1.444-0.547-1.879S108.446,182.228,107.77,182.228z"/><path fill="#4D4D4D" d="M116.246,188.946c0.229,0,0.45-0.017,0.664-0.051s0.383-0.069,0.508-0.105v0.992 c-0.141,0.067-0.348,0.124-0.621,0.168s-0.52,0.066-0.738,0.066c-1.656,0-2.484-0.872-2.484-2.617v-5.094h-1.227v-0.625 l1.227-0.539l0.547-1.828h0.75v1.984h2.484v1.008h-2.484v5.039c0,0.516,0.122,0.911,0.367,1.188S115.819,188.946,116.246,188.946z"/><path fill="#4D4D4D" d="M123.176,178.978c0-0.297,0.073-0.515,0.219-0.652s0.328-0.207,0.547-0.207 c0.208,0,0.388,0.07,0.539,0.211s0.227,0.356,0.227,0.648s-0.075,0.509-0.227,0.652s-0.331,0.215-0.539,0.215 c-0.219,0-0.401-0.071-0.547-0.215S123.176,179.27,123.176,178.978z M124.582,189.86h-1.297v-8.563h1.297V189.86z"/><path fill="#4D4D4D" d="M133.16,188.712h-0.07c-0.599,0.87-1.495,1.305-2.688,1.305c-1.12,0-1.991-0.383-2.613-1.148 s-0.934-1.854-0.934-3.266s0.313-2.508,0.938-3.289s1.495-1.172,2.609-1.172c1.161,0,2.052,0.422,2.672,1.266h0.102l-0.055-0.617 l-0.031-0.602v-3.484h1.297v12.156h-1.055L133.16,188.712z M130.566,188.931c0.886,0,1.527-0.241,1.926-0.723 s0.598-1.259,0.598-2.332v-0.273c0-1.214-0.202-2.079-0.605-2.598s-1.048-0.777-1.934-0.777c-0.761,0-1.343,0.296-1.746,0.887 s-0.605,1.426-0.605,2.504c0,1.094,0.2,1.919,0.602,2.477S129.79,188.931,130.566,188.931z"/><path fill="#4D4D4D" d="M140.754,190.017c-1.266,0-2.265-0.386-2.996-1.156s-1.098-1.841-1.098-3.211 c0-1.38,0.34-2.477,1.02-3.289s1.593-1.219,2.738-1.219c1.073,0,1.922,0.353,2.547,1.059s0.938,1.637,0.938,2.793v0.82h-5.898 c0.026,1.005,0.28,1.769,0.762,2.289s1.16,0.781,2.035,0.781c0.922,0,1.833-0.192,2.734-0.578v1.156 c-0.458,0.198-0.892,0.34-1.301,0.426S141.332,190.017,140.754,190.017z M140.402,182.228c-0.688,0-1.235,0.224-1.645,0.672 s-0.649,1.067-0.723,1.859h4.477c0-0.817-0.183-1.444-0.547-1.879S141.079,182.228,140.402,182.228z"/><path fill="#4D4D4D" d="M149.73,190.017c-1.266,0-2.265-0.386-2.996-1.156s-1.098-1.841-1.098-3.211c0-1.38,0.34-2.477,1.02-3.289 s1.593-1.219,2.738-1.219c1.073,0,1.922,0.353,2.547,1.059s0.938,1.637,0.938,2.793v0.82h-5.898 c0.026,1.005,0.28,1.769,0.762,2.289s1.16,0.781,2.035,0.781c0.922,0,1.833-0.192,2.734-0.578v1.156 c-0.458,0.198-0.892,0.34-1.301,0.426S150.309,190.017,149.73,190.017z M149.379,182.228c-0.688,0-1.235,0.224-1.645,0.672 s-0.649,1.067-0.723,1.859h4.477c0-0.817-0.183-1.444-0.547-1.879S150.056,182.228,149.379,182.228z"/><path fill="#4D4D4D" d="M155.973,186.712v-0.422c0-0.609,0.094-1.11,0.281-1.504s0.536-0.809,1.047-1.246 c0.708-0.599,1.155-1.05,1.34-1.352s0.277-0.667,0.277-1.094c0-0.531-0.171-0.941-0.512-1.23s-0.832-0.434-1.473-0.434 c-0.411,0-0.813,0.048-1.203,0.145s-0.839,0.272-1.344,0.527l-0.461-1.055c0.984-0.516,2.013-0.773,3.086-0.773 c0.995,0,1.769,0.245,2.32,0.734s0.828,1.18,0.828,2.07c0,0.38-0.051,0.715-0.152,1.004s-0.251,0.563-0.449,0.82 s-0.625,0.673-1.281,1.246c-0.526,0.448-0.874,0.82-1.043,1.117s-0.254,0.692-0.254,1.188v0.258H155.973z M155.59,189.032 c0-0.708,0.313-1.063,0.938-1.063c0.302,0,0.535,0.091,0.699,0.273s0.246,0.445,0.246,0.789c0,0.333-0.083,0.593-0.25,0.777 s-0.398,0.277-0.695,0.277c-0.271,0-0.495-0.082-0.672-0.246S155.59,189.407,155.59,189.032z"/></g></g></svg>