<?xml version="1.0" encoding="utf-8"?>
<!-- Generator: Adobe Illustrator 17.0.0, SVG Export Plug-In . SVG Version: 6.00 Build 0)  -->
<!DOCTYPE svg PUBLIC "-//W3C//DTD SVG 1.1//EN" "http://www.w3.org/Graphics/SVG/1.1/DTD/svg11.dtd">
<svg version="1.1" id="Layer_1" xmlns="http://www.w3.org/2000/svg" xmlns:xlink="http://www.w3.org/1999/xlink" x="0px" y="0px"
	 width="223px" height="216px" viewBox="0 0 223 216" enable-background="new 0 0 223 216" xml:space="preserve">
<g>
	<g>
		<defs>
			<rect id="SVGID_1_" x="80.891" y="18.5" width="60.96" height="84"/>
		</defs>
		<clipPath id="SVGID_2_">
			<use xlink:href="#SVGID_1_"  overflow="visible"/>
		</clipPath>
		<path clip-path="url(#SVGID_2_)" fill="#525252" d="M117.918,81.07h-15.644c-0.695,0-1.301,0.262-1.824,0.781
			c-0.52,0.524-0.782,1.129-0.782,1.825V99.32c0,0.695,0.262,1.305,0.782,1.824c0.523,0.52,1.129,0.782,1.824,0.782h15.644
			c0.696,0,1.305-0.258,1.825-0.782c0.523-0.519,0.781-1.129,0.781-1.824V83.676c0-0.696-0.258-1.301-0.781-1.825
			C119.223,81.328,118.614,81.07,117.918,81.07L117.918,81.07z M117.918,81.07"/>
		<path clip-path="url(#SVGID_2_)" fill="#525252" d="M138.45,34.242c-1.782-3.285-4.082-6.051-6.911-8.313
			c-2.824-2.257-5.996-4.062-9.515-5.41c-3.52-1.347-7.016-2.019-10.492-2.019c-13.211,0-23.289,5.777-30.243,17.336
			c-0.347,0.566-0.468,1.176-0.359,1.828c0.109,0.648,0.445,1.191,1.012,1.629l10.687,8.144c0.567,0.348,1.11,0.524,1.629,0.524
			c0.785,0,1.457-0.348,2.024-1.043c3.125-3.91,5.453-6.41,6.972-7.496c1.867-1.262,4.215-1.891,7.039-1.891
			c2.649,0,4.985,0.695,7.008,2.086c2.02,1.391,3.028,2.996,3.028,4.824c0,2.039-0.543,3.692-1.629,4.953
			c-1.086,1.258-2.911,2.477-5.477,3.649c-3.387,1.519-6.496,3.879-9.316,7.07c-2.828,3.195-4.239,6.594-4.239,10.203v2.934
			c0,0.824,0.227,1.64,0.684,2.441c0.457,0.805,1.012,1.207,1.664,1.207h15.641c0.695,0,1.304-0.336,1.824-1.011
			c0.523-0.672,0.785-1.379,0.785-2.118c0-1.082,0.598-2.539,1.789-4.367c1.195-1.824,2.684-3.234,4.465-4.234
			c1.695-0.957,3.019-1.727,3.976-2.317c0.957-0.586,2.207-1.531,3.75-2.832c1.54-1.304,2.735-2.597,3.583-3.879
			c0.847-1.281,1.609-2.945,2.281-4.988c0.676-2.043,1.011-4.238,1.011-6.582C141.121,40.965,140.231,37.519,138.45,34.242
			L138.45,34.242z M138.45,34.242"/>
	</g>
</g>
<g>
	<rect x="21.121" y="127" fill="none" width="180.5" height="31.5"/>
	<path fill="#525252" d="M45.975,128.107h3.668l-5.824,17.133h-3.961l-5.813-17.133h3.668l3.223,10.195
		c0.18,0.602,0.365,1.303,0.557,2.104s0.311,1.357,0.357,1.67c0.086-0.719,0.379-1.977,0.879-3.773L45.975,128.107z"/>
	<path fill="#525252" d="M56.872,138.666v6.574h-3.633v-17.133h4.992c2.328,0,4.051,0.424,5.168,1.271s1.676,2.135,1.676,3.861
		c0,1.008-0.277,1.904-0.832,2.689s-1.34,1.4-2.355,1.846c2.578,3.852,4.258,6.34,5.039,7.465h-4.031l-4.09-6.574H56.872z
		 M56.872,135.713h1.172c1.148,0,1.996-0.191,2.543-0.574s0.82-0.984,0.82-1.805c0-0.813-0.279-1.391-0.838-1.734
		s-1.424-0.516-2.596-0.516h-1.102V135.713z"/>
	<path fill="#525252" d="M81.011,145.24l-1.242-4.078h-6.246l-1.242,4.078h-3.914l6.047-17.203h4.441l6.07,17.203H81.011z
		 M78.901,138.115c-1.148-3.695-1.795-5.785-1.939-6.27s-0.248-0.867-0.311-1.148c-0.258,1-0.996,3.473-2.215,7.418H78.901z"/>
	<path fill="#525252" d="M99.01,145.24l-1.242-4.078h-6.246l-1.242,4.078h-3.914l6.047-17.203h4.441l6.07,17.203H99.01z
		 M96.9,138.115c-1.148-3.695-1.795-5.785-1.939-6.27s-0.248-0.867-0.311-1.148c-0.258,1-0.996,3.473-2.215,7.418H96.9z"/>
	<path fill="#525252" d="M113.023,135.619h6.797v8.883c-1.102,0.359-2.139,0.611-3.111,0.756s-1.967,0.217-2.982,0.217
		c-2.586,0-4.561-0.76-5.924-2.279s-2.045-3.701-2.045-6.545c0-2.766,0.791-4.922,2.373-6.469s3.775-2.32,6.58-2.32
		c1.758,0,3.453,0.352,5.086,1.055l-1.207,2.906c-1.25-0.625-2.551-0.938-3.902-0.938c-1.57,0-2.828,0.527-3.773,1.582
		s-1.418,2.473-1.418,4.254c0,1.859,0.381,3.279,1.143,4.26s1.869,1.471,3.322,1.471c0.758,0,1.527-0.078,2.309-0.234v-3.574h-3.246
		V135.619z"/>
	<path fill="#525252" d="M135.452,140.482c0,1.547-0.557,2.766-1.67,3.656s-2.662,1.336-4.646,1.336
		c-1.828,0-3.445-0.344-4.852-1.031v-3.375c1.156,0.516,2.135,0.879,2.936,1.09s1.533,0.316,2.197,0.316
		c0.797,0,1.408-0.152,1.834-0.457s0.639-0.758,0.639-1.359c0-0.336-0.094-0.635-0.281-0.896s-0.463-0.514-0.826-0.756
		s-1.104-0.629-2.221-1.16c-1.047-0.492-1.832-0.965-2.355-1.418s-0.941-0.98-1.254-1.582s-0.469-1.305-0.469-2.109
		c0-1.516,0.514-2.707,1.541-3.574s2.447-1.301,4.26-1.301c0.891,0,1.74,0.105,2.549,0.316s1.654,0.508,2.537,0.891l-1.172,2.824
		c-0.914-0.375-1.67-0.637-2.268-0.785s-1.186-0.223-1.764-0.223c-0.688,0-1.215,0.16-1.582,0.48s-0.551,0.738-0.551,1.254
		c0,0.32,0.074,0.6,0.223,0.838s0.385,0.469,0.709,0.691s1.092,0.623,2.303,1.201c1.602,0.766,2.699,1.533,3.293,2.303
		S135.452,139.365,135.452,140.482z"/>
	<path fill="#525252" d="M146.606,145.24h-3.633v-14.109h-4.652v-3.023h12.938v3.023h-4.652V145.24z"/>
	<path fill="#525252" d="M169.281,128.107v11.086c0,1.266-0.283,2.375-0.85,3.328s-1.385,1.684-2.455,2.191
		s-2.336,0.762-3.797,0.762c-2.203,0-3.914-0.564-5.133-1.693s-1.828-2.674-1.828-4.635v-11.039h3.621v10.488
		c0,1.32,0.266,2.289,0.797,2.906s1.41,0.926,2.637,0.926c1.188,0,2.049-0.311,2.584-0.932s0.803-1.596,0.803-2.924v-10.465H169.281
		z"/>
	<path fill="#525252" d="M188.697,145.24h-4.125l-4.488-7.219l-1.535,1.102v6.117h-3.633v-17.133h3.633v7.84l1.43-2.016l4.641-5.824
		h4.031l-5.977,7.582L188.697,145.24z"/>
</g>
<g>
	<g>
		<path fill="#4D4D4D" d="M33.336,170.66h-1.313l-2.305-7.648c-0.109-0.339-0.231-0.766-0.367-1.281s-0.206-0.825-0.211-0.93
			c-0.114,0.688-0.297,1.44-0.547,2.258l-2.234,7.602h-1.313l-3.039-11.422h1.406l1.805,7.055c0.25,0.989,0.433,1.886,0.547,2.688
			c0.141-0.953,0.349-1.886,0.625-2.797l2.047-6.945h1.406l2.148,7.008c0.25,0.808,0.461,1.719,0.633,2.734
			c0.099-0.739,0.286-1.641,0.563-2.703l1.797-7.039h1.406L33.336,170.66z"/>
		<path fill="#4D4D4D" d="M43.25,170.66l-0.258-1.219H42.93c-0.427,0.536-0.853,0.899-1.277,1.09s-0.954,0.285-1.59,0.285
			c-0.849,0-1.515-0.219-1.996-0.656s-0.723-1.06-0.723-1.867c0-1.729,1.383-2.636,4.148-2.719l1.453-0.047v-0.531
			c0-0.672-0.145-1.168-0.434-1.488s-0.751-0.48-1.387-0.48c-0.714,0-1.521,0.219-2.422,0.656l-0.398-0.992
			c0.422-0.229,0.884-0.409,1.387-0.539s1.007-0.195,1.512-0.195c1.021,0,1.777,0.227,2.27,0.68s0.738,1.18,0.738,2.18v5.844H43.25z
			 M40.32,169.746c0.808,0,1.441-0.222,1.902-0.664s0.691-1.063,0.691-1.859v-0.773l-1.297,0.055
			c-1.031,0.036-1.774,0.196-2.23,0.48s-0.684,0.726-0.684,1.324c0,0.469,0.142,0.825,0.426,1.07S39.81,169.746,40.32,169.746z"/>
		<path fill="#4D4D4D" d="M49.648,169.746c0.229,0,0.45-0.017,0.664-0.051s0.383-0.069,0.508-0.105v0.992
			c-0.141,0.067-0.348,0.124-0.621,0.168s-0.52,0.066-0.738,0.066c-1.656,0-2.484-0.872-2.484-2.617v-5.094H45.75v-0.625
			l1.227-0.539l0.547-1.828h0.75v1.984h2.484v1.008h-2.484v5.039c0,0.516,0.122,0.911,0.367,1.188S49.222,169.746,49.648,169.746z"
			/>
		<path fill="#4D4D4D" d="M56.578,159.777c0-0.297,0.073-0.515,0.219-0.652s0.328-0.207,0.547-0.207c0.208,0,0.388,0.07,0.539,0.211
			s0.227,0.356,0.227,0.648s-0.075,0.509-0.227,0.652s-0.331,0.215-0.539,0.215c-0.219,0-0.401-0.071-0.547-0.215
			S56.578,160.069,56.578,159.777z M57.984,170.66h-1.297v-8.563h1.297V170.66z"/>
		<path fill="#4D4D4D" d="M66.258,168.324c0,0.797-0.297,1.411-0.891,1.844s-1.427,0.648-2.5,0.648c-1.136,0-2.021-0.18-2.656-0.539
			v-1.203c0.411,0.208,0.853,0.372,1.324,0.492s0.926,0.18,1.363,0.18c0.677,0,1.198-0.108,1.563-0.324s0.547-0.546,0.547-0.988
			c0-0.333-0.145-0.618-0.434-0.855s-0.853-0.517-1.691-0.84c-0.797-0.297-1.363-0.556-1.699-0.777s-0.586-0.473-0.75-0.754
			s-0.246-0.617-0.246-1.008c0-0.698,0.284-1.249,0.852-1.652s1.347-0.605,2.336-0.605c0.922,0,1.823,0.188,2.703,0.563
			l-0.461,1.055c-0.859-0.354-1.638-0.531-2.336-0.531c-0.614,0-1.078,0.097-1.391,0.289s-0.469,0.458-0.469,0.797
			c0,0.229,0.059,0.425,0.176,0.586s0.306,0.315,0.566,0.461s0.761,0.356,1.5,0.633c1.016,0.37,1.702,0.742,2.059,1.117
			S66.258,167.757,66.258,168.324z"/>
		<path fill="#4D4D4D" d="M78.383,170.66v-5.539c0-0.698-0.159-1.219-0.477-1.563s-0.815-0.516-1.492-0.516
			c-0.901,0-1.559,0.245-1.973,0.734s-0.621,1.292-0.621,2.406v4.477h-1.297v-12.156h1.297v3.68c0,0.442-0.021,0.81-0.063,1.102
			h0.078c0.255-0.411,0.618-0.735,1.09-0.973s1.009-0.355,1.613-0.355c1.047,0,1.832,0.249,2.355,0.746s0.785,1.288,0.785,2.371
			v5.586H78.383z"/>
		<path fill="#4D4D4D" d="M85.961,170.816c-1.266,0-2.265-0.386-2.996-1.156s-1.098-1.841-1.098-3.211c0-1.38,0.34-2.477,1.02-3.289
			s1.593-1.219,2.738-1.219c1.073,0,1.922,0.353,2.547,1.059s0.938,1.637,0.938,2.793v0.82h-5.898
			c0.026,1.005,0.28,1.769,0.762,2.289s1.16,0.781,2.035,0.781c0.922,0,1.833-0.192,2.734-0.578v1.156
			c-0.458,0.198-0.892,0.34-1.301,0.426S86.539,170.816,85.961,170.816z M85.609,163.027c-0.688,0-1.235,0.224-1.645,0.672
			s-0.649,1.067-0.723,1.859h4.477c0-0.817-0.183-1.444-0.547-1.879S86.286,163.027,85.609,163.027z"/>
		<path fill="#4D4D4D" d="M94.086,169.746c0.229,0,0.45-0.017,0.664-0.051s0.383-0.069,0.508-0.105v0.992
			c-0.141,0.067-0.348,0.124-0.621,0.168s-0.52,0.066-0.738,0.066c-1.656,0-2.484-0.872-2.484-2.617v-5.094h-1.227v-0.625
			l1.227-0.539l0.547-1.828h0.75v1.984h2.484v1.008h-2.484v5.039c0,0.516,0.122,0.911,0.367,1.188S93.659,169.746,94.086,169.746z"
			/>
		<path fill="#4D4D4D" d="M105.109,170.816c-0.558,0-1.066-0.103-1.527-0.309s-0.848-0.522-1.16-0.949h-0.094
			c0.063,0.5,0.094,0.974,0.094,1.422v3.523h-1.297v-12.406h1.055l0.18,1.172h0.063c0.333-0.469,0.722-0.808,1.164-1.016
			s0.95-0.313,1.523-0.313c1.136,0,2.012,0.388,2.629,1.164s0.926,1.864,0.926,3.266c0,1.406-0.313,2.499-0.941,3.277
			S106.224,170.816,105.109,170.816z M104.922,163.043c-0.875,0-1.508,0.242-1.898,0.727s-0.591,1.255-0.602,2.313v0.289
			c0,1.203,0.2,2.063,0.602,2.582s1.044,0.777,1.93,0.777c0.739,0,1.319-0.3,1.738-0.898s0.629-1.425,0.629-2.477
			c0-1.067-0.21-1.887-0.629-2.457S105.683,163.043,104.922,163.043z"/>
		<path fill="#4D4D4D" d="M114.836,161.941c0.38,0,0.722,0.031,1.023,0.094l-0.18,1.203c-0.354-0.078-0.667-0.117-0.938-0.117
			c-0.692,0-1.285,0.281-1.777,0.844s-0.738,1.263-0.738,2.102v4.594h-1.297v-8.563H112l0.148,1.586h0.063
			c0.317-0.558,0.7-0.987,1.148-1.289S114.3,161.941,114.836,161.941z"/>
		<path fill="#4D4D4D" d="M124.852,166.371c0,1.396-0.352,2.485-1.055,3.27s-1.675,1.176-2.914,1.176
			c-0.766,0-1.445-0.18-2.039-0.539s-1.052-0.875-1.375-1.547s-0.484-1.458-0.484-2.359c0-1.396,0.349-2.483,1.047-3.262
			s1.667-1.168,2.906-1.168c1.198,0,2.149,0.398,2.855,1.195S124.852,165.012,124.852,166.371z M118.328,166.371
			c0,1.094,0.219,1.927,0.656,2.5s1.081,0.859,1.93,0.859s1.493-0.285,1.934-0.855s0.66-1.405,0.66-2.504
			c0-1.089-0.22-1.915-0.66-2.48s-1.09-0.848-1.949-0.848c-0.849,0-1.489,0.278-1.922,0.836S118.328,165.267,118.328,166.371z"/>
		<path fill="#4D4D4D" d="M131.109,161.957c1.125,0,1.999,0.384,2.621,1.152s0.934,1.855,0.934,3.262s-0.313,2.499-0.941,3.277
			s-1.499,1.168-2.613,1.168c-0.558,0-1.066-0.103-1.527-0.309s-0.848-0.522-1.16-0.949h-0.094l-0.273,1.102h-0.93v-12.156h1.297
			v2.953c0,0.661-0.021,1.255-0.063,1.781h0.063C129.026,162.384,129.922,161.957,131.109,161.957z M130.922,163.043
			c-0.886,0-1.523,0.254-1.914,0.762s-0.586,1.363-0.586,2.566s0.2,2.063,0.602,2.582s1.044,0.777,1.93,0.777
			c0.797,0,1.391-0.29,1.781-0.871s0.586-1.415,0.586-2.504c0-1.114-0.195-1.945-0.586-2.492S131.739,163.043,130.922,163.043z"/>
		<path fill="#4D4D4D" d="M138.227,170.66h-1.297v-12.156h1.297V170.66z"/>
		<path fill="#4D4D4D" d="M144.594,170.816c-1.266,0-2.265-0.386-2.996-1.156s-1.098-1.841-1.098-3.211
			c0-1.38,0.34-2.477,1.02-3.289s1.593-1.219,2.738-1.219c1.073,0,1.922,0.353,2.547,1.059s0.938,1.637,0.938,2.793v0.82h-5.898
			c0.026,1.005,0.28,1.769,0.762,2.289s1.16,0.781,2.035,0.781c0.922,0,1.833-0.192,2.734-0.578v1.156
			c-0.458,0.198-0.892,0.34-1.301,0.426S145.172,170.816,144.594,170.816z M144.242,163.027c-0.688,0-1.235,0.224-1.645,0.672
			s-0.649,1.067-0.723,1.859h4.477c0-0.817-0.183-1.444-0.547-1.879S144.919,163.027,144.242,163.027z"/>
		<path fill="#4D4D4D" d="M153.57,170.816c-1.266,0-2.265-0.386-2.996-1.156s-1.098-1.841-1.098-3.211c0-1.38,0.34-2.477,1.02-3.289
			s1.593-1.219,2.738-1.219c1.073,0,1.922,0.353,2.547,1.059s0.938,1.637,0.938,2.793v0.82h-5.898
			c0.026,1.005,0.28,1.769,0.762,2.289s1.16,0.781,2.035,0.781c0.922,0,1.833-0.192,2.734-0.578v1.156
			c-0.458,0.198-0.892,0.34-1.301,0.426S154.148,170.816,153.57,170.816z M153.219,163.027c-0.688,0-1.235,0.224-1.645,0.672
			s-0.649,1.067-0.723,1.859h4.477c0-0.817-0.183-1.444-0.547-1.879S153.896,163.027,153.219,163.027z"/>
		<path fill="#4D4D4D" d="M169.844,170.66v-5.57c0-0.683-0.146-1.194-0.438-1.535s-0.745-0.512-1.359-0.512
			c-0.808,0-1.403,0.231-1.789,0.695s-0.578,1.177-0.578,2.141v4.781h-1.297v-5.57c0-0.683-0.146-1.194-0.438-1.535
			s-0.747-0.512-1.367-0.512c-0.813,0-1.407,0.243-1.785,0.73s-0.566,1.285-0.566,2.395v4.492h-1.297v-8.563h1.055l0.211,1.172
			h0.063c0.245-0.417,0.59-0.742,1.035-0.977s0.944-0.352,1.496-0.352c1.339,0,2.214,0.484,2.625,1.453h0.063
			c0.255-0.448,0.625-0.802,1.109-1.063s1.036-0.391,1.656-0.391c0.969,0,1.694,0.249,2.176,0.746s0.723,1.293,0.723,2.387v5.586
			H169.844z"/>
		<path fill="#4D4D4D" d="M183.797,169.512h-0.07c-0.599,0.87-1.495,1.305-2.688,1.305c-1.12,0-1.991-0.383-2.613-1.148
			s-0.934-1.854-0.934-3.266s0.313-2.508,0.938-3.289s1.495-1.172,2.609-1.172c1.161,0,2.052,0.422,2.672,1.266h0.102l-0.055-0.617
			l-0.031-0.602v-3.484h1.297v12.156h-1.055L183.797,169.512z M181.203,169.73c0.886,0,1.527-0.241,1.926-0.723
			s0.598-1.259,0.598-2.332v-0.273c0-1.214-0.202-2.079-0.605-2.598s-1.048-0.777-1.934-0.777c-0.761,0-1.343,0.296-1.746,0.887
			s-0.605,1.426-0.605,2.504c0,1.094,0.2,1.919,0.602,2.477S180.427,169.73,181.203,169.73z"/>
		<path fill="#4D4D4D" d="M193.039,170.66l-0.258-1.219h-0.063c-0.427,0.536-0.853,0.899-1.277,1.09s-0.954,0.285-1.59,0.285
			c-0.849,0-1.515-0.219-1.996-0.656s-0.723-1.06-0.723-1.867c0-1.729,1.383-2.636,4.148-2.719l1.453-0.047v-0.531
			c0-0.672-0.145-1.168-0.434-1.488s-0.751-0.48-1.387-0.48c-0.714,0-1.521,0.219-2.422,0.656l-0.398-0.992
			c0.422-0.229,0.884-0.409,1.387-0.539s1.007-0.195,1.512-0.195c1.021,0,1.777,0.227,2.27,0.68s0.738,1.18,0.738,2.18v5.844
			H193.039z M190.109,169.746c0.808,0,1.441-0.222,1.902-0.664s0.691-1.063,0.691-1.859v-0.773l-1.297,0.055
			c-1.031,0.036-1.774,0.196-2.23,0.48s-0.684,0.726-0.684,1.324c0,0.469,0.142,0.825,0.426,1.07S189.599,169.746,190.109,169.746z"
			/>
		<path fill="#4D4D4D" d="M199.438,169.746c0.229,0,0.45-0.017,0.664-0.051s0.383-0.069,0.508-0.105v0.992
			c-0.141,0.067-0.348,0.124-0.621,0.168s-0.52,0.066-0.738,0.066c-1.656,0-2.484-0.872-2.484-2.617v-5.094h-1.227v-0.625
			l1.227-0.539l0.547-1.828h0.75v1.984h2.484v1.008h-2.484v5.039c0,0.516,0.122,0.911,0.367,1.188S199.011,169.746,199.438,169.746z
			"/>
		<path fill="#4D4D4D" d="M35.762,189.86v-5.57c0-0.683-0.146-1.194-0.438-1.535s-0.745-0.512-1.359-0.512
			c-0.808,0-1.403,0.231-1.789,0.695s-0.578,1.177-0.578,2.141v4.781h-1.297v-5.57c0-0.683-0.146-1.194-0.438-1.535
			s-0.747-0.512-1.367-0.512c-0.813,0-1.407,0.243-1.785,0.73s-0.566,1.285-0.566,2.395v4.492h-1.297v-8.563h1.055l0.211,1.172
			h0.063c0.245-0.417,0.59-0.742,1.035-0.977s0.944-0.352,1.496-0.352c1.339,0,2.214,0.484,2.625,1.453h0.063
			c0.255-0.448,0.625-0.802,1.109-1.063s1.036-0.391,1.656-0.391c0.969,0,1.694,0.249,2.176,0.746s0.723,1.293,0.723,2.387v5.586
			H35.762z"/>
		<path fill="#4D4D4D" d="M47.121,185.571c0,1.396-0.352,2.485-1.055,3.27s-1.675,1.176-2.914,1.176
			c-0.766,0-1.445-0.18-2.039-0.539s-1.052-0.875-1.375-1.547s-0.484-1.458-0.484-2.359c0-1.396,0.349-2.483,1.047-3.262
			s1.667-1.168,2.906-1.168c1.198,0,2.149,0.398,2.855,1.195S47.121,184.212,47.121,185.571z M40.598,185.571
			c0,1.094,0.219,1.927,0.656,2.5s1.081,0.859,1.93,0.859s1.493-0.285,1.934-0.855s0.66-1.405,0.66-2.504
			c0-1.089-0.22-1.915-0.66-2.48s-1.09-0.848-1.949-0.848c-0.849,0-1.489,0.278-1.922,0.836S40.598,184.467,40.598,185.571z"/>
		<path fill="#4D4D4D" d="M53.012,190.017c-1.266,0-2.265-0.386-2.996-1.156s-1.098-1.841-1.098-3.211c0-1.38,0.34-2.477,1.02-3.289
			s1.593-1.219,2.738-1.219c1.073,0,1.922,0.353,2.547,1.059s0.938,1.637,0.938,2.793v0.82h-5.898
			c0.026,1.005,0.28,1.769,0.762,2.289s1.16,0.781,2.035,0.781c0.922,0,1.833-0.192,2.734-0.578v1.156
			c-0.458,0.198-0.892,0.34-1.301,0.426S53.59,190.017,53.012,190.017z M52.66,182.228c-0.688,0-1.235,0.224-1.645,0.672
			s-0.649,1.067-0.723,1.859h4.477c0-0.817-0.183-1.444-0.547-1.879S53.337,182.228,52.66,182.228z"/>
		<path fill="#4D4D4D" d="M61.137,188.946c0.229,0,0.45-0.017,0.664-0.051s0.383-0.069,0.508-0.105v0.992
			c-0.141,0.067-0.348,0.124-0.621,0.168s-0.52,0.066-0.738,0.066c-1.656,0-2.484-0.872-2.484-2.617v-5.094h-1.227v-0.625
			l1.227-0.539l0.547-1.828h0.75v1.984h2.484v1.008h-2.484v5.039c0,0.516,0.122,0.911,0.367,1.188S60.71,188.946,61.137,188.946z"/>
		<path fill="#4D4D4D" d="M75.168,189.86l-1.57-5.023c-0.099-0.308-0.284-1.005-0.555-2.094H72.98
			c-0.208,0.911-0.391,1.614-0.547,2.109l-1.617,5.008h-1.5l-2.336-8.563h1.359c0.552,2.151,0.973,3.789,1.262,4.914
			s0.454,1.883,0.496,2.273h0.063c0.058-0.297,0.149-0.681,0.277-1.152s0.238-0.845,0.332-1.121l1.57-4.914h1.406l1.531,4.914
			c0.292,0.896,0.489,1.648,0.594,2.258h0.063c0.021-0.188,0.077-0.477,0.168-0.867s0.634-2.492,1.629-6.305h1.344l-2.367,8.563
			H75.168z"/>
		<path fill="#4D4D4D" d="M88.012,185.571c0,1.396-0.352,2.485-1.055,3.27s-1.675,1.176-2.914,1.176
			c-0.766,0-1.445-0.18-2.039-0.539s-1.052-0.875-1.375-1.547s-0.484-1.458-0.484-2.359c0-1.396,0.349-2.483,1.047-3.262
			s1.667-1.168,2.906-1.168c1.198,0,2.149,0.398,2.855,1.195S88.012,184.212,88.012,185.571z M81.488,185.571
			c0,1.094,0.219,1.927,0.656,2.5s1.081,0.859,1.93,0.859s1.493-0.285,1.934-0.855s0.66-1.405,0.66-2.504
			c0-1.089-0.22-1.915-0.66-2.48s-1.09-0.848-1.949-0.848c-0.849,0-1.489,0.278-1.922,0.836S81.488,184.467,81.488,185.571z"/>
		<path fill="#4D4D4D" d="M94.191,181.142c0.38,0,0.722,0.031,1.023,0.094l-0.18,1.203c-0.354-0.078-0.667-0.117-0.938-0.117
			c-0.692,0-1.285,0.281-1.777,0.844s-0.738,1.263-0.738,2.102v4.594h-1.297v-8.563h1.07l0.148,1.586h0.063
			c0.317-0.558,0.7-0.987,1.148-1.289S93.655,181.142,94.191,181.142z"/>
		<path fill="#4D4D4D" d="M102.645,188.712h-0.07c-0.599,0.87-1.495,1.305-2.688,1.305c-1.12,0-1.991-0.383-2.613-1.148
			s-0.934-1.854-0.934-3.266s0.313-2.508,0.938-3.289s1.495-1.172,2.609-1.172c1.161,0,2.052,0.422,2.672,1.266h0.102l-0.055-0.617
			l-0.031-0.602v-3.484h1.297v12.156h-1.055L102.645,188.712z M100.051,188.931c0.886,0,1.527-0.241,1.926-0.723
			s0.598-1.259,0.598-2.332v-0.273c0-1.214-0.202-2.079-0.605-2.598s-1.048-0.777-1.934-0.777c-0.761,0-1.343,0.296-1.746,0.887
			s-0.605,1.426-0.605,2.504c0,1.094,0.2,1.919,0.602,2.477S99.274,188.931,100.051,188.931z"/>
		<path fill="#4D4D4D" d="M110.238,190.017c-1.266,0-2.265-0.386-2.996-1.156s-1.098-1.841-1.098-3.211
			c0-1.38,0.34-2.477,1.02-3.289s1.593-1.219,2.738-1.219c1.073,0,1.922,0.353,2.547,1.059s0.938,1.637,0.938,2.793v0.82h-5.898
			c0.026,1.005,0.28,1.769,0.762,2.289s1.16,0.781,2.035,0.781c0.922,0,1.833-0.192,2.734-0.578v1.156
			c-0.458,0.198-0.892,0.34-1.301,0.426S110.816,190.017,110.238,190.017z M109.887,182.228c-0.688,0-1.235,0.224-1.645,0.672
			s-0.649,1.067-0.723,1.859h4.477c0-0.817-0.183-1.444-0.547-1.879S110.563,182.228,109.887,182.228z"/>
		<path fill="#4D4D4D" d="M121.457,189.86v-5.539c0-0.698-0.159-1.219-0.477-1.563s-0.815-0.516-1.492-0.516
			c-0.896,0-1.552,0.242-1.969,0.727s-0.625,1.284-0.625,2.398v4.492h-1.297v-8.563h1.055l0.211,1.172h0.063
			c0.266-0.422,0.638-0.749,1.117-0.98s1.013-0.348,1.602-0.348c1.031,0,1.808,0.249,2.328,0.746s0.781,1.293,0.781,2.387v5.586
			H121.457z"/>
		<path fill="#4D4D4D" d="M136.965,185.571c0,1.396-0.352,2.485-1.055,3.27s-1.675,1.176-2.914,1.176
			c-0.766,0-1.445-0.18-2.039-0.539s-1.052-0.875-1.375-1.547s-0.484-1.458-0.484-2.359c0-1.396,0.349-2.483,1.047-3.262
			s1.667-1.168,2.906-1.168c1.198,0,2.149,0.398,2.855,1.195S136.965,184.212,136.965,185.571z M130.441,185.571
			c0,1.094,0.219,1.927,0.656,2.5s1.081,0.859,1.93,0.859s1.493-0.285,1.934-0.855s0.66-1.405,0.66-2.504
			c0-1.089-0.22-1.915-0.66-2.48s-1.09-0.848-1.949-0.848c-0.849,0-1.489,0.278-1.922,0.836S130.441,184.467,130.441,185.571z"/>
		<path fill="#4D4D4D" d="M143.223,190.017c-0.558,0-1.066-0.103-1.527-0.309s-0.848-0.522-1.16-0.949h-0.094
			c0.063,0.5,0.094,0.974,0.094,1.422v3.523h-1.297v-12.406h1.055l0.18,1.172h0.063c0.333-0.469,0.722-0.808,1.164-1.016
			s0.95-0.313,1.523-0.313c1.136,0,2.012,0.388,2.629,1.164s0.926,1.864,0.926,3.266c0,1.406-0.313,2.499-0.941,3.277
			S144.337,190.017,143.223,190.017z M143.035,182.243c-0.875,0-1.508,0.242-1.898,0.727s-0.591,1.255-0.602,2.313v0.289
			c0,1.203,0.2,2.063,0.602,2.582s1.044,0.777,1.93,0.777c0.739,0,1.319-0.3,1.738-0.898s0.629-1.425,0.629-2.477
			c0-1.067-0.21-1.887-0.629-2.457S143.796,182.243,143.035,182.243z"/>
		<path fill="#4D4D4D" d="M156.051,181.298v0.82l-1.586,0.188c0.146,0.183,0.276,0.421,0.391,0.715s0.172,0.626,0.172,0.996
			c0,0.839-0.286,1.508-0.859,2.008s-1.359,0.75-2.359,0.75c-0.255,0-0.495-0.021-0.719-0.063c-0.552,0.292-0.828,0.659-0.828,1.102
			c0,0.234,0.097,0.407,0.289,0.52s0.523,0.168,0.992,0.168h1.516c0.927,0,1.64,0.195,2.137,0.586s0.746,0.958,0.746,1.703
			c0,0.948-0.38,1.671-1.141,2.168s-1.87,0.746-3.328,0.746c-1.12,0-1.983-0.208-2.59-0.625s-0.91-1.005-0.91-1.766
			c0-0.521,0.167-0.972,0.5-1.352s0.802-0.638,1.406-0.773c-0.219-0.099-0.402-0.253-0.551-0.461s-0.223-0.45-0.223-0.727
			c0-0.313,0.083-0.586,0.25-0.82s0.43-0.461,0.789-0.68c-0.442-0.183-0.804-0.492-1.082-0.93s-0.418-0.938-0.418-1.5
			c0-0.938,0.281-1.66,0.844-2.168s1.359-0.762,2.391-0.762c0.448,0,0.852,0.052,1.211,0.156H156.051z M149.223,191.298
			c0,0.464,0.195,0.815,0.586,1.055s0.95,0.359,1.68,0.359c1.089,0,1.895-0.163,2.418-0.488s0.785-0.767,0.785-1.324
			c0-0.464-0.144-0.785-0.43-0.965s-0.825-0.27-1.617-0.27h-1.555c-0.589,0-1.047,0.141-1.375,0.422
			S149.223,190.771,149.223,191.298z M149.926,184.04c0,0.599,0.169,1.052,0.508,1.359s0.81,0.461,1.414,0.461
			c1.266,0,1.898-0.614,1.898-1.844c0-1.286-0.641-1.93-1.922-1.93c-0.609,0-1.078,0.164-1.406,0.492
			S149.926,183.395,149.926,184.04z"/>
		<path fill="#4D4D4D" d="M161.426,190.017c-1.266,0-2.265-0.386-2.996-1.156s-1.098-1.841-1.098-3.211
			c0-1.38,0.34-2.477,1.02-3.289s1.593-1.219,2.738-1.219c1.073,0,1.922,0.353,2.547,1.059s0.938,1.637,0.938,2.793v0.82h-5.898
			c0.026,1.005,0.28,1.769,0.762,2.289s1.16,0.781,2.035,0.781c0.922,0,1.833-0.192,2.734-0.578v1.156
			c-0.458,0.198-0.892,0.34-1.301,0.426S162.004,190.017,161.426,190.017z M161.074,182.228c-0.688,0-1.235,0.224-1.645,0.672
			s-0.649,1.067-0.723,1.859h4.477c0-0.817-0.183-1.444-0.547-1.879S161.751,182.228,161.074,182.228z"/>
		<path fill="#4D4D4D" d="M168.082,189.86h-1.297v-12.156h1.297V189.86z"/>
		<path fill="#4D4D4D" d="M178.223,185.571c0,1.396-0.352,2.485-1.055,3.27s-1.675,1.176-2.914,1.176
			c-0.766,0-1.445-0.18-2.039-0.539s-1.052-0.875-1.375-1.547s-0.484-1.458-0.484-2.359c0-1.396,0.349-2.483,1.047-3.262
			s1.667-1.168,2.906-1.168c1.198,0,2.149,0.398,2.855,1.195S178.223,184.212,178.223,185.571z M171.699,185.571
			c0,1.094,0.219,1.927,0.656,2.5s1.081,0.859,1.93,0.859s1.493-0.285,1.934-0.855s0.66-1.405,0.66-2.504
			c0-1.089-0.22-1.915-0.66-2.48s-1.09-0.848-1.949-0.848c-0.849,0-1.489,0.278-1.922,0.836S171.699,184.467,171.699,185.571z"/>
		<path fill="#4D4D4D" d="M186.02,187.524c0,0.797-0.297,1.411-0.891,1.844s-1.427,0.648-2.5,0.648c-1.136,0-2.021-0.18-2.656-0.539
			v-1.203c0.411,0.208,0.853,0.372,1.324,0.492s0.926,0.18,1.363,0.18c0.677,0,1.198-0.108,1.563-0.324s0.547-0.546,0.547-0.988
			c0-0.333-0.145-0.618-0.434-0.855s-0.853-0.517-1.691-0.84c-0.797-0.297-1.363-0.556-1.699-0.777s-0.586-0.473-0.75-0.754
			s-0.246-0.617-0.246-1.008c0-0.698,0.284-1.249,0.852-1.652s1.347-0.605,2.336-0.605c0.922,0,1.823,0.188,2.703,0.563
			l-0.461,1.055c-0.859-0.354-1.638-0.531-2.336-0.531c-0.614,0-1.078,0.097-1.391,0.289s-0.469,0.458-0.469,0.797
			c0,0.229,0.059,0.425,0.176,0.586s0.306,0.315,0.566,0.461s0.761,0.356,1.5,0.633c1.016,0.37,1.702,0.742,2.059,1.117
			S186.02,186.957,186.02,187.524z"/>
		<path fill="#4D4D4D" d="M190.895,188.946c0.229,0,0.45-0.017,0.664-0.051s0.383-0.069,0.508-0.105v0.992
			c-0.141,0.067-0.348,0.124-0.621,0.168s-0.52,0.066-0.738,0.066c-1.656,0-2.484-0.872-2.484-2.617v-5.094h-1.227v-0.625
			l1.227-0.539l0.547-1.828h0.75v1.984h2.484v1.008h-2.484v5.039c0,0.516,0.122,0.911,0.367,1.188S190.468,188.946,190.895,188.946z
			"/>
		<path fill="#4D4D4D" d="M194.66,186.712v-0.422c0-0.609,0.094-1.11,0.281-1.504s0.536-0.809,1.047-1.246
			c0.708-0.599,1.155-1.05,1.34-1.352s0.277-0.667,0.277-1.094c0-0.531-0.171-0.941-0.512-1.23s-0.832-0.434-1.473-0.434
			c-0.411,0-0.813,0.048-1.203,0.145s-0.839,0.272-1.344,0.527l-0.461-1.055c0.984-0.516,2.013-0.773,3.086-0.773
			c0.995,0,1.769,0.245,2.32,0.734s0.828,1.18,0.828,2.07c0,0.38-0.051,0.715-0.152,1.004s-0.251,0.563-0.449,0.82
			s-0.625,0.673-1.281,1.246c-0.526,0.448-0.874,0.82-1.043,1.117s-0.254,0.692-0.254,1.188v0.258H194.66z M194.277,189.032
			c0-0.708,0.313-1.063,0.938-1.063c0.302,0,0.535,0.091,0.699,0.273s0.246,0.445,0.246,0.789c0,0.333-0.083,0.593-0.25,0.777
			s-0.398,0.277-0.695,0.277c-0.271,0-0.495-0.082-0.672-0.246S194.277,189.407,194.277,189.032z"/>
	</g>
</g>
</svg>
