<?xml version="1.0" encoding="utf-8"?>
<!-- Generator: Adobe Illustrator 17.0.0, SVG Export Plug-In . SVG Version: 6.00 Build 0)  -->
<!DOCTYPE svg PUBLIC "-//W3C//DTD SVG 1.1//EN" "http://www.w3.org/Graphics/SVG/1.1/DTD/svg11.dtd">
<svg version="1.1" id="Layer_1" xmlns="http://www.w3.org/2000/svg" xmlns:xlink="http://www.w3.org/1999/xlink" x="0px" y="0px"
	 width="223px" height="216px" viewBox="0 0 223 216" enable-background="new 0 0 223 216" xml:space="preserve">
<g>
	<g>
		<path fill="#525252" d="M39.395,128.107h5.332c2.43,0,4.193,0.346,5.291,1.037s1.646,1.791,1.646,3.299
			c0,1.023-0.24,1.863-0.721,2.52s-1.119,1.051-1.916,1.184v0.117c1.086,0.242,1.869,0.695,2.35,1.359s0.721,1.547,0.721,2.648
			c0,1.563-0.564,2.781-1.693,3.656s-2.662,1.313-4.6,1.313h-6.41V128.107z M43.027,134.893h2.109c0.984,0,1.697-0.152,2.139-0.457
			s0.662-0.809,0.662-1.512c0-0.656-0.24-1.127-0.721-1.412s-1.24-0.428-2.279-0.428h-1.91V134.893z M43.027,137.775v4.465h2.367
			c1,0,1.738-0.191,2.215-0.574s0.715-0.969,0.715-1.758c0-1.422-1.016-2.133-3.047-2.133H43.027z"/>
		<path fill="#525252" d="M66.827,145.24H56.96v-17.133h9.867v2.977h-6.234v3.762h5.801v2.977h-5.801v4.418h6.234V145.24z"/>
		<path fill="#525252" d="M81.954,140.482c0,1.547-0.557,2.766-1.67,3.656s-2.662,1.336-4.646,1.336
			c-1.828,0-3.445-0.344-4.852-1.031v-3.375c1.156,0.516,2.135,0.879,2.936,1.09s1.533,0.316,2.197,0.316
			c0.797,0,1.408-0.152,1.834-0.457s0.639-0.758,0.639-1.359c0-0.336-0.094-0.635-0.281-0.896s-0.463-0.514-0.826-0.756
			s-1.104-0.629-2.221-1.16c-1.047-0.492-1.832-0.965-2.355-1.418s-0.941-0.98-1.254-1.582s-0.469-1.305-0.469-2.109
			c0-1.516,0.514-2.707,1.541-3.574s2.447-1.301,4.26-1.301c0.891,0,1.74,0.105,2.549,0.316s1.654,0.508,2.537,0.891l-1.172,2.824
			c-0.914-0.375-1.67-0.637-2.268-0.785s-1.186-0.223-1.764-0.223c-0.688,0-1.215,0.16-1.582,0.48s-0.551,0.738-0.551,1.254
			c0,0.32,0.074,0.6,0.223,0.838s0.385,0.469,0.709,0.691s1.092,0.623,2.303,1.201c1.602,0.766,2.699,1.533,3.293,2.303
			S81.954,139.365,81.954,140.482z"/>
		<path fill="#525252" d="M86.5,145.24v-17.133h3.633v14.133h6.949v3H86.5z"/>
		<path fill="#525252" d="M101.498,145.24v-17.133h3.633v17.133H101.498z"/>
		<path fill="#525252" d="M120.997,140.482c0,1.547-0.557,2.766-1.67,3.656s-2.662,1.336-4.646,1.336
			c-1.828,0-3.445-0.344-4.852-1.031v-3.375c1.156,0.516,2.135,0.879,2.936,1.09s1.533,0.316,2.197,0.316
			c0.797,0,1.408-0.152,1.834-0.457s0.639-0.758,0.639-1.359c0-0.336-0.094-0.635-0.281-0.896s-0.463-0.514-0.826-0.756
			s-1.104-0.629-2.221-1.16c-1.047-0.492-1.832-0.965-2.355-1.418s-0.941-0.98-1.254-1.582s-0.469-1.305-0.469-2.109
			c0-1.516,0.514-2.707,1.541-3.574s2.447-1.301,4.26-1.301c0.891,0,1.74,0.105,2.549,0.316s1.654,0.508,2.537,0.891l-1.172,2.824
			c-0.914-0.375-1.67-0.637-2.268-0.785s-1.186-0.223-1.764-0.223c-0.688,0-1.215,0.16-1.582,0.48s-0.551,0.738-0.551,1.254
			c0,0.32,0.074,0.6,0.223,0.838s0.385,0.469,0.709,0.691s1.092,0.623,2.303,1.201c1.602,0.766,2.699,1.533,3.293,2.303
			S120.997,139.365,120.997,140.482z"/>
		<path fill="#525252" d="M135.655,140.482c0,1.547-0.557,2.766-1.67,3.656s-2.662,1.336-4.646,1.336
			c-1.828,0-3.445-0.344-4.852-1.031v-3.375c1.156,0.516,2.135,0.879,2.936,1.09s1.533,0.316,2.197,0.316
			c0.797,0,1.408-0.152,1.834-0.457s0.639-0.758,0.639-1.359c0-0.336-0.094-0.635-0.281-0.896s-0.463-0.514-0.826-0.756
			s-1.104-0.629-2.221-1.16c-1.047-0.492-1.832-0.965-2.355-1.418s-0.941-0.98-1.254-1.582s-0.469-1.305-0.469-2.109
			c0-1.516,0.514-2.707,1.541-3.574s2.447-1.301,4.26-1.301c0.891,0,1.74,0.105,2.549,0.316s1.654,0.508,2.537,0.891l-1.172,2.824
			c-0.914-0.375-1.67-0.637-2.268-0.785s-1.186-0.223-1.764-0.223c-0.688,0-1.215,0.16-1.582,0.48s-0.551,0.738-0.551,1.254
			c0,0.32,0.074,0.6,0.223,0.838s0.385,0.469,0.709,0.691s1.092,0.623,2.303,1.201c1.602,0.766,2.699,1.533,3.293,2.303
			S135.655,139.365,135.655,140.482z"/>
		<path fill="#525252" d="M140.201,145.24v-17.133h3.633v17.133H140.201z"/>
		<path fill="#525252" d="M164.785,145.24h-4.617l-7.453-12.961h-0.105c0.148,2.289,0.223,3.922,0.223,4.898v8.063h-3.246v-17.133
			h4.582l7.441,12.832h0.082c-0.117-2.227-0.176-3.801-0.176-4.723v-8.109h3.27V145.24z"/>
		<path fill="#525252" d="M177.042,135.619h6.797v8.883c-1.102,0.359-2.139,0.611-3.111,0.756s-1.967,0.217-2.982,0.217
			c-2.586,0-4.561-0.76-5.924-2.279s-2.045-3.701-2.045-6.545c0-2.766,0.791-4.922,2.373-6.469s3.775-2.32,6.58-2.32
			c1.758,0,3.453,0.352,5.086,1.055l-1.207,2.906c-1.25-0.625-2.551-0.938-3.902-0.938c-1.57,0-2.828,0.527-3.773,1.582
			s-1.418,2.473-1.418,4.254c0,1.859,0.381,3.279,1.143,4.26s1.869,1.471,3.322,1.471c0.758,0,1.527-0.078,2.309-0.234v-3.574
			h-3.246V135.619z"/>
	</g>
</g>
<g>
	<g>
		<path fill="#4D4D4D" d="M44.742,170.66H43.43l-2.305-7.648c-0.109-0.339-0.231-0.766-0.367-1.281s-0.206-0.825-0.211-0.93
			c-0.114,0.688-0.297,1.44-0.547,2.258l-2.234,7.602h-1.313l-3.039-11.422h1.406l1.805,7.055c0.25,0.989,0.433,1.886,0.547,2.688
			c0.141-0.953,0.349-1.886,0.625-2.797l2.047-6.945h1.406l2.148,7.008c0.25,0.808,0.461,1.719,0.633,2.734
			c0.099-0.739,0.286-1.641,0.563-2.703l1.797-7.039h1.406L44.742,170.66z"/>
		<path fill="#4D4D4D" d="M54.656,170.66l-0.258-1.219h-0.063c-0.427,0.536-0.853,0.899-1.277,1.09s-0.954,0.285-1.59,0.285
			c-0.849,0-1.515-0.219-1.996-0.656s-0.723-1.06-0.723-1.867c0-1.729,1.383-2.636,4.148-2.719l1.453-0.047v-0.531
			c0-0.672-0.145-1.168-0.434-1.488s-0.751-0.48-1.387-0.48c-0.714,0-1.521,0.219-2.422,0.656l-0.398-0.992
			c0.422-0.229,0.884-0.409,1.387-0.539s1.007-0.195,1.512-0.195c1.021,0,1.777,0.227,2.27,0.68s0.738,1.18,0.738,2.18v5.844H54.656
			z M51.727,169.746c0.808,0,1.441-0.222,1.902-0.664s0.691-1.063,0.691-1.859v-0.773l-1.297,0.055
			c-1.031,0.036-1.774,0.196-2.23,0.48s-0.684,0.726-0.684,1.324c0,0.469,0.142,0.825,0.426,1.07S51.216,169.746,51.727,169.746z"/>
		<path fill="#4D4D4D" d="M61.055,169.746c0.229,0,0.45-0.017,0.664-0.051s0.383-0.069,0.508-0.105v0.992
			c-0.141,0.067-0.348,0.124-0.621,0.168s-0.52,0.066-0.738,0.066c-1.656,0-2.484-0.872-2.484-2.617v-5.094h-1.227v-0.625
			l1.227-0.539l0.547-1.828h0.75v1.984h2.484v1.008H59.68v5.039c0,0.516,0.122,0.911,0.367,1.188S60.628,169.746,61.055,169.746z"/>
		<path fill="#4D4D4D" d="M75.086,170.66l-1.57-5.023c-0.099-0.308-0.284-1.005-0.555-2.094h-0.063
			c-0.208,0.911-0.391,1.614-0.547,2.109l-1.617,5.008h-1.5l-2.336-8.563h1.359c0.552,2.151,0.973,3.789,1.262,4.914
			s0.454,1.883,0.496,2.273h0.063c0.058-0.297,0.149-0.681,0.277-1.152s0.238-0.845,0.332-1.121l1.57-4.914h1.406l1.531,4.914
			c0.292,0.896,0.489,1.648,0.594,2.258h0.063c0.021-0.188,0.077-0.477,0.168-0.867s0.634-2.492,1.629-6.305h1.344l-2.367,8.563
			H75.086z"/>
		<path fill="#4D4D4D" d="M87.93,166.371c0,1.396-0.352,2.485-1.055,3.27s-1.675,1.176-2.914,1.176c-0.766,0-1.445-0.18-2.039-0.539
			s-1.052-0.875-1.375-1.547s-0.484-1.458-0.484-2.359c0-1.396,0.349-2.483,1.047-3.262s1.667-1.168,2.906-1.168
			c1.198,0,2.149,0.398,2.855,1.195S87.93,165.012,87.93,166.371z M81.406,166.371c0,1.094,0.219,1.927,0.656,2.5
			s1.081,0.859,1.93,0.859s1.493-0.285,1.934-0.855s0.66-1.405,0.66-2.504c0-1.089-0.22-1.915-0.66-2.48s-1.09-0.848-1.949-0.848
			c-0.849,0-1.489,0.278-1.922,0.836S81.406,165.267,81.406,166.371z"/>
		<path fill="#4D4D4D" d="M94.109,161.941c0.38,0,0.722,0.031,1.023,0.094l-0.18,1.203c-0.354-0.078-0.667-0.117-0.938-0.117
			c-0.692,0-1.285,0.281-1.777,0.844s-0.738,1.263-0.738,2.102v4.594h-1.297v-8.563h1.07l0.148,1.586h0.063
			c0.317-0.558,0.7-0.987,1.148-1.289S93.573,161.941,94.109,161.941z"/>
		<path fill="#4D4D4D" d="M102.563,169.512h-0.07c-0.599,0.87-1.495,1.305-2.688,1.305c-1.12,0-1.991-0.383-2.613-1.148
			s-0.934-1.854-0.934-3.266s0.313-2.508,0.938-3.289s1.495-1.172,2.609-1.172c1.161,0,2.052,0.422,2.672,1.266h0.102l-0.055-0.617
			l-0.031-0.602v-3.484h1.297v12.156h-1.055L102.563,169.512z M99.969,169.73c0.886,0,1.527-0.241,1.926-0.723
			s0.598-1.259,0.598-2.332v-0.273c0-1.214-0.202-2.079-0.605-2.598s-1.048-0.777-1.934-0.777c-0.761,0-1.343,0.296-1.746,0.887
			s-0.605,1.426-0.605,2.504c0,1.094,0.2,1.919,0.602,2.477S99.192,169.73,99.969,169.73z"/>
		<path fill="#4D4D4D" d="M109.305,169.746c0.229,0,0.45-0.017,0.664-0.051s0.383-0.069,0.508-0.105v0.992
			c-0.141,0.067-0.348,0.124-0.621,0.168s-0.52,0.066-0.738,0.066c-1.656,0-2.484-0.872-2.484-2.617v-5.094h-1.227v-0.625
			l1.227-0.539l0.547-1.828h0.75v1.984h2.484v1.008h-2.484v5.039c0,0.516,0.122,0.911,0.367,1.188S108.878,169.746,109.305,169.746z
			"/>
		<path fill="#4D4D4D" d="M119.961,170.816c-1.266,0-2.265-0.386-2.996-1.156s-1.098-1.841-1.098-3.211
			c0-1.38,0.34-2.477,1.02-3.289s1.593-1.219,2.738-1.219c1.073,0,1.922,0.353,2.547,1.059s0.938,1.637,0.938,2.793v0.82h-5.898
			c0.026,1.005,0.28,1.769,0.762,2.289s1.16,0.781,2.035,0.781c0.922,0,1.833-0.192,2.734-0.578v1.156
			c-0.458,0.198-0.892,0.34-1.301,0.426S120.539,170.816,119.961,170.816z M119.609,163.027c-0.688,0-1.235,0.224-1.645,0.672
			s-0.649,1.067-0.723,1.859h4.477c0-0.817-0.183-1.444-0.547-1.879S120.286,163.027,119.609,163.027z"/>
		<path fill="#4D4D4D" d="M129.227,161.941c0.38,0,0.722,0.031,1.023,0.094l-0.18,1.203c-0.354-0.078-0.667-0.117-0.938-0.117
			c-0.692,0-1.285,0.281-1.777,0.844s-0.738,1.263-0.738,2.102v4.594h-1.297v-8.563h1.07l0.148,1.586h0.063
			c0.317-0.558,0.7-0.987,1.148-1.289S128.69,161.941,129.227,161.941z"/>
		<path fill="#4D4D4D" d="M143.016,162.098v0.82l-1.586,0.188c0.146,0.183,0.276,0.421,0.391,0.715s0.172,0.626,0.172,0.996
			c0,0.839-0.286,1.508-0.859,2.008s-1.359,0.75-2.359,0.75c-0.255,0-0.495-0.021-0.719-0.063c-0.552,0.292-0.828,0.659-0.828,1.102
			c0,0.234,0.097,0.407,0.289,0.52s0.523,0.168,0.992,0.168h1.516c0.927,0,1.64,0.195,2.137,0.586s0.746,0.958,0.746,1.703
			c0,0.948-0.38,1.671-1.141,2.168s-1.87,0.746-3.328,0.746c-1.12,0-1.983-0.208-2.59-0.625s-0.91-1.005-0.91-1.766
			c0-0.521,0.167-0.972,0.5-1.352s0.802-0.638,1.406-0.773c-0.219-0.099-0.402-0.253-0.551-0.461s-0.223-0.45-0.223-0.727
			c0-0.313,0.083-0.586,0.25-0.82s0.43-0.461,0.789-0.68c-0.442-0.183-0.804-0.492-1.082-0.93s-0.418-0.938-0.418-1.5
			c0-0.938,0.281-1.66,0.844-2.168s1.359-0.762,2.391-0.762c0.448,0,0.852,0.052,1.211,0.156H143.016z M136.188,172.098
			c0,0.464,0.195,0.815,0.586,1.055s0.95,0.359,1.68,0.359c1.089,0,1.895-0.163,2.418-0.488s0.785-0.767,0.785-1.324
			c0-0.464-0.144-0.785-0.43-0.965s-0.825-0.27-1.617-0.27h-1.555c-0.589,0-1.047,0.141-1.375,0.422
			S136.188,171.571,136.188,172.098z M136.891,164.84c0,0.599,0.169,1.052,0.508,1.359s0.81,0.461,1.414,0.461
			c1.266,0,1.898-0.614,1.898-1.844c0-1.286-0.641-1.93-1.922-1.93c-0.609,0-1.078,0.164-1.406,0.492
			S136.891,164.194,136.891,164.84z"/>
		<path fill="#4D4D4D" d="M148.391,170.816c-1.266,0-2.265-0.386-2.996-1.156s-1.098-1.841-1.098-3.211
			c0-1.38,0.34-2.477,1.02-3.289s1.593-1.219,2.738-1.219c1.073,0,1.922,0.353,2.547,1.059s0.938,1.637,0.938,2.793v0.82h-5.898
			c0.026,1.005,0.28,1.769,0.762,2.289s1.16,0.781,2.035,0.781c0.922,0,1.833-0.192,2.734-0.578v1.156
			c-0.458,0.198-0.892,0.34-1.301,0.426S148.969,170.816,148.391,170.816z M148.039,163.027c-0.688,0-1.235,0.224-1.645,0.672
			s-0.649,1.067-0.723,1.859h4.477c0-0.817-0.183-1.444-0.547-1.879S148.716,163.027,148.039,163.027z"/>
		<path fill="#4D4D4D" d="M159.578,169.512h-0.07c-0.599,0.87-1.495,1.305-2.688,1.305c-1.12,0-1.991-0.383-2.613-1.148
			s-0.934-1.854-0.934-3.266s0.313-2.508,0.938-3.289s1.495-1.172,2.609-1.172c1.161,0,2.052,0.422,2.672,1.266h0.102l-0.055-0.617
			l-0.031-0.602v-3.484h1.297v12.156h-1.055L159.578,169.512z M156.984,169.73c0.886,0,1.527-0.241,1.926-0.723
			s0.598-1.259,0.598-2.332v-0.273c0-1.214-0.202-2.079-0.605-2.598s-1.048-0.777-1.934-0.777c-0.761,0-1.343,0.296-1.746,0.887
			s-0.605,1.426-0.605,2.504c0,1.094,0.2,1.919,0.602,2.477S156.208,169.73,156.984,169.73z"/>
		<path fill="#4D4D4D" d="M168.82,170.66l-0.258-1.219H168.5c-0.427,0.536-0.853,0.899-1.277,1.09s-0.954,0.285-1.59,0.285
			c-0.849,0-1.515-0.219-1.996-0.656s-0.723-1.06-0.723-1.867c0-1.729,1.383-2.636,4.148-2.719l1.453-0.047v-0.531
			c0-0.672-0.145-1.168-0.434-1.488s-0.751-0.48-1.387-0.48c-0.714,0-1.521,0.219-2.422,0.656l-0.398-0.992
			c0.422-0.229,0.884-0.409,1.387-0.539s1.007-0.195,1.512-0.195c1.021,0,1.777,0.227,2.27,0.68s0.738,1.18,0.738,2.18v5.844H168.82
			z M165.891,169.746c0.808,0,1.441-0.222,1.902-0.664s0.691-1.063,0.691-1.859v-0.773l-1.297,0.055
			c-1.031,0.036-1.774,0.196-2.23,0.48s-0.684,0.726-0.684,1.324c0,0.469,0.142,0.825,0.426,1.07S165.38,169.746,165.891,169.746z"
			/>
		<path fill="#4D4D4D" d="M177.719,170.66l-0.258-1.219h-0.063c-0.427,0.536-0.853,0.899-1.277,1.09s-0.954,0.285-1.59,0.285
			c-0.849,0-1.515-0.219-1.996-0.656s-0.723-1.06-0.723-1.867c0-1.729,1.383-2.636,4.148-2.719l1.453-0.047v-0.531
			c0-0.672-0.145-1.168-0.434-1.488s-0.751-0.48-1.387-0.48c-0.714,0-1.521,0.219-2.422,0.656l-0.398-0.992
			c0.422-0.229,0.884-0.409,1.387-0.539s1.007-0.195,1.512-0.195c1.021,0,1.777,0.227,2.27,0.68s0.738,1.18,0.738,2.18v5.844
			H177.719z M174.789,169.746c0.808,0,1.441-0.222,1.902-0.664s0.691-1.063,0.691-1.859v-0.773l-1.297,0.055
			c-1.031,0.036-1.774,0.196-2.23,0.48s-0.684,0.726-0.684,1.324c0,0.469,0.142,0.825,0.426,1.07S174.278,169.746,174.789,169.746z"
			/>
		<path fill="#4D4D4D" d="M187.211,170.66v-5.539c0-0.698-0.159-1.219-0.477-1.563s-0.815-0.516-1.492-0.516
			c-0.896,0-1.552,0.242-1.969,0.727s-0.625,1.284-0.625,2.398v4.492h-1.297v-8.563h1.055l0.211,1.172h0.063
			c0.266-0.422,0.638-0.749,1.117-0.98s1.013-0.348,1.602-0.348c1.031,0,1.808,0.249,2.328,0.746s0.781,1.293,0.781,2.387v5.586
			H187.211z"/>
		<path fill="#4D4D4D" d="M71.242,189.86v-5.57c0-0.683-0.146-1.194-0.438-1.535s-0.745-0.512-1.359-0.512
			c-0.808,0-1.403,0.231-1.789,0.695s-0.578,1.177-0.578,2.141v4.781h-1.297v-5.57c0-0.683-0.146-1.194-0.438-1.535
			s-0.747-0.512-1.367-0.512c-0.813,0-1.407,0.243-1.785,0.73s-0.566,1.285-0.566,2.395v4.492h-1.297v-8.563h1.055l0.211,1.172
			h0.063c0.245-0.417,0.59-0.742,1.035-0.977s0.944-0.352,1.496-0.352c1.339,0,2.214,0.484,2.625,1.453h0.063
			c0.255-0.448,0.625-0.802,1.109-1.063s1.036-0.391,1.656-0.391c0.969,0,1.694,0.249,2.176,0.746s0.723,1.293,0.723,2.387v5.586
			H71.242z"/>
		<path fill="#4D4D4D" d="M78.828,190.017c-1.266,0-2.265-0.386-2.996-1.156s-1.098-1.841-1.098-3.211c0-1.38,0.34-2.477,1.02-3.289
			s1.593-1.219,2.738-1.219c1.073,0,1.922,0.353,2.547,1.059s0.938,1.637,0.938,2.793v0.82h-5.898
			c0.026,1.005,0.28,1.769,0.762,2.289s1.16,0.781,2.035,0.781c0.922,0,1.833-0.192,2.734-0.578v1.156
			c-0.458,0.198-0.892,0.34-1.301,0.426S79.406,190.017,78.828,190.017z M78.477,182.228c-0.688,0-1.235,0.224-1.645,0.672
			s-0.649,1.067-0.723,1.859h4.477c0-0.817-0.183-1.444-0.547-1.879S79.153,182.228,78.477,182.228z"/>
		<path fill="#4D4D4D" d="M86.953,188.946c0.229,0,0.45-0.017,0.664-0.051s0.383-0.069,0.508-0.105v0.992
			c-0.141,0.067-0.348,0.124-0.621,0.168s-0.52,0.066-0.738,0.066c-1.656,0-2.484-0.872-2.484-2.617v-5.094h-1.227v-0.625
			l1.227-0.539l0.547-1.828h0.75v1.984h2.484v1.008h-2.484v5.039c0,0.516,0.122,0.911,0.367,1.188S86.526,188.946,86.953,188.946z"
			/>
		<path fill="#4D4D4D" d="M99.852,189.86v-5.539c0-0.698-0.159-1.219-0.477-1.563s-0.815-0.516-1.492-0.516
			c-0.901,0-1.559,0.245-1.973,0.734s-0.621,1.292-0.621,2.406v4.477h-1.297v-12.156h1.297v3.68c0,0.442-0.021,0.81-0.063,1.102
			h0.078c0.255-0.411,0.618-0.735,1.09-0.973s1.009-0.355,1.613-0.355c1.047,0,1.832,0.249,2.355,0.746s0.785,1.288,0.785,2.371
			v5.586H99.852z"/>
		<path fill="#4D4D4D" d="M107.43,190.017c-1.266,0-2.265-0.386-2.996-1.156s-1.098-1.841-1.098-3.211c0-1.38,0.34-2.477,1.02-3.289
			s1.593-1.219,2.738-1.219c1.073,0,1.922,0.353,2.547,1.059s0.938,1.637,0.938,2.793v0.82h-5.898
			c0.026,1.005,0.28,1.769,0.762,2.289s1.16,0.781,2.035,0.781c0.922,0,1.833-0.192,2.734-0.578v1.156
			c-0.458,0.198-0.892,0.34-1.301,0.426S108.008,190.017,107.43,190.017z M107.078,182.228c-0.688,0-1.235,0.224-1.645,0.672
			s-0.649,1.067-0.723,1.859h4.477c0-0.817-0.183-1.444-0.547-1.879S107.755,182.228,107.078,182.228z"/>
		<path fill="#4D4D4D" d="M115.555,188.946c0.229,0,0.45-0.017,0.664-0.051s0.383-0.069,0.508-0.105v0.992
			c-0.141,0.067-0.348,0.124-0.621,0.168s-0.52,0.066-0.738,0.066c-1.656,0-2.484-0.872-2.484-2.617v-5.094h-1.227v-0.625
			l1.227-0.539l0.547-1.828h0.75v1.984h2.484v1.008h-2.484v5.039c0,0.516,0.122,0.911,0.367,1.188S115.128,188.946,115.555,188.946z
			"/>
		<path fill="#4D4D4D" d="M126.641,178.978c0-0.297,0.073-0.515,0.219-0.652s0.328-0.207,0.547-0.207
			c0.208,0,0.388,0.07,0.539,0.211s0.227,0.356,0.227,0.648s-0.075,0.509-0.227,0.652s-0.331,0.215-0.539,0.215
			c-0.219,0-0.401-0.071-0.547-0.215S126.641,179.27,126.641,178.978z M128.047,189.86h-1.297v-8.563h1.297V189.86z"/>
		<path fill="#4D4D4D" d="M136.625,188.712h-0.07c-0.599,0.87-1.495,1.305-2.688,1.305c-1.12,0-1.991-0.383-2.613-1.148
			s-0.934-1.854-0.934-3.266s0.313-2.508,0.938-3.289s1.495-1.172,2.609-1.172c1.161,0,2.052,0.422,2.672,1.266h0.102l-0.055-0.617
			l-0.031-0.602v-3.484h1.297v12.156h-1.055L136.625,188.712z M134.031,188.931c0.886,0,1.527-0.241,1.926-0.723
			s0.598-1.259,0.598-2.332v-0.273c0-1.214-0.202-2.079-0.605-2.598s-1.048-0.777-1.934-0.777c-0.761,0-1.343,0.296-1.746,0.887
			s-0.605,1.426-0.605,2.504c0,1.094,0.2,1.919,0.602,2.477S133.255,188.931,134.031,188.931z"/>
		<path fill="#4D4D4D" d="M144.219,190.017c-1.266,0-2.265-0.386-2.996-1.156s-1.098-1.841-1.098-3.211
			c0-1.38,0.34-2.477,1.02-3.289s1.593-1.219,2.738-1.219c1.073,0,1.922,0.353,2.547,1.059s0.938,1.637,0.938,2.793v0.82h-5.898
			c0.026,1.005,0.28,1.769,0.762,2.289s1.16,0.781,2.035,0.781c0.922,0,1.833-0.192,2.734-0.578v1.156
			c-0.458,0.198-0.892,0.34-1.301,0.426S144.797,190.017,144.219,190.017z M143.867,182.228c-0.688,0-1.235,0.224-1.645,0.672
			s-0.649,1.067-0.723,1.859h4.477c0-0.817-0.183-1.444-0.547-1.879S144.544,182.228,143.867,182.228z"/>
		<path fill="#4D4D4D" d="M153.195,190.017c-1.266,0-2.265-0.386-2.996-1.156s-1.098-1.841-1.098-3.211
			c0-1.38,0.34-2.477,1.02-3.289s1.593-1.219,2.738-1.219c1.073,0,1.922,0.353,2.547,1.059s0.938,1.637,0.938,2.793v0.82h-5.898
			c0.026,1.005,0.28,1.769,0.762,2.289s1.16,0.781,2.035,0.781c0.922,0,1.833-0.192,2.734-0.578v1.156
			c-0.458,0.198-0.892,0.34-1.301,0.426S153.773,190.017,153.195,190.017z M152.844,182.228c-0.688,0-1.235,0.224-1.645,0.672
			s-0.649,1.067-0.723,1.859h4.477c0-0.817-0.183-1.444-0.547-1.879S153.521,182.228,152.844,182.228z"/>
		<path fill="#4D4D4D" d="M159.438,186.712v-0.422c0-0.609,0.094-1.11,0.281-1.504s0.536-0.809,1.047-1.246
			c0.708-0.599,1.155-1.05,1.34-1.352s0.277-0.667,0.277-1.094c0-0.531-0.171-0.941-0.512-1.23s-0.832-0.434-1.473-0.434
			c-0.411,0-0.813,0.048-1.203,0.145s-0.839,0.272-1.344,0.527l-0.461-1.055c0.984-0.516,2.013-0.773,3.086-0.773
			c0.995,0,1.769,0.245,2.32,0.734s0.828,1.18,0.828,2.07c0,0.38-0.051,0.715-0.152,1.004s-0.251,0.563-0.449,0.82
			s-0.625,0.673-1.281,1.246c-0.526,0.448-0.874,0.82-1.043,1.117s-0.254,0.692-0.254,1.188v0.258H159.438z M159.055,189.032
			c0-0.708,0.313-1.063,0.938-1.063c0.302,0,0.535,0.091,0.699,0.273s0.246,0.445,0.246,0.789c0,0.333-0.083,0.593-0.25,0.777
			s-0.398,0.277-0.695,0.277c-0.271,0-0.495-0.082-0.672-0.246S159.055,189.407,159.055,189.032z"/>
	</g>
</g>
<g>
	<g>
		<defs>
			<rect id="SVGID_3_" x="77.8" y="33.532" width="72.2" height="72.315"/>
		</defs>
		<clipPath id="SVGID_2_">
			<use xlink:href="#SVGID_3_"  overflow="visible"/>
		</clipPath>
		<path clip-path="url(#SVGID_2_)" fill="#525252" d="M148.468,92.135l-15.142-15.144c-1.085-1.03-2.35-1.545-3.798-1.545
			c-1.472,0-2.807,0.598-4.003,1.795L114.844,66.56l5.258-5.256c0.39-0.39,0.585-0.862,0.585-1.42c0-0.556-0.195-1.028-0.585-1.418
			c0.055,0.055,0.223,0.23,0.5,0.522c0.278,0.293,0.46,0.465,0.545,0.52c0.083,0.058,0.243,0.195,0.477,0.417
			c0.237,0.223,0.425,0.362,0.565,0.417c0.14,0.055,0.327,0.138,0.565,0.25c0.236,0.11,0.465,0.188,0.688,0.23
			c0.222,0.04,0.472,0.063,0.75,0.063c1.058,0,2.003-0.39,2.838-1.167c0.083-0.085,0.333-0.315,0.75-0.69
			c0.417-0.375,0.703-0.64,0.855-0.793c0.152-0.152,0.383-0.41,0.69-0.773c0.305-0.36,0.52-0.668,0.645-0.917
			c0.125-0.25,0.25-0.555,0.378-0.918c0.125-0.36,0.185-0.723,0.185-1.085c0-1.112-0.388-2.058-1.168-2.836l-17.021-17.022
			c-0.778-0.777-1.723-1.167-2.836-1.167c-0.362,0-0.723,0.063-1.085,0.188c-0.363,0.125-0.668,0.25-0.918,0.375
			c-0.25,0.125-0.558,0.34-0.917,0.648c-0.363,0.305-0.62,0.535-0.773,0.687c-0.153,0.152-0.418,0.44-0.793,0.855
			c-0.375,0.417-0.605,0.668-0.687,0.753c-0.78,0.833-1.168,1.78-1.168,2.835c0,0.278,0.02,0.531,0.062,0.75
			c0.043,0.225,0.118,0.453,0.23,0.69c0.11,0.238,0.193,0.426,0.25,0.563c0.055,0.14,0.193,0.328,0.415,0.565
			c0.223,0.235,0.362,0.395,0.417,0.48c0.055,0.083,0.23,0.262,0.523,0.543c0.293,0.277,0.465,0.445,0.52,0.5
			c-0.387-0.39-0.86-0.585-1.418-0.585c-0.555,0-1.027,0.195-1.418,0.585L88.229,58.469c-0.387,0.39-0.582,0.862-0.582,1.418
			c0,0.558,0.195,1.03,0.582,1.417c-0.055-0.055-0.223-0.227-0.5-0.52c-0.278-0.293-0.458-0.468-0.543-0.523
			c-0.083-0.054-0.243-0.195-0.48-0.417c-0.235-0.223-0.422-0.36-0.563-0.415c-0.138-0.055-0.328-0.14-0.563-0.25
			c-0.237-0.113-0.465-0.188-0.69-0.23c-0.22-0.043-0.472-0.063-0.75-0.063c-1.055,0-2.003,0.387-2.837,1.167
			c-0.083,0.083-0.333,0.313-0.75,0.687c-0.418,0.378-0.703,0.64-0.855,0.793c-0.152,0.155-0.383,0.41-0.687,0.773
			c-0.305,0.362-0.523,0.668-0.648,0.917c-0.125,0.25-0.25,0.558-0.375,0.918c-0.125,0.362-0.188,0.723-0.188,1.085
			c0,1.113,0.39,2.058,1.167,2.838L95.99,85.085c0.778,0.78,1.725,1.167,2.836,1.167c0.362,0,0.725-0.06,1.085-0.185
			c0.362-0.125,0.668-0.253,0.918-0.378c0.252-0.125,0.558-0.34,0.917-0.645c0.363-0.307,0.62-0.535,0.773-0.69
			c0.152-0.152,0.418-0.438,0.792-0.855c0.375-0.417,0.606-0.668,0.691-0.75c0.777-0.835,1.167-1.78,1.167-2.837
			c0-0.278-0.022-0.528-0.063-0.75c-0.042-0.223-0.12-0.453-0.23-0.69c-0.113-0.236-0.195-0.422-0.25-0.563
			c-0.055-0.14-0.195-0.328-0.417-0.565c-0.223-0.235-0.363-0.395-0.418-0.477c-0.054-0.085-0.23-0.265-0.52-0.545
			c-0.293-0.277-0.468-0.445-0.522-0.5c0.39,0.39,0.862,0.585,1.417,0.585c0.558,0,1.031-0.195,1.418-0.585l5.258-5.258
			l10.679,10.682c-1.195,1.195-1.793,2.53-1.793,4.003c0,1.502,0.527,2.755,1.585,3.755l15.145,15.186
			c1.03,1.028,2.28,1.543,3.755,1.543c1.445,0,2.71-0.515,3.796-1.543l4.463-4.508c1.031-1.027,1.545-2.28,1.545-3.753
			C150.015,94.483,149.501,93.218,148.468,92.135L148.468,92.135z M148.468,92.135"/>
	</g>
</g>
</svg>
