<svg version="1.1" xmlns="http://www.w3.org/2000/svg" xmlns:xlink="http://www.w3.org/1999/xlink" x="0" y="0" width="211" height="108" viewBox="0 0 211 108" enable-background="new 0 0 211 108" xml:space="preserve"><g id="Lijntjes"><rect x="159.833" y="86.371" fill="#BA6868" width="51.167" height="8.26"/><rect x="0" y="86.215" fill="#76966E" width="86.936" height="8.44"/><rect x="0" y="14.301" fill="#4C88A8" width="211" height="8.44"/></g><g id="text_logo"><g><rect x="-28.667" y="8.5" fill="none" width="271.333" height="108.5"/><path fill="#5C5C5C" d="M20.271,81.02c-2.483,0-4.786-0.409-6.909-1.225c-2.123-0.816-3.953-1.943-5.487-3.381 c-1.536-1.437-2.744-3.136-3.626-5.096c-0.883-1.96-1.323-4.082-1.323-6.37c0-2.417,0.522-4.606,1.567-6.566 s2.531-3.658,4.46-5.096c1.926-1.437,4.214-2.548,6.859-3.332c2.646-0.784,5.569-1.176,8.771-1.176 c2.416,0,4.802,0.213,7.153,0.637c2.353,0.426,4.475,0.997,6.37,1.715v-3.528c0-3.788-1.078-6.745-3.233-8.869 c-2.156-2.122-5.26-3.185-9.311-3.185c-2.744,0-5.438,0.507-8.085,1.519c-2.646,1.014-5.375,2.467-8.183,4.361l-3.332-6.86 c6.598-4.442,13.458-6.664,20.58-6.664c7.056,0,12.544,1.798,16.464,5.39c3.92,3.594,5.88,8.756,5.88,15.484v18.522 c0,1.242,0.229,2.124,0.686,2.646c0.457,0.524,1.24,0.818,2.353,0.882v9.212c-1.046,0.196-2.009,0.326-2.892,0.392 c-0.882,0.064-1.683,0.098-2.4,0.098c-2.092-0.132-3.675-0.686-4.753-1.666s-1.749-2.286-2.009-3.92l-0.294-3.234 c-2.288,3.006-5.113,5.309-8.478,6.909C27.735,80.219,24.125,81.02,20.271,81.02z M23.211,73.082c2.612,0,5.079-0.473,7.398-1.421 c2.318-0.946,4.132-2.27,5.439-3.969c1.372-1.176,2.058-2.416,2.058-3.724v-6.762c-1.83-0.718-3.772-1.274-5.831-1.666 c-2.058-0.392-4.066-0.588-6.026-0.588c-3.856,0-7.008,0.833-9.457,2.499c-2.45,1.666-3.676,3.871-3.676,6.615 c0,2.548,0.946,4.689,2.843,6.419C17.853,72.216,20.271,73.082,23.211,73.082z"/><path fill="#5C5C5C" d="M90.829,38.096c-4.182,0.131-7.874,1.095-11.074,2.891c-3.201,1.798-5.521,4.361-6.958,7.693v31.36H62.018 V28.786h9.995v11.466c1.829-3.528,4.165-6.402,7.008-8.624c2.842-2.22,5.862-3.332,9.064-3.332c0.652,0,1.191,0,1.617,0 c0.424,0,0.799,0.034,1.127,0.098V38.096z"/><path fill="#5C5C5C" d="M119.053,80.53c-3.464,0-6.615-0.702-9.457-2.107c-2.842-1.404-5.292-3.315-7.351-5.733 c-2.058-2.416-3.659-5.194-4.802-8.33c-1.144-3.136-1.715-6.434-1.715-9.898c0-3.658,0.571-7.105,1.715-10.339 c1.143-3.234,2.76-6.042,4.852-8.428c2.09-2.384,4.589-4.278,7.496-5.684c2.907-1.404,6.125-2.107,9.653-2.107 c4.181,0,7.807,0.98,10.878,2.94c3.07,1.96,5.618,4.508,7.645,7.644v-9.702h9.506v49.784c0,3.724-0.687,7.022-2.059,9.898 c-1.371,2.874-3.282,5.307-5.732,7.301c-2.45,1.992-5.341,3.511-8.673,4.557c-3.332,1.044-6.926,1.568-10.78,1.568 c-5.684,0-10.388-0.965-14.112-2.891c-3.724-1.928-6.894-4.623-9.506-8.085l6.076-5.684c1.96,2.744,4.491,4.834,7.595,6.272 c3.103,1.437,6.419,2.156,9.947,2.156c2.221,0,4.327-0.294,6.321-0.882c1.992-0.588,3.739-1.504,5.243-2.744 c1.502-1.242,2.694-2.81,3.576-4.704c0.883-1.896,1.323-4.15,1.323-6.762v-7.84c-1.83,3.136-4.346,5.554-7.546,7.252 C125.945,79.681,122.58,80.53,119.053,80.53z M122.58,71.808c1.633,0,3.201-0.277,4.704-0.833 c1.503-0.554,2.892-1.306,4.165-2.254c1.274-0.946,2.367-2.024,3.283-3.234c0.914-1.208,1.568-2.499,1.96-3.871V48.189 c-1.308-3.266-3.332-5.929-6.076-7.987c-2.744-2.058-5.684-3.087-8.819-3.087c-2.353,0-4.459,0.507-6.321,1.519 c-1.862,1.014-3.447,2.352-4.753,4.018c-1.308,1.666-2.32,3.545-3.038,5.635c-0.72,2.092-1.078,4.248-1.078,6.468 c0,2.352,0.407,4.557,1.225,6.615c0.816,2.058,1.943,3.855,3.382,5.39c1.436,1.536,3.119,2.761,5.047,3.675 C118.186,71.351,120.293,71.808,122.58,71.808z"/><path fill="#5C5C5C" d="M175.893,81.02c-5.292,0-9.31-1.747-12.054-5.243c-2.744-3.494-4.116-8.705-4.116-15.631v-31.36h10.78 V57.99c0,9.212,3.233,13.818,9.702,13.818c3.136,0,6.076-0.946,8.819-2.842c2.744-1.894,4.866-4.638,6.37-8.232V28.786h10.78 v38.514c0,1.242,0.229,2.124,0.686,2.646c0.457,0.524,1.274,0.818,2.45,0.882v9.212c-1.176,0.196-2.189,0.326-3.038,0.392 c-0.85,0.064-1.602,0.098-2.254,0.098c-4.052-0.328-6.338-2.188-6.859-5.586l-0.196-5.292c-2.288,3.724-5.26,6.551-8.918,8.477 C184.385,80.055,180.335,81.02,175.893,81.02z"/></g></g></svg>