<?xml version="1.0" encoding="utf-8"?>
<!-- Generator: Adobe Illustrator 16.0.0, SVG Export Plug-In . SVG Version: 6.00 Build 0)  -->
<!DOCTYPE svg PUBLIC "-//W3C//DTD SVG 1.1//EN" "http://www.w3.org/Graphics/SVG/1.1/DTD/svg11.dtd">
<svg version="1.1" id="Layer_1" xmlns="http://www.w3.org/2000/svg" xmlns:xlink="http://www.w3.org/1999/xlink" x="0px" y="0px"
	 width="276px" height="90px" viewBox="0 0 276 90" enable-background="new 0 0 276 90" xml:space="preserve">
<rect x="-4" fill="#FFFFFF" width="280" height="90"/>
<rect x="67" y="15" fill="#FFFFFF" width="365" height="45"/>
<rect x="92" fill="#468783" width="92" height="45"/>
<g id="Argu_Logo_3_">
	<rect x="92" y="10" fill="none" width="92" height="40.959"/>
	<path fill="#FFFFFF" d="M115.893,9.607c0.436,0,0.808,0.156,1.116,0.465c0.309,0.311,0.463,0.684,0.463,1.121
		c0,0.43-0.154,0.799-0.463,1.107c-0.309,0.311-0.681,0.465-1.116,0.465c-0.427,0-0.794-0.154-1.103-0.465
		c-0.309-0.309-0.463-0.678-0.463-1.107c0-0.438,0.154-0.811,0.463-1.121C115.098,9.764,115.466,9.607,115.893,9.607z
		 M114.942,15.732h1.914v14.875h-1.914V15.732z"/>
	<path fill="#FFFFFF" d="M120.835,15.732h1.914v2.666c0.766-1.02,1.613-1.783,2.543-2.289s1.941-0.76,3.035-0.76
		c1.112,0,2.099,0.283,2.96,0.848c0.861,0.566,1.497,1.326,1.907,2.283s0.615,2.447,0.615,4.471v7.656h-1.914v-7.096
		c0-1.713-0.071-2.857-0.213-3.432c-0.222-0.984-0.647-1.725-1.276-2.221c-0.629-0.497-1.449-0.746-2.461-0.746
		c-1.158,0-2.195,0.383-3.111,1.148s-1.52,1.715-1.812,2.844c-0.183,0.738-0.273,2.088-0.273,4.047v5.455h-1.914V15.732z"/>
	<path fill="#FFFFFF" d="M144.036,9.99v1.873c-0.702-0.301-1.304-0.451-1.805-0.451c-0.374,0-0.684,0.076-0.93,0.227
		s-0.401,0.323-0.465,0.52c-0.064,0.195-0.096,0.717-0.096,1.564l-0.002,2.01h3.105v1.654h-3.106l-0.011,13.221h-1.914V17.387
		h-1.955v-1.654h1.955v-2.324c0-1.066,0.098-1.826,0.294-2.283c0.196-0.455,0.528-0.822,0.998-1.1
		c0.469-0.278,1.037-0.418,1.702-0.418C142.427,9.607,143.17,9.736,144.036,9.99z"/>
	<path fill="#FFFFFF" d="M153.743,15.35c2.292,0,4.191,0.83,5.698,2.488c1.369,1.514,2.054,3.305,2.054,5.373
		c0,2.078-0.724,3.895-2.171,5.449c-1.447,1.554-3.308,2.33-5.581,2.33c-2.283,0-4.147-0.776-5.595-2.33
		c-1.447-1.555-2.171-3.371-2.171-5.449c0-2.059,0.685-3.846,2.054-5.359C149.539,16.184,151.442,15.35,153.743,15.35z
		 M153.736,17.223c-1.591,0-2.959,0.588-4.103,1.764c-1.143,1.176-1.715,2.598-1.715,4.266c0,1.076,0.261,2.078,0.782,3.008
		c0.521,0.93,1.226,1.648,2.113,2.154s1.861,0.758,2.922,0.758s2.035-0.252,2.922-0.758s1.591-1.225,2.113-2.154
		s0.782-1.932,0.782-3.008c0-1.668-0.574-3.09-1.722-4.266S155.319,17.223,153.736,17.223z"/>
</g>
<rect x="184" fill="#468783" width="92" height="45"/>
<g id="Argu_Logo_4_">
	<rect x="184" y="10" fill="none" width="92" height="40.959"/>
	<path fill="#FFFFFF" d="M204.632,15.732h1.914v6.945c0,1.695,0.091,2.863,0.274,3.5c0.274,0.912,0.796,1.633,1.568,2.16
		c0.771,0.529,1.69,0.793,2.759,0.793c1.068,0,1.974-0.257,2.718-0.771c0.744-0.516,1.257-1.191,1.541-2.031
		c0.192-0.574,0.288-1.791,0.288-3.65v-6.945h1.955v7.301c0,2.051-0.239,3.596-0.718,4.635s-1.199,1.854-2.16,2.441
		c-0.962,0.588-2.167,0.881-3.616,0.881s-2.659-0.293-3.63-0.881s-1.695-1.408-2.174-2.461s-0.718-2.637-0.718-4.752V15.732z"/>
	<path fill="#FFFFFF" d="M229.378,17.359l-1.23,1.271c-1.023-0.992-2.024-1.49-3.002-1.49c-0.622,0-1.154,0.205-1.597,0.615
		c-0.443,0.41-0.665,0.889-0.665,1.436c0,0.484,0.183,0.943,0.548,1.381c0.365,0.447,1.133,0.971,2.302,1.572
		c1.425,0.738,2.393,1.449,2.905,2.133c0.502,0.693,0.753,1.473,0.753,2.338c0,1.223-0.429,2.256-1.287,3.104
		c-0.858,0.848-1.931,1.271-3.218,1.271c-0.858,0-1.678-0.187-2.458-0.561c-0.78-0.373-1.426-0.889-1.938-1.545l1.203-1.367
		c0.978,1.104,2.015,1.654,3.111,1.654c0.767,0,1.42-0.246,1.959-0.738s0.809-1.07,0.809-1.736c0-0.547-0.178-1.033-0.534-1.463
		c-0.356-0.418-1.16-0.947-2.412-1.586c-1.343-0.691-2.256-1.375-2.74-2.051c-0.484-0.674-0.726-1.443-0.726-2.311
		c0-1.129,0.386-2.068,1.157-2.816c0.771-0.746,1.746-1.121,2.924-1.121C226.611,15.35,227.99,16.02,229.378,17.359z"/>
	<path fill="#FFFFFF" d="M245.292,25.672l1.613,0.848c-0.529,1.039-1.14,1.879-1.834,2.516c-0.693,0.639-1.473,1.124-2.34,1.457
		c-0.867,0.332-1.848,0.498-2.942,0.498c-2.427,0-4.324-0.795-5.692-2.385c-1.369-1.591-2.053-3.389-2.053-5.395
		c0-1.887,0.579-3.568,1.738-5.045c1.469-1.877,3.435-2.816,5.898-2.816c2.536,0,4.562,0.963,6.076,2.885
		c1.077,1.359,1.624,3.055,1.642,5.086h-13.385c0.036,1.729,0.588,3.145,1.656,4.25c1.068,1.104,2.386,1.656,3.956,1.656
		c0.757,0,1.494-0.131,2.21-0.395s1.326-0.613,1.828-1.049S244.708,26.645,245.292,25.672z M245.292,21.666
		c-0.255-1.02-0.627-1.836-1.116-2.447c-0.488-0.609-1.134-1.102-1.937-1.477c-0.803-0.373-1.647-0.561-2.532-0.561
		c-1.46,0-2.715,0.471-3.765,1.408c-0.767,0.684-1.346,1.709-1.738,3.076H245.292z"/>
	<path fill="#FFFFFF" d="M250.241,15.732h1.955v2.174c0.583-0.855,1.198-1.496,1.846-1.92s1.321-0.637,2.023-0.637
		c0.528,0,1.094,0.17,1.695,0.506l-0.998,1.613c-0.401-0.172-0.738-0.26-1.012-0.26c-0.638,0-1.253,0.263-1.846,0.787
		c-0.593,0.523-1.044,1.338-1.354,2.439c-0.237,0.848-0.355,2.563-0.355,5.141v5.031h-1.955V15.732z"/>
</g>
<rect fill="#468783" width="92" height="45"/>
<g id="Argu_Logo_2_">
	<rect y="7" fill="none" width="92" height="40.959"/>
	<path fill="#FFFFFF" d="M28.087,13.961v18.063h-2.291V28.92c-0.974,1.184-2.067,2.074-3.279,2.672s-2.538,0.896-3.976,0.896
		c-2.557,0-4.74-0.926-6.549-2.78c-1.81-1.854-2.714-4.108-2.714-6.765c0-2.602,0.913-4.826,2.739-6.674
		c1.826-1.849,4.023-2.773,6.591-2.773c1.483,0,2.825,0.316,4.026,0.947c1.201,0.631,2.255,1.576,3.163,2.838v-3.32H28.087z
		 M18.798,15.738c-1.293,0-2.487,0.317-3.582,0.953c-1.095,0.636-1.965,1.529-2.612,2.678c-0.646,1.15-0.97,2.366-0.97,3.648
		c0,1.271,0.326,2.488,0.978,3.648c0.652,1.16,1.528,2.064,2.628,2.711c1.1,0.646,2.28,0.971,3.541,0.971
		c1.271,0,2.476-0.321,3.615-0.963c1.139-0.641,2.015-1.508,2.628-2.604c0.614-1.094,0.92-2.326,0.92-3.697
		c0-2.09-0.688-3.836-2.064-5.24S20.81,15.738,18.798,15.738z"/>
	<path fill="#FFFFFF" d="M32.437,13.961h2.374v2.641c0.708-1.041,1.455-1.818,2.241-2.333c0.786-0.515,1.604-0.772,2.457-0.772
		c0.642,0,1.328,0.205,2.059,0.615l-1.212,1.959c-0.487-0.211-0.896-0.316-1.229-0.316c-0.775,0-1.522,0.318-2.241,0.955
		c-0.72,0.637-1.268,1.625-1.644,2.963c-0.288,1.029-0.432,3.111-0.432,6.242v6.109h-2.374V13.961z"/>
	<path fill="#FFFFFF" d="M59.115,13.961h2.324v14.395c0,2.534-0.222,4.388-0.664,5.561c-0.609,1.66-1.666,2.939-3.171,3.836
		c-1.505,0.896-3.315,1.344-5.429,1.344c-1.55,0-2.941-0.219-4.175-0.657c-1.234-0.438-2.239-1.026-3.013-1.765
		c-0.775-0.738-1.489-1.818-2.142-3.238h2.523c0.687,1.195,1.574,2.08,2.659,2.656c1.086,0.574,2.433,0.863,4.039,0.863
		c1.584,0,2.923-0.296,4.015-0.886c1.091-0.591,1.87-1.332,2.335-2.226c0.465-0.893,0.698-2.336,0.698-4.326v-0.93
		c-0.875,1.106-1.944,1.956-3.208,2.548c-1.263,0.593-2.604,0.888-4.021,0.888c-1.662,0-3.224-0.412-4.687-1.236
		s-2.592-1.934-3.39-3.328c-0.797-1.395-1.196-2.928-1.196-4.6c0-1.67,0.416-3.229,1.247-4.673c0.831-1.444,1.98-2.587,3.448-3.429
		c1.468-0.84,3.016-1.262,4.645-1.262c1.352,0,2.612,0.28,3.781,0.839c1.169,0.56,2.296,1.48,3.382,2.765V13.961z M52.259,15.738
		c-1.317,0-2.54,0.318-3.669,0.954c-1.129,0.637-2.015,1.517-2.656,2.64c-0.642,1.123-0.963,2.338-0.963,3.645
		c0,1.98,0.664,3.619,1.992,4.914s3.049,1.941,5.163,1.941c2.136,0,3.854-0.641,5.155-1.926c1.3-1.283,1.951-2.971,1.951-5.063
		c0-1.361-0.299-2.576-0.896-3.645s-1.444-1.912-2.54-2.531C54.699,16.048,53.521,15.738,52.259,15.738z"/>
	<path fill="#FFFFFF" d="M66.121,13.961h2.324v8.434c0,2.059,0.111,3.477,0.333,4.25c0.333,1.107,0.967,1.982,1.904,2.623
		c0.937,0.643,2.053,0.963,3.35,0.963s2.397-0.313,3.3-0.938s1.527-1.447,1.871-2.465c0.232-0.697,0.349-2.176,0.349-4.434v-8.434
		h2.374v8.865c0,2.49-0.291,4.367-0.872,5.629s-1.456,2.249-2.623,2.963c-1.168,0.714-2.631,1.07-4.391,1.07
		s-3.229-0.356-4.408-1.07s-2.059-1.71-2.64-2.988s-0.872-3.201-0.872-5.77V13.961z"/>
</g>
<rect x="92" y="45" fill="#529E99" width="92" height="45"/>
<g id="Argu_Logo_7_">
	<rect x="92" y="55" fill="none" width="92" height="40.959"/>
	<path fill="#FFFFFF" d="M115.893,54.607c0.436,0,0.808,0.156,1.116,0.465c0.309,0.311,0.463,0.684,0.463,1.121
		c0,0.43-0.154,0.799-0.463,1.107c-0.309,0.311-0.681,0.465-1.116,0.465c-0.427,0-0.794-0.154-1.103-0.465
		c-0.309-0.309-0.463-0.678-0.463-1.107c0-0.438,0.154-0.811,0.463-1.121C115.098,54.764,115.466,54.607,115.893,54.607z
		 M114.942,60.732h1.914v14.875h-1.914V60.732z"/>
	<path fill="#FFFFFF" d="M120.835,60.732h1.914v2.666c0.766-1.02,1.613-1.783,2.543-2.289s1.941-0.76,3.035-0.76
		c1.112,0,2.099,0.283,2.96,0.848c0.861,0.566,1.497,1.326,1.907,2.283s0.615,2.447,0.615,4.471v7.656h-1.914v-7.096
		c0-1.713-0.071-2.857-0.213-3.432c-0.222-0.984-0.647-1.725-1.276-2.221c-0.629-0.497-1.449-0.746-2.461-0.746
		c-1.158,0-2.195,0.383-3.111,1.148s-1.52,1.715-1.812,2.844c-0.183,0.738-0.273,2.088-0.273,4.047v5.455h-1.914V60.732z"/>
	<path fill="#FFFFFF" d="M144.036,54.99v1.873c-0.702-0.301-1.304-0.451-1.805-0.451c-0.374,0-0.684,0.076-0.93,0.227
		s-0.401,0.323-0.465,0.52c-0.064,0.195-0.096,0.717-0.096,1.564l-0.002,2.01h3.105v1.654h-3.106l-0.011,13.221h-1.914V62.387
		h-1.955v-1.654h1.955v-2.324c0-1.066,0.098-1.826,0.294-2.283c0.196-0.455,0.528-0.822,0.998-1.1
		c0.469-0.278,1.037-0.418,1.702-0.418C142.427,54.607,143.17,54.736,144.036,54.99z"/>
	<path fill="#FFFFFF" d="M153.743,60.35c2.292,0,4.191,0.83,5.698,2.488c1.369,1.514,2.054,3.305,2.054,5.373
		c0,2.078-0.724,3.895-2.171,5.449c-1.447,1.554-3.308,2.33-5.581,2.33c-2.283,0-4.147-0.776-5.595-2.33
		c-1.447-1.555-2.171-3.371-2.171-5.449c0-2.059,0.685-3.846,2.054-5.359C149.539,61.184,151.442,60.35,153.743,60.35z
		 M153.736,62.223c-1.591,0-2.959,0.588-4.103,1.764c-1.143,1.176-1.715,2.598-1.715,4.266c0,1.076,0.261,2.078,0.782,3.008
		c0.521,0.93,1.226,1.648,2.113,2.154s1.861,0.758,2.922,0.758s2.035-0.252,2.922-0.758s1.591-1.225,2.113-2.154
		s0.782-1.932,0.782-3.008c0-1.668-0.574-3.09-1.722-4.266S155.319,62.223,153.736,62.223z"/>
</g>
<rect x="184" y="45" fill="#529E99" width="92" height="45"/>
<g id="Argu_Logo_6_">
	<rect x="184" y="55" fill="none" width="92" height="40.959"/>
	<path fill="#FFFFFF" d="M204.632,60.732h1.914v6.945c0,1.695,0.091,2.863,0.274,3.5c0.274,0.912,0.796,1.633,1.568,2.16
		c0.771,0.529,1.69,0.793,2.759,0.793c1.068,0,1.974-0.257,2.718-0.771c0.744-0.516,1.257-1.191,1.541-2.031
		c0.192-0.574,0.288-1.791,0.288-3.65v-6.945h1.955v7.301c0,2.051-0.239,3.596-0.718,4.635s-1.199,1.854-2.16,2.441
		c-0.962,0.588-2.167,0.881-3.616,0.881s-2.659-0.293-3.63-0.881s-1.695-1.408-2.174-2.461s-0.718-2.637-0.718-4.752V60.732z"/>
	<path fill="#FFFFFF" d="M229.378,62.359l-1.23,1.271c-1.023-0.992-2.024-1.49-3.002-1.49c-0.622,0-1.154,0.205-1.597,0.615
		c-0.443,0.41-0.665,0.889-0.665,1.436c0,0.484,0.183,0.943,0.548,1.381c0.365,0.447,1.133,0.971,2.302,1.572
		c1.425,0.738,2.393,1.449,2.905,2.133c0.502,0.693,0.753,1.473,0.753,2.338c0,1.223-0.429,2.256-1.287,3.104
		c-0.858,0.848-1.931,1.271-3.218,1.271c-0.858,0-1.678-0.187-2.458-0.561c-0.78-0.373-1.426-0.889-1.938-1.545l1.203-1.367
		c0.978,1.104,2.015,1.654,3.111,1.654c0.767,0,1.42-0.246,1.959-0.738s0.809-1.07,0.809-1.736c0-0.547-0.178-1.033-0.534-1.463
		c-0.356-0.418-1.16-0.947-2.412-1.586c-1.343-0.691-2.256-1.375-2.74-2.051c-0.484-0.674-0.726-1.443-0.726-2.311
		c0-1.129,0.386-2.068,1.157-2.816c0.771-0.746,1.746-1.121,2.924-1.121C226.611,60.35,227.99,61.02,229.378,62.359z"/>
	<path fill="#FFFFFF" d="M245.292,70.672l1.613,0.848c-0.529,1.039-1.14,1.879-1.834,2.516c-0.693,0.639-1.473,1.124-2.34,1.457
		c-0.867,0.332-1.848,0.498-2.942,0.498c-2.427,0-4.324-0.795-5.692-2.385c-1.369-1.591-2.053-3.389-2.053-5.395
		c0-1.887,0.579-3.568,1.738-5.045c1.469-1.877,3.435-2.816,5.898-2.816c2.536,0,4.562,0.963,6.076,2.885
		c1.077,1.359,1.624,3.055,1.642,5.086h-13.385c0.036,1.729,0.588,3.145,1.656,4.25c1.068,1.104,2.386,1.656,3.956,1.656
		c0.757,0,1.494-0.131,2.21-0.395s1.326-0.613,1.828-1.049S244.708,71.645,245.292,70.672z M245.292,66.666
		c-0.255-1.02-0.627-1.836-1.116-2.447c-0.488-0.609-1.134-1.102-1.937-1.477c-0.803-0.373-1.647-0.561-2.532-0.561
		c-1.46,0-2.715,0.471-3.765,1.408c-0.767,0.684-1.346,1.709-1.738,3.076H245.292z"/>
	<path fill="#FFFFFF" d="M250.241,60.732h1.955v2.174c0.583-0.855,1.198-1.496,1.846-1.92s1.321-0.637,2.023-0.637
		c0.528,0,1.094,0.17,1.695,0.506l-0.998,1.613c-0.401-0.172-0.738-0.26-1.012-0.26c-0.638,0-1.253,0.263-1.846,0.787
		c-0.593,0.523-1.044,1.338-1.354,2.439c-0.237,0.848-0.355,2.563-0.355,5.141v5.031h-1.955V60.732z"/>
</g>
<rect y="45" fill="#529E99" width="92" height="45"/>
<g id="Argu_Logo_5_">
	<rect y="52" fill="none" width="92" height="40.959"/>
	<path fill="#FFFFFF" d="M28.087,58.961v18.063h-2.291V73.92c-0.974,1.184-2.067,2.074-3.279,2.672s-2.538,0.896-3.976,0.896
		c-2.557,0-4.74-0.926-6.549-2.78c-1.81-1.854-2.714-4.108-2.714-6.765c0-2.602,0.913-4.826,2.739-6.674
		c1.826-1.849,4.023-2.773,6.591-2.773c1.483,0,2.825,0.316,4.026,0.947c1.201,0.631,2.255,1.576,3.163,2.838v-3.32H28.087z
		 M18.798,60.738c-1.293,0-2.487,0.317-3.582,0.953c-1.095,0.636-1.965,1.529-2.612,2.678c-0.646,1.15-0.97,2.366-0.97,3.648
		c0,1.271,0.326,2.488,0.978,3.648c0.652,1.16,1.528,2.064,2.628,2.711c1.1,0.646,2.28,0.971,3.541,0.971
		c1.271,0,2.476-0.321,3.615-0.963c1.139-0.641,2.015-1.508,2.628-2.604c0.614-1.094,0.92-2.326,0.92-3.697
		c0-2.09-0.688-3.836-2.064-5.24S20.81,60.738,18.798,60.738z"/>
	<path fill="#FFFFFF" d="M32.437,58.961h2.374v2.641c0.708-1.041,1.455-1.818,2.241-2.333c0.786-0.515,1.604-0.772,2.457-0.772
		c0.642,0,1.328,0.205,2.059,0.615l-1.212,1.959c-0.487-0.211-0.896-0.316-1.229-0.316c-0.775,0-1.522,0.318-2.241,0.955
		c-0.72,0.637-1.268,1.625-1.644,2.963c-0.288,1.029-0.432,3.111-0.432,6.242v6.109h-2.374V58.961z"/>
	<path fill="#FFFFFF" d="M59.115,58.961h2.324v14.395c0,2.534-0.222,4.388-0.664,5.561c-0.609,1.66-1.666,2.939-3.171,3.836
		c-1.505,0.896-3.315,1.344-5.429,1.344c-1.55,0-2.941-0.219-4.175-0.657c-1.234-0.438-2.239-1.026-3.013-1.765
		c-0.775-0.738-1.489-1.818-2.142-3.238h2.523c0.687,1.195,1.574,2.08,2.659,2.656c1.086,0.574,2.433,0.863,4.039,0.863
		c1.584,0,2.923-0.296,4.015-0.886c1.091-0.591,1.87-1.332,2.335-2.226c0.465-0.893,0.698-2.336,0.698-4.326v-0.93
		c-0.875,1.106-1.944,1.956-3.208,2.548c-1.263,0.593-2.604,0.888-4.021,0.888c-1.662,0-3.224-0.412-4.687-1.236
		s-2.592-1.934-3.39-3.328c-0.797-1.395-1.196-2.928-1.196-4.6c0-1.67,0.416-3.229,1.247-4.673c0.831-1.444,1.98-2.587,3.448-3.429
		c1.468-0.84,3.016-1.262,4.645-1.262c1.352,0,2.612,0.28,3.781,0.839c1.169,0.56,2.296,1.48,3.382,2.765V58.961z M52.259,60.738
		c-1.317,0-2.54,0.318-3.669,0.954c-1.129,0.637-2.015,1.517-2.656,2.64c-0.642,1.123-0.963,2.338-0.963,3.645
		c0,1.98,0.664,3.619,1.992,4.914s3.049,1.941,5.163,1.941c2.136,0,3.854-0.641,5.155-1.926c1.3-1.283,1.951-2.971,1.951-5.063
		c0-1.361-0.299-2.576-0.896-3.645s-1.444-1.912-2.54-2.531C54.699,61.048,53.521,60.738,52.259,60.738z"/>
	<path fill="#FFFFFF" d="M66.121,58.961h2.324v8.434c0,2.059,0.111,3.477,0.333,4.25c0.333,1.107,0.967,1.982,1.904,2.623
		c0.937,0.643,2.053,0.963,3.35,0.963s2.397-0.313,3.3-0.938s1.527-1.447,1.871-2.465c0.232-0.697,0.349-2.176,0.349-4.434v-8.434
		h2.374v8.865c0,2.49-0.291,4.367-0.872,5.629s-1.456,2.249-2.623,2.963c-1.168,0.714-2.631,1.07-4.391,1.07
		s-3.229-0.356-4.408-1.07s-2.059-1.71-2.64-2.988s-0.872-3.201-0.872-5.77V58.961z"/>
</g>
</svg>
