<svg xmlns:dc="http://purl.org/dc/elements/1.1/" xmlns:cc="http://creativecommons.org/ns#" xmlns:rdf="http://www.w3.org/1999/02/22-rdf-syntax-ns#" xmlns:svg="http://www.w3.org/2000/svg" xmlns="http://www.w3.org/2000/svg" xmlns:xlink="http://www.w3.org/1999/xlink" width="512" height="512" viewBox="0 0 5.12 5.12" id="svg2" version="1.1"><metadata id="metadata28"><rdf:RDF><cc:Work><dc:format>image/svg+xml</dc:format><dc:type rdf:resource="http://purl.org/dc/dcmitype/StillImage"/><dc:title/></cc:Work></rdf:RDF></metadata><defs id="defs4"><polygon id="pt" points="0.16245985,0 -0.16245985,0 0,-0.5" transform="scale(8.844,8.844)" fill="#ffffff"/><g id="star"><use xlink:href="#pt" transform="matrix(-0.80901699,-0.58778525,0.58778525,-0.80901699,0,0)" id="use8" x="0" y="0" width="18" height="12"/><use xlink:href="#pt" transform="matrix(0.30901699,-0.95105652,0.95105652,0.30901699,0,0)" id="use10" x="0" y="0" width="18" height="12"/><use xlink:href="#pt" id="use12" x="0" y="0" width="18" height="12"/><use xlink:href="#pt" transform="matrix(0.30901699,0.95105652,-0.95105652,0.30901699,0,0)" id="use14" x="0" y="0" width="18" height="12"/><use xlink:href="#pt" transform="matrix(-0.80901699,0.58778525,-0.58778525,-0.80901699,0,0)" id="use16" x="0" y="0" width="18" height="12"/></g><clipPath clipPathUnits="userSpaceOnUse" id="clipPath3013"><rect id="rect3015" width="16" height="12" x="1" y="-7.2" stroke="none"/></clipPath><clipPath clipPathUnits="userSpaceOnUse" id="clipPath3042"><rect id="rect3044" width="12" height="12" x="2.992" y="-7.2" stroke="none"/></clipPath></defs><g id="flag" transform="matrix(0.42666668,0,0,0.42666668,-1.2766667,3.072)" clip-path="url(#clipPath3042)"><rect y="-7.2" x="0" id="rect18" height="6" width="18" fill="#fecb00"/><rect x="0" id="rect20" y="-1.2" height="6" width="18" fill="#ea2839"/><rect x="0" id="rect22" y="-3.2" height="4" width="18" fill="#34b233"/><use transform="translate(0,-7.2)" height="12" width="18" id="use24" y="6.422" x="9" xlink:href="#star"/></g></svg>